Besley-Black.ufo
<glyph name="numbersign" format="2">
  <advance width="1320"/>
  <unicode hex="0023"/>
  <outline>
    <contour>
      <point x="462" y="1610" type="curve" smooth="yes"/>
      <point x="583" y="1610" type="line" smooth="yes"/>
      <point x="621" y="1610"/>
      <point x="630" y="1610"/>
      <point x="626" y="1576" type="curve" smooth="yes"/>
      <point x="575" y="1136" type="line" smooth="yes"/>
      <point x="572" y="1107"/>
      <point x="574" y="1100"/>
      <point x="609" y="1100" type="curve" smooth="yes"/>
      <point x="749" y="1100" type="line" smooth="yes"/>
      <point x="793" y="1100"/>
      <point x="800" y="1095"/>
      <point x="805" y="1136" type="curve" smooth="yes"/>
      <point x="855" y="1568" type="line" smooth="yes"/>
      <point x="860" y="1608"/>
      <point x="866" y="1610"/>
      <point x="911" y="1610" type="curve" smooth="yes"/>
      <point x="1023" y="1610" type="line" smooth="yes"/>
      <point x="1066" y="1610"/>
      <point x="1070" y="1607"/>
      <point x="1066" y="1574" type="curve" smooth="yes"/>
      <point x="1016" y="1148" type="line" smooth="yes"/>
      <point x="1011" y="1104"/>
      <point x="1016" y="1100"/>
      <point x="1067" y="1100" type="curve" smooth="yes"/>
      <point x="1305" y="1100" type="line" smooth="yes"/>
      <point x="1334" y="1100"/>
      <point x="1340" y="1094"/>
      <point x="1340" y="1064" type="curve" smooth="yes"/>
      <point x="1340" y="938" type="line" smooth="yes"/>
      <point x="1340" y="891"/>
      <point x="1327" y="890"/>
      <point x="1283" y="890" type="curve" smooth="yes"/>
      <point x="1035" y="890" type="line" smooth="yes"/>
      <point x="994" y="890"/>
      <point x="986" y="894"/>
      <point x="982" y="856" type="curve" smooth="yes"/>
      <point x="962" y="680" type="line" smooth="yes"/>
      <point x="957" y="635"/>
      <point x="963" y="640"/>
      <point x="1011" y="640" type="curve" smooth="yes"/>
      <point x="1239" y="640" type="line" smooth="yes"/>
      <point x="1277" y="640"/>
      <point x="1280" y="633"/>
      <point x="1280" y="594" type="curve" smooth="yes"/>
      <point x="1280" y="464" type="line" smooth="yes"/>
      <point x="1280" y="434"/>
      <point x="1271" y="430"/>
      <point x="1243" y="430" type="curve" smooth="yes"/>
      <point x="971" y="430" type="line" smooth="yes"/>
      <point x="933" y="430"/>
      <point x="933" y="430"/>
      <point x="929" y="396" type="curve" smooth="yes"/>
      <point x="873" y="-74" type="line" smooth="yes"/>
      <point x="869" y="-105"/>
      <point x="868" y="-110"/>
      <point x="833" y="-110" type="curve" smooth="yes"/>
      <point x="717" y="-110" type="line" smooth="yes"/>
      <point x="675" y="-110"/>
      <point x="661" y="-109"/>
      <point x="666" y="-68" type="curve" smooth="yes"/>
      <point x="715" y="366" type="line" smooth="yes"/>
      <point x="721" y="415"/>
      <point x="735" y="430"/>
      <point x="675" y="430" type="curve" smooth="yes"/>
      <point x="549" y="430" type="line" smooth="yes"/>
      <point x="509" y="430"/>
      <point x="492" y="427"/>
      <point x="488" y="389" type="curve" smooth="yes"/>
      <point x="436" y="-58" type="line" smooth="yes"/>
      <point x="430" y="-108"/>
      <point x="431" y="-110"/>
      <point x="375" y="-110" type="curve" smooth="yes"/>
      <point x="273" y="-110" type="line" smooth="yes"/>
      <point x="211" y="-110"/>
      <point x="221" y="-101"/>
      <point x="227" y="-48" type="curve" smooth="yes"/>
      <point x="277" y="372" type="line" smooth="yes"/>
      <point x="283" y="422"/>
      <point x="281" y="430"/>
      <point x="225" y="430" type="curve" smooth="yes"/>
      <point x="31" y="430" type="line" smooth="yes"/>
      <point x="-17" y="430"/>
      <point x="-20" y="437"/>
      <point x="-20" y="486" type="curve" smooth="yes"/>
      <point x="-20" y="598" type="line" smooth="yes"/>
      <point x="-20" y="639"/>
      <point x="-11" y="640"/>
      <point x="31" y="640" type="curve" smooth="yes"/>
      <point x="263" y="640" type="line" smooth="yes"/>
      <point x="310" y="640"/>
      <point x="307" y="643"/>
      <point x="312" y="684" type="curve" smooth="yes"/>
      <point x="333" y="850" type="line" smooth="yes"/>
      <point x="337" y="883"/>
      <point x="333" y="890"/>
      <point x="297" y="890" type="curve" smooth="yes"/>
      <point x="93" y="890" type="line" smooth="yes"/>
      <point x="47" y="890"/>
      <point x="40" y="893"/>
      <point x="40" y="938" type="curve" smooth="yes"/>
      <point x="40" y="1056" type="line" smooth="yes"/>
      <point x="40" y="1094"/>
      <point x="45" y="1100"/>
      <point x="85" y="1100" type="curve" smooth="yes"/>
      <point x="321" y="1100" type="line" smooth="yes"/>
      <point x="364" y="1100"/>
      <point x="362" y="1104"/>
      <point x="366" y="1142" type="curve" smooth="yes"/>
      <point x="415" y="1564" type="line" smooth="yes"/>
      <point x="419" y="1598"/>
      <point x="421" y="1610"/>
    </contour>
    <contour>
      <point x="727" y="890" type="curve" smooth="yes"/>
      <point x="589" y="890" type="line" smooth="yes"/>
      <point x="539" y="890"/>
      <point x="545" y="880"/>
      <point x="540" y="838" type="curve" smooth="yes"/>
      <point x="523" y="690" type="line" smooth="yes"/>
      <point x="518" y="648"/>
      <point x="522" y="640"/>
      <point x="571" y="640" type="curve" smooth="yes"/>
      <point x="705" y="640" type="line" smooth="yes"/>
      <point x="744" y="640"/>
      <point x="747" y="648"/>
      <point x="751" y="684" type="curve" smooth="yes"/>
      <point x="771" y="842" type="line" smooth="yes"/>
      <point x="776" y="888"/>
      <point x="769" y="890"/>
    </contour>
  </outline>
</glyph>
<glyph name="ampersand" format="2">
  <advance width="1840"/>
  <unicode hex="0026"/>
  <outline>
    <contour>
      <point x="1219" y="920" type="curve" smooth="yes"/>
      <point x="1676" y="920" type="line" smooth="yes"/>
      <point x="1704" y="920"/>
      <point x="1710" y="915"/>
      <point x="1710" y="885" type="curve" smooth="yes"/>
      <point x="1710" y="722" type="line" smooth="yes"/>
      <point x="1710" y="694"/>
      <point x="1703" y="690"/>
      <point x="1674" y="690" type="curve" smooth="yes"/>
      <point x="1576" y="690" type="line" smooth="yes"/>
      <point x="1542" y="690"/>
      <point x="1535" y="682"/>
      <point x="1526" y="658" type="curve" smooth="yes"/>
      <point x="1490" y="562"/>
      <point x="1439" y="468"/>
      <point x="1373" y="381" type="curve" smooth="yes"/>
      <point x="1346" y="345"/>
      <point x="1339" y="344"/>
      <point x="1367" y="306" type="curve" smooth="yes"/>
      <point x="1402" y="259" type="line" smooth="yes"/>
      <point x="1422" y="232"/>
      <point x="1431" y="230"/>
      <point x="1480" y="230" type="curve" smooth="yes"/>
      <point x="1681" y="230" type="line" smooth="yes"/>
      <point x="1717" y="230"/>
      <point x="1720" y="222"/>
      <point x="1720" y="185" type="curve" smooth="yes"/>
      <point x="1720" y="50" type="line" smooth="yes"/>
      <point x="1720" y="6"/>
      <point x="1715" y="0"/>
      <point x="1672" y="0" type="curve" smooth="yes"/>
      <point x="1150" y="0" type="line" smooth="yes"/>
      <point x="1095" y="0"/>
      <point x="1086" y="12"/>
      <point x="1062" y="42" type="curve" smooth="yes"/>
      <point x="1054" y="52" type="line" smooth="yes"/>
      <point x="1038" y="72"/>
      <point x="1028" y="79"/>
      <point x="994" y="62" type="curve" smooth="yes"/>
      <point x="866" y="-2"/>
      <point x="720" y="-40"/>
      <point x="560" y="-40" type="curve" smooth="yes"/>
      <point x="214" y="-40"/>
      <point x="2" y="114"/>
      <point x="2" y="400" type="curve" smooth="yes"/>
      <point x="2" y="674"/>
      <point x="207" y="781"/>
      <point x="424" y="861" type="curve" smooth="yes"/>
      <point x="475" y="880"/>
      <point x="457" y="887"/>
      <point x="430" y="924" type="curve" smooth="yes"/>
      <point x="390" y="980" type="line"/>
      <point x="340" y="1058"/>
      <point x="298" y="1136"/>
      <point x="298" y="1206" type="curve" smooth="yes"/>
      <point x="298" y="1426"/>
      <point x="528" y="1540"/>
      <point x="840" y="1540" type="curve" smooth="yes"/>
      <point x="1134" y="1540"/>
      <point x="1332" y="1430"/>
      <point x="1332" y="1250" type="curve" smooth="yes"/>
      <point x="1332" y="1048"/>
      <point x="1178" y="947"/>
      <point x="999" y="866" type="curve" smooth="yes"/>
      <point x="962" y="849"/>
      <point x="968" y="849"/>
      <point x="990" y="819" type="curve" smooth="yes"/>
      <point x="1180" y="560" type="line" smooth="yes"/>
      <point x="1211" y="517"/>
      <point x="1213" y="520"/>
      <point x="1241" y="566" type="curve" smooth="yes"/>
      <point x="1260" y="596"/>
      <point x="1276" y="627"/>
      <point x="1290" y="659" type="curve" smooth="yes"/>
      <point x="1302" y="686"/>
      <point x="1289" y="690"/>
      <point x="1269" y="690" type="curve" smooth="yes"/>
      <point x="1212" y="690" type="line" smooth="yes"/>
      <point x="1178" y="690"/>
      <point x="1170" y="695"/>
      <point x="1170" y="732" type="curve" smooth="yes"/>
      <point x="1170" y="862" type="line" smooth="yes"/>
      <point x="1170" y="905"/>
      <point x="1177" y="920"/>
    </contour>
    <contour>
      <point x="544" y="631" type="curve" smooth="yes"/>
      <point x="493" y="581"/>
      <point x="462" y="519"/>
      <point x="462" y="440" type="curve" smooth="yes"/>
      <point x="462" y="296"/>
      <point x="542" y="216"/>
      <point x="670" y="216" type="curve" smooth="yes"/>
      <point x="739" y="216"/>
      <point x="805" y="228"/>
      <point x="867" y="250" type="curve" smooth="yes"/>
      <point x="913" y="266"/>
      <point x="894" y="275"/>
      <point x="871" y="308" type="curve" smooth="yes"/>
      <point x="634" y="640" type="line" smooth="yes"/>
      <point x="598" y="690"/>
      <point x="585" y="672"/>
    </contour>
    <contour>
      <point x="924" y="1230" type="curve" smooth="yes"/>
      <point x="924" y="1284"/>
      <point x="908" y="1360"/>
      <point x="828" y="1360" type="curve" smooth="yes"/>
      <point x="774" y="1360"/>
      <point x="734" y="1316"/>
      <point x="734" y="1250" type="curve" smooth="yes"/>
      <point x="734" y="1170"/>
      <point x="781" y="1103"/>
      <point x="820" y="1050" type="curve" smooth="yes"/>
      <point x="831" y="1036"/>
      <point x="833" y="1042"/>
      <point x="845" y="1053" type="curve" smooth="yes"/>
      <point x="894" y="1098"/>
      <point x="924" y="1155"/>
    </contour>
  </outline>
</glyph>
<glyph name="parenleft" format="2">
  <advance width="1010"/>
  <unicode hex="0028"/>
  <outline>
    <contour>
      <point x="994" y="-217" type="curve" smooth="yes"/>
      <point x="949" y="-302" type="line" smooth="yes"/>
      <point x="934" y="-333"/>
      <point x="923" y="-339"/>
      <point x="886" y="-329" type="curve" smooth="yes"/>
      <point x="460" y="-216"/>
      <point x="110" y="141"/>
      <point x="110" y="650" type="curve" smooth="yes"/>
      <point x="110" y="1161"/>
      <point x="463" y="1481"/>
      <point x="892" y="1591" type="curve" smooth="yes"/>
      <point x="922" y="1599"/>
      <point x="933" y="1598"/>
      <point x="946" y="1572" type="curve" smooth="yes"/>
      <point x="990" y="1474" type="line" smooth="yes"/>
      <point x="1005" y="1444"/>
      <point x="1010" y="1441"/>
      <point x="978" y="1428" type="curve" smooth="yes"/>
      <point x="712" y="1322"/>
      <point x="580" y="1096"/>
      <point x="580" y="650" type="curve" smooth="yes"/>
      <point x="580" y="204"/>
      <point x="711" y="-60"/>
      <point x="978" y="-168" type="curve" smooth="yes"/>
      <point x="1011" y="-181"/>
      <point x="1009" y="-186"/>
    </contour>
  </outline>
</glyph>
<glyph name="hyphen" format="2">
  <advance width="920"/>
  <unicode hex="002D"/>
  <outline>
    <contour>
      <point x="154" y="890" type="curve" smooth="yes"/>
      <point x="766" y="890" type="line" smooth="yes"/>
      <point x="797" y="890"/>
      <point x="800" y="883"/>
      <point x="800" y="851" type="curve" smooth="yes"/>
      <point x="800" y="701" type="line" smooth="yes"/>
      <point x="800" y="666"/>
      <point x="799" y="660"/>
      <point x="764" y="660" type="curve" smooth="yes"/>
      <point x="162" y="660" type="line" smooth="yes"/>
      <point x="126" y="660"/>
      <point x="120" y="665"/>
      <point x="120" y="700" type="curve" smooth="yes"/>
      <point x="120" y="849" type="line" smooth="yes"/>
      <point x="120" y="881"/>
      <point x="122" y="890"/>
    </contour>
  </outline>
</glyph>
<glyph name="period" format="2">
  <advance width="640"/>
  <unicode hex="002E"/>
  <outline>
    <contour>
      <point x="80" y="200" type="curve" smooth="yes"/>
      <point x="80" y="332"/>
      <point x="188" y="440"/>
      <point x="320" y="440" type="curve" smooth="yes"/>
      <point x="452" y="440"/>
      <point x="560" y="332"/>
      <point x="560" y="200" type="curve" smooth="yes"/>
      <point x="560" y="68"/>
      <point x="452" y="-40"/>
      <point x="320" y="-40" type="curve" smooth="yes"/>
      <point x="188" y="-40"/>
      <point x="80" y="68"/>
    </contour>
  </outline>
</glyph>
<glyph name="slash" format="2">
  <advance width="1040"/>
  <unicode hex="002F"/>
  <outline>
    <contour>
      <point x="763" y="1560" type="curve" smooth="yes"/>
      <point x="881" y="1560" type="line" smooth="yes"/>
      <point x="948" y="1560"/>
      <point x="959" y="1557"/>
      <point x="942" y="1505" type="curve" smooth="yes"/>
      <point x="353" y="-254" type="line" smooth="yes"/>
      <point x="340" y="-294"/>
      <point x="332" y="-300"/>
      <point x="277" y="-300" type="curve" smooth="yes"/>
      <point x="167" y="-300" type="line" smooth="yes"/>
      <point x="96" y="-300"/>
      <point x="80" y="-299"/>
      <point x="98" y="-246" type="curve" smooth="yes"/>
      <point x="700" y="1524" type="line" smooth="yes"/>
      <point x="711" y="1555"/>
      <point x="719" y="1560"/>
    </contour>
  </outline>
</glyph>
<glyph name="one" format="2">
  <advance width="1200"/>
  <unicode hex="0031"/>
  <outline>
    <contour>
      <point x="70" y="65" type="curve" smooth="yes"/>
      <point x="70" y="166" type="line" smooth="yes"/>
      <point x="70" y="208"/>
      <point x="80" y="210"/>
      <point x="123" y="210" type="curve" smooth="yes"/>
      <point x="385" y="210" type="line" smooth="yes"/>
      <point x="434" y="210"/>
      <point x="440" y="217"/>
      <point x="440" y="264" type="curve" smooth="yes"/>
      <point x="440" y="1073" type="line" smooth="yes"/>
      <point x="440" y="1113"/>
      <point x="431" y="1120"/>
      <point x="393" y="1120" type="curve" smooth="yes"/>
      <point x="149" y="1120" type="line" smooth="yes"/>
      <point x="116" y="1120"/>
      <point x="104" y="1123"/>
      <point x="104" y="1159" type="curve" smooth="yes"/>
      <point x="104" y="1279" type="line" smooth="yes"/>
      <point x="104" y="1333"/>
      <point x="136" y="1330"/>
      <point x="183" y="1331" type="curve" smooth="yes"/>
      <point x="367" y="1335"/>
      <point x="526" y="1360"/>
      <point x="619" y="1535" type="curve" smooth="yes"/>
      <point x="636" y="1567"/>
      <point x="641" y="1580"/>
      <point x="693" y="1580" type="curve" smooth="yes"/>
      <point x="779" y="1580" type="line" smooth="yes"/>
      <point x="822" y="1580"/>
      <point x="830" y="1575"/>
      <point x="830" y="1534" type="curve" smooth="yes"/>
      <point x="830" y="266" type="line" smooth="yes"/>
      <point x="830" y="212"/>
      <point x="840" y="210"/>
      <point x="895" y="210" type="curve" smooth="yes"/>
      <point x="1117" y="210" type="line" smooth="yes"/>
      <point x="1150" y="210"/>
      <point x="1170" y="206"/>
      <point x="1170" y="170" type="curve" smooth="yes"/>
      <point x="1170" y="59" type="line" smooth="yes"/>
      <point x="1170" y="10"/>
      <point x="1168" y="0"/>
      <point x="1119" y="0" type="curve" smooth="yes"/>
      <point x="135" y="0" type="line" smooth="yes"/>
      <point x="77" y="0"/>
      <point x="70" y="5"/>
    </contour>
  </outline>
</glyph>
<glyph name="two" format="2">
  <advance width="1425"/>
  <unicode hex="0032"/>
  <outline>
    <contour>
      <point x="1354" y="510" type="curve" smooth="yes"/>
      <point x="1343" y="141"/>
      <point x="1193" y="-20"/>
      <point x="925" y="-20" type="curve" smooth="yes"/>
      <point x="691" y="-20"/>
      <point x="561" y="100"/>
      <point x="415" y="100" type="curve" smooth="yes"/>
      <point x="358" y="100"/>
      <point x="321" y="74"/>
      <point x="298" y="34" type="curve" smooth="yes"/>
      <point x="282" y="7"/>
      <point x="288" y="0"/>
      <point x="243" y="0" type="curve" smooth="yes"/>
      <point x="101" y="0" type="line" smooth="yes"/>
      <point x="62" y="0"/>
      <point x="56" y="4"/>
      <point x="56" y="42" type="curve" smooth="yes"/>
      <point x="57" y="320"/>
      <point x="194" y="576"/>
      <point x="469" y="768" type="curve" smooth="yes"/>
      <point x="617" y="871"/>
      <point x="869" y="972"/>
      <point x="869" y="1150" type="curve" smooth="yes"/>
      <point x="869" y="1288"/>
      <point x="817" y="1346"/>
      <point x="609" y="1346" type="curve" smooth="yes"/>
      <point x="481" y="1346"/>
      <point x="377" y="1298"/>
      <point x="377" y="1254" type="curve" smooth="yes"/>
      <point x="377" y="1218"/>
      <point x="539" y="1228"/>
      <point x="539" y="1056" type="curve" smooth="yes"/>
      <point x="539" y="922"/>
      <point x="434" y="850"/>
      <point x="320" y="850" type="curve" smooth="yes"/>
      <point x="202" y="850"/>
      <point x="87" y="926"/>
      <point x="87" y="1082" type="curve" smooth="yes"/>
      <point x="87" y="1356"/>
      <point x="345" y="1520"/>
      <point x="699" y="1520" type="curve" smooth="yes"/>
      <point x="1061" y="1520"/>
      <point x="1291" y="1400"/>
      <point x="1291" y="1140" type="curve" smooth="yes"/>
      <point x="1291" y="860"/>
      <point x="1010" y="792"/>
      <point x="709" y="660" type="curve" smooth="yes"/>
      <point x="541" y="586"/>
      <point x="443" y="516"/>
      <point x="380" y="441" type="curve" smooth="yes"/>
      <point x="334" y="386"/>
      <point x="290" y="301"/>
      <point x="312" y="301" type="curve" smooth="yes"/>
      <point x="335" y="301"/>
      <point x="334" y="356"/>
      <point x="396" y="414" type="curve" smooth="yes"/>
      <point x="443" y="458"/>
      <point x="519" y="469"/>
      <point x="585" y="469" type="curve" smooth="yes"/>
      <point x="755" y="469"/>
      <point x="835" y="381"/>
      <point x="987" y="381" type="curve" smooth="yes"/>
      <point x="1094" y="381"/>
      <point x="1145" y="431"/>
      <point x="1158" y="510" type="curve" smooth="yes"/>
      <point x="1164" y="552"/>
      <point x="1159" y="554"/>
      <point x="1207" y="554" type="curve" smooth="yes"/>
      <point x="1313" y="554" type="line" smooth="yes"/>
      <point x="1357" y="554"/>
      <point x="1354" y="552"/>
    </contour>
  </outline>
</glyph>
<glyph name="five" format="2">
  <advance width="1300"/>
  <unicode hex="0035"/>
  <outline>
    <contour>
      <point x="65" y="318" type="curve" smooth="yes"/>
      <point x="65" y="464"/>
      <point x="165" y="550"/>
      <point x="293" y="550" type="curve" smooth="yes"/>
      <point x="417" y="550"/>
      <point x="497" y="468"/>
      <point x="497" y="384" type="curve" smooth="yes"/>
      <point x="497" y="292"/>
      <point x="423" y="252"/>
      <point x="423" y="206" type="curve" smooth="yes"/>
      <point x="423" y="162"/>
      <point x="479" y="144"/>
      <point x="557" y="144" type="curve" smooth="yes"/>
      <point x="715" y="144"/>
      <point x="843" y="302"/>
      <point x="843" y="510" type="curve" smooth="yes"/>
      <point x="843" y="728"/>
      <point x="725" y="812"/>
      <point x="607" y="812" type="curve" smooth="yes"/>
      <point x="528" y="812"/>
      <point x="426" y="763"/>
      <point x="340" y="655" type="curve" smooth="yes"/>
      <point x="324" y="634"/>
      <point x="313" y="624"/>
      <point x="274" y="624" type="curve" smooth="yes"/>
      <point x="210" y="624" type="line" smooth="yes"/>
      <point x="156" y="624"/>
      <point x="161" y="642"/>
      <point x="166" y="686" type="curve" smooth="yes"/>
      <point x="258" y="1460" type="line" smooth="yes"/>
      <point x="262" y="1498"/>
      <point x="272" y="1500"/>
      <point x="314" y="1500" type="curve" smooth="yes"/>
      <point x="679" y="1500" type="line" smooth="yes"/>
      <point x="880" y="1500"/>
      <point x="942" y="1468"/>
      <point x="1008" y="1543" type="curve" smooth="yes"/>
      <point x="1021" y="1558"/>
      <point x="1031" y="1564"/>
      <point x="1062" y="1564" type="curve" smooth="yes"/>
      <point x="1167" y="1564" type="line" smooth="yes"/>
      <point x="1193" y="1564"/>
      <point x="1204" y="1557"/>
      <point x="1199" y="1534" type="curve" smooth="yes"/>
      <point x="1191" y="1500" type="line" smooth="yes"/>
      <point x="1155" y="1336"/>
      <point x="1119" y="1120"/>
      <point x="645" y="1120" type="curve" smooth="yes"/>
      <point x="420" y="1120" type="line" smooth="yes"/>
      <point x="382" y="1120"/>
      <point x="378" y="1111"/>
      <point x="373" y="1078" type="curve" smooth="yes"/>
      <point x="353" y="930" type="line" smooth="yes"/>
      <point x="347" y="892"/>
      <point x="331" y="850"/>
      <point x="339" y="846" type="curve" smooth="yes"/>
      <point x="354" y="837"/>
      <point x="362" y="872"/>
      <point x="394" y="896" type="curve" smooth="yes"/>
      <point x="470" y="952"/>
      <point x="580" y="1000"/>
      <point x="721" y="1000" type="curve" smooth="yes"/>
      <point x="1063" y="1000"/>
      <point x="1245" y="780"/>
      <point x="1245" y="500" type="curve" smooth="yes"/>
      <point x="1245" y="160"/>
      <point x="979" y="-20"/>
      <point x="597" y="-20" type="curve" smooth="yes"/>
      <point x="293" y="-20"/>
      <point x="65" y="114"/>
    </contour>
  </outline>
</glyph>
<glyph name="seven" format="2">
  <advance width="1203"/>
  <unicode hex="0037"/>
  <outline>
    <contour>
      <point x="65" y="982" type="curve" smooth="yes"/>
      <point x="75" y="1347"/>
      <point x="234" y="1520"/>
      <point x="435" y="1520" type="curve" smooth="yes"/>
      <point x="629" y="1520"/>
      <point x="699" y="1400"/>
      <point x="865" y="1400" type="curve" smooth="yes"/>
      <point x="933" y="1400"/>
      <point x="966" y="1427"/>
      <point x="986" y="1471" type="curve" smooth="yes"/>
      <point x="994" y="1489"/>
      <point x="997" y="1500"/>
      <point x="1025" y="1500" type="curve" smooth="yes"/>
      <point x="1154" y="1500" type="line" smooth="yes"/>
      <point x="1189" y="1500"/>
      <point x="1195" y="1493"/>
      <point x="1190" y="1460" type="curve" smooth="yes"/>
      <point x="1167" y="1305"/>
      <point x="1026" y="993"/>
      <point x="841" y="756" type="curve" smooth="yes"/>
      <point x="719" y="599"/>
      <point x="663" y="532"/>
      <point x="663" y="464" type="curve" smooth="yes"/>
      <point x="663" y="368"/>
      <point x="839" y="368"/>
      <point x="839" y="216" type="curve" smooth="yes"/>
      <point x="839" y="102"/>
      <point x="769" y="-20"/>
      <point x="611" y="-20" type="curve" smooth="yes"/>
      <point x="463" y="-20"/>
      <point x="349" y="74"/>
      <point x="349" y="252" type="curve" smooth="yes"/>
      <point x="349" y="430"/>
      <point x="471" y="564"/>
      <point x="633" y="762" type="curve" smooth="yes"/>
      <point x="733" y="884"/>
      <point x="801" y="965"/>
      <point x="877" y="1100" type="curve" smooth="yes"/>
      <point x="902" y="1144"/>
      <point x="931" y="1176"/>
      <point x="921" y="1186" type="curve" smooth="yes"/>
      <point x="906" y="1201"/>
      <point x="882" y="1159"/>
      <point x="853" y="1136" type="curve" smooth="yes"/>
      <point x="806" y="1098"/>
      <point x="749" y="1066"/>
      <point x="695" y="1066" type="curve" smooth="yes"/>
      <point x="575" y="1066"/>
      <point x="495" y="1134"/>
      <point x="393" y="1134" type="curve" smooth="yes"/>
      <point x="306" y="1134"/>
      <point x="251" y="1082"/>
      <point x="241" y="980" type="curve" smooth="yes"/>
      <point x="239" y="957"/>
      <point x="246" y="946"/>
      <point x="218" y="946" type="curve" smooth="yes"/>
      <point x="102" y="946" type="line" smooth="yes"/>
      <point x="72" y="946"/>
      <point x="64" y="954"/>
    </contour>
  </outline>
</glyph>
<glyph name="eight" format="2">
  <advance width="1290"/>
  <unicode hex="0038"/>
  <outline>
    <contour>
      <point x="480" y="444" type="curve" smooth="yes"/>
      <point x="480" y="236"/>
      <point x="542" y="170"/>
      <point x="640" y="170" type="curve" smooth="yes"/>
      <point x="728" y="170"/>
      <point x="790" y="236"/>
      <point x="790" y="444" type="curve" smooth="yes"/>
      <point x="790" y="612"/>
      <point x="728" y="720"/>
      <point x="640" y="720" type="curve" smooth="yes"/>
      <point x="542" y="720"/>
      <point x="480" y="612"/>
    </contour>
    <contour>
      <point x="130" y="1140" type="curve" smooth="yes"/>
      <point x="130" y="1360"/>
      <point x="318" y="1520"/>
      <point x="640" y="1520" type="curve" smooth="yes"/>
      <point x="972" y="1520"/>
      <point x="1160" y="1360"/>
      <point x="1160" y="1140" type="curve" smooth="yes"/>
      <point x="1160" y="994"/>
      <point x="1078" y="897"/>
      <point x="955" y="842" type="curve" smooth="yes"/>
      <point x="924" y="828"/>
      <point x="899" y="824"/>
      <point x="899" y="810" type="curve" smooth="yes"/>
      <point x="899" y="798"/>
      <point x="925" y="792"/>
      <point x="954" y="780" type="curve" smooth="yes"/>
      <point x="1108" y="716"/>
      <point x="1210" y="591"/>
      <point x="1210" y="420" type="curve" smooth="yes"/>
      <point x="1210" y="160"/>
      <point x="1002" y="-20"/>
      <point x="640" y="-20" type="curve" smooth="yes"/>
      <point x="278" y="-20"/>
      <point x="80" y="160"/>
      <point x="80" y="420" type="curve" smooth="yes"/>
      <point x="80" y="600"/>
      <point x="184" y="731"/>
      <point x="352" y="790" type="curve" smooth="yes"/>
      <point x="373" y="797"/>
      <point x="386" y="797"/>
      <point x="386" y="812" type="curve" smooth="yes"/>
      <point x="386" y="826"/>
      <point x="363" y="827"/>
      <point x="349" y="832" type="curve" smooth="yes"/>
      <point x="214" y="884"/>
      <point x="130" y="984"/>
    </contour>
    <contour>
      <point x="530" y="1105" type="curve" smooth="yes"/>
      <point x="530" y="957"/>
      <point x="582" y="900"/>
      <point x="640" y="900" type="curve" smooth="yes"/>
      <point x="718" y="900"/>
      <point x="750" y="957"/>
      <point x="750" y="1105" type="curve" smooth="yes"/>
      <point x="750" y="1253"/>
      <point x="718" y="1330"/>
      <point x="650" y="1330" type="curve" smooth="yes"/>
      <point x="582" y="1330"/>
      <point x="530" y="1253"/>
    </contour>
  </outline>
</glyph>
<glyph name="less" format="2">
  <advance width="1120"/>
  <unicode hex="003C"/>
  <outline>
    <contour>
      <point x="438" y="748" type="curve" smooth="yes"/>
      <point x="960" y="555" type="line" smooth="yes"/>
      <point x="989" y="544"/>
      <point x="1000" y="533"/>
      <point x="1000" y="491" type="curve" smooth="yes"/>
      <point x="1000" y="373" type="line" smooth="yes"/>
      <point x="1000" y="315"/>
      <point x="993" y="313"/>
      <point x="954" y="328" type="curve" smooth="yes"/>
      <point x="164" y="642" type="line" smooth="yes"/>
      <point x="131" y="655"/>
      <point x="120" y="672"/>
      <point x="120" y="720" type="curve" smooth="yes"/>
      <point x="120" y="830" type="line" smooth="yes"/>
      <point x="120" y="890"/>
      <point x="135" y="896"/>
      <point x="176" y="912" type="curve" smooth="yes"/>
      <point x="940" y="1216" type="line" smooth="yes"/>
      <point x="980" y="1232"/>
      <point x="1000" y="1235"/>
      <point x="1000" y="1169" type="curve" smooth="yes"/>
      <point x="1000" y="1082" type="line" smooth="yes"/>
      <point x="1000" y="1025"/>
      <point x="992" y="1007"/>
      <point x="952" y="992" type="curve" smooth="yes"/>
      <point x="438" y="802" type="line" smooth="yes"/>
      <point x="403" y="789"/>
      <point x="382" y="788"/>
      <point x="382" y="776" type="curve" smooth="yes"/>
      <point x="382" y="759"/>
      <point x="399" y="763"/>
    </contour>
  </outline>
</glyph>
<glyph name="at" format="2">
  <advance width="2300"/>
  <unicode hex="0040"/>
  <outline>
    <contour>
      <point x="1348" y="692" type="curve" smooth="yes"/>
      <point x="1348" y="776"/>
      <point x="1344" y="836"/>
      <point x="1288" y="836" type="curve" smooth="yes"/>
      <point x="1200" y="836"/>
      <point x="1130" y="608"/>
      <point x="1130" y="480" type="curve" smooth="yes"/>
      <point x="1130" y="386"/>
      <point x="1140" y="364"/>
      <point x="1168" y="364" type="curve" smooth="yes"/>
      <point x="1250" y="364"/>
      <point x="1348" y="536"/>
    </contour>
    <contour>
      <point x="1768" y="-173" type="curve" smooth="yes"/>
      <point x="1600" y="-353"/>
      <point x="1350" y="-448"/>
      <point x="1038" y="-448" type="curve" smooth="yes"/>
      <point x="672" y="-448"/>
      <point x="90" y="-224"/>
      <point x="90" y="442" type="curve" smooth="yes"/>
      <point x="90" y="1108"/>
      <point x="644" y="1600"/>
      <point x="1270" y="1600" type="curve" smooth="yes"/>
      <point x="1856" y="1600"/>
      <point x="2180" y="1248"/>
      <point x="2180" y="802" type="curve" smooth="yes"/>
      <point x="2180" y="462"/>
      <point x="1944" y="126"/>
      <point x="1582" y="126" type="curve" smooth="yes"/>
      <point x="1481" y="126"/>
      <point x="1405" y="172"/>
      <point x="1354" y="230" type="curve" smooth="yes"/>
      <point x="1324" y="264"/>
      <point x="1314" y="272"/>
      <point x="1274" y="239" type="curve" smooth="yes"/>
      <point x="1200" y="178"/>
      <point x="1119" y="130"/>
      <point x="1008" y="130" type="curve" smooth="yes"/>
      <point x="850" y="130"/>
      <point x="708" y="211"/>
      <point x="708" y="420" type="curve" smooth="yes"/>
      <point x="708" y="640"/>
      <point x="878" y="1068"/>
      <point x="1196" y="1068" type="curve" smooth="yes"/>
      <point x="1314" y="1068"/>
      <point x="1372" y="1027"/>
      <point x="1400" y="958" type="curve" smooth="yes"/>
      <point x="1415" y="922"/>
      <point x="1420" y="917"/>
      <point x="1428" y="961" type="curve" smooth="yes"/>
      <point x="1438" y="1012" type="line" smooth="yes"/>
      <point x="1444" y="1042"/>
      <point x="1449" y="1040"/>
      <point x="1486" y="1040" type="curve" smooth="yes"/>
      <point x="1719" y="1040" type="line" smooth="yes"/>
      <point x="1770" y="1040"/>
      <point x="1783" y="1036"/>
      <point x="1772" y="989" type="curve" smooth="yes"/>
      <point x="1640" y="440" type="line" smooth="yes"/>
      <point x="1636" y="414"/>
      <point x="1610" y="340"/>
      <point x="1676" y="340" type="curve" smooth="yes"/>
      <point x="1778" y="340"/>
      <point x="1954" y="482"/>
      <point x="1954" y="810" type="curve" smooth="yes"/>
      <point x="1954" y="1224"/>
      <point x="1612" y="1364"/>
      <point x="1344" y="1364" type="curve" smooth="yes"/>
      <point x="956" y="1364"/>
      <point x="540" y="1046"/>
      <point x="540" y="482" type="curve" smooth="yes"/>
      <point x="540" y="58"/>
      <point x="762" y="-218"/>
      <point x="1110" y="-218" type="curve" smooth="yes"/>
      <point x="1284" y="-218"/>
      <point x="1446" y="-208"/>
      <point x="1612" y="-51" type="curve" smooth="yes"/>
      <point x="1642" y="-23"/>
      <point x="1645" y="-3"/>
      <point x="1677" y="-35" type="curve" smooth="yes"/>
      <point x="1770" y="-128" type="line" smooth="yes"/>
      <point x="1791" y="-149"/>
      <point x="1788" y="-151"/>
    </contour>
  </outline>
</glyph>
<glyph name="I" format="2">
  <advance width="1120"/>
  <unicode hex="0049"/>
  <anchor x="543" y="0" name="Anchor-3"/>
  <anchor x="543" y="0" name="Anchor-2"/>
  <anchor x="547" y="1500" name="Anchor-0"/>
  <outline>
    <contour>
      <point x="785" y="1198" type="curve" smooth="yes"/>
      <point x="785" y="294" type="line" smooth="yes"/>
      <point x="785" y="251"/>
      <point x="795" y="250"/>
      <point x="839" y="250" type="curve" smooth="yes"/>
      <point x="997" y="250" type="line" smooth="yes"/>
      <point x="1030" y="250"/>
      <point x="1045" y="249"/>
      <point x="1045" y="216" type="curve" smooth="yes"/>
      <point x="1045" y="50" type="line" smooth="yes"/>
      <point x="1045" y="5"/>
      <point x="1039" y="0"/>
      <point x="995" y="0" type="curve" smooth="yes"/>
      <point x="125" y="0" type="line" smooth="yes"/>
      <point x="79" y="0"/>
      <point x="75" y="9"/>
      <point x="75" y="56" type="curve" smooth="yes"/>
      <point x="75" y="201" type="line" smooth="yes"/>
      <point x="75" y="246"/>
      <point x="88" y="250"/>
      <point x="130" y="250" type="curve" smooth="yes"/>
      <point x="268" y="250" type="line" smooth="yes"/>
      <point x="306" y="250"/>
      <point x="315" y="256"/>
      <point x="315" y="297" type="curve" smooth="yes"/>
      <point x="315" y="1196" type="line" smooth="yes"/>
      <point x="315" y="1239"/>
      <point x="313" y="1250"/>
      <point x="270" y="1250" type="curve" smooth="yes"/>
      <point x="128" y="1250" type="line" smooth="yes"/>
      <point x="87" y="1250"/>
      <point x="75" y="1254"/>
      <point x="75" y="1298" type="curve" smooth="yes"/>
      <point x="75" y="1443" type="line" smooth="yes"/>
      <point x="75" y="1491"/>
      <point x="77" y="1500"/>
      <point x="125" y="1500" type="curve" smooth="yes"/>
      <point x="991" y="1500" type="line" smooth="yes"/>
      <point x="1039" y="1500"/>
      <point x="1045" y="1489"/>
      <point x="1045" y="1444" type="curve" smooth="yes"/>
      <point x="1045" y="1304" type="line" smooth="yes"/>
      <point x="1045" y="1256"/>
      <point x="1038" y="1250"/>
      <point x="992" y="1250" type="curve" smooth="yes"/>
      <point x="835" y="1250" type="line" smooth="yes"/>
      <point x="791" y="1250"/>
      <point x="785" y="1240"/>
    </contour>
  </outline>
</glyph>
<glyph name="J" format="2">
  <advance width="1432"/>
  <unicode hex="004A"/>
  <anchor x="548" y="0" name="Anchor-2"/>
  <anchor x="836" y="1500" name="Anchor-0"/>
  <outline>
    <contour>
      <point x="0" y="390" type="curve" smooth="yes"/>
      <point x="0" y="594"/>
      <point x="118" y="740"/>
      <point x="298" y="740" type="curve" smooth="yes"/>
      <point x="452" y="740"/>
      <point x="546" y="648"/>
      <point x="546" y="522" type="curve" smooth="yes"/>
      <point x="546" y="342"/>
      <point x="400" y="344"/>
      <point x="400" y="288" type="curve" smooth="yes"/>
      <point x="400" y="254"/>
      <point x="428" y="190"/>
      <point x="532" y="190" type="curve" smooth="yes"/>
      <point x="634" y="190"/>
      <point x="722" y="260"/>
      <point x="722" y="480" type="curve" smooth="yes"/>
      <point x="722" y="1172" type="line" smooth="yes"/>
      <point x="722" y="1228"/>
      <point x="709" y="1230"/>
      <point x="653" y="1230" type="curve" smooth="yes"/>
      <point x="460" y="1230" type="line" smooth="yes"/>
      <point x="416" y="1230"/>
      <point x="402" y="1231"/>
      <point x="402" y="1278" type="curve" smooth="yes"/>
      <point x="402" y="1442" type="line" smooth="yes"/>
      <point x="402" y="1491"/>
      <point x="403" y="1500"/>
      <point x="452" y="1500" type="curve" smooth="yes"/>
      <point x="1362" y="1500" type="line" smooth="yes"/>
      <point x="1404" y="1500"/>
      <point x="1412" y="1493"/>
      <point x="1412" y="1449" type="curve" smooth="yes"/>
      <point x="1412" y="1272" type="line" smooth="yes"/>
      <point x="1412" y="1231"/>
      <point x="1400" y="1230"/>
      <point x="1359" y="1230" type="curve" smooth="yes"/>
      <point x="1210" y="1230" type="line" smooth="yes"/>
      <point x="1175" y="1230"/>
      <point x="1172" y="1217"/>
      <point x="1172" y="1181" type="curve" smooth="yes"/>
      <point x="1172" y="540" type="line" smooth="yes"/>
      <point x="1172" y="160"/>
      <point x="894" y="-40"/>
      <point x="532" y="-40" type="curve" smooth="yes"/>
      <point x="218" y="-40"/>
      <point x="0" y="170"/>
    </contour>
  </outline>
</glyph>
<glyph name="K" format="2">
  <advance width="1940"/>
  <unicode hex="004B"/>
  <anchor x="1000" y="0" name="Anchor-2"/>
  <anchor x="996" y="1500" name="Anchor-0"/>
  <outline>
    <contour>
      <point x="50" y="54" type="curve" smooth="yes"/>
      <point x="50" y="224" type="line" smooth="yes"/>
      <point x="50" y="262"/>
      <point x="55" y="270"/>
      <point x="92" y="270" type="curve" smooth="yes"/>
      <point x="218" y="270" type="line" smooth="yes"/>
      <point x="266" y="270"/>
      <point x="270" y="278"/>
      <point x="270" y="324" type="curve" smooth="yes"/>
      <point x="270" y="1194" type="line" smooth="yes"/>
      <point x="270" y="1229"/>
      <point x="258" y="1230"/>
      <point x="223" y="1230" type="curve" smooth="yes"/>
      <point x="90" y="1230" type="line" smooth="yes"/>
      <point x="51" y="1230"/>
      <point x="50" y="1242"/>
      <point x="50" y="1281" type="curve" smooth="yes"/>
      <point x="50" y="1454" type="line" smooth="yes"/>
      <point x="50" y="1495"/>
      <point x="64" y="1500"/>
      <point x="102" y="1500" type="curve" smooth="yes"/>
      <point x="930" y="1500" type="line" smooth="yes"/>
      <point x="966" y="1500"/>
      <point x="980" y="1495"/>
      <point x="980" y="1456" type="curve" smooth="yes"/>
      <point x="980" y="1290" type="line" smooth="yes"/>
      <point x="980" y="1241"/>
      <point x="976" y="1230"/>
      <point x="928" y="1230" type="curve" smooth="yes"/>
      <point x="788" y="1230" type="line" smooth="yes"/>
      <point x="748" y="1230"/>
      <point x="740" y="1222"/>
      <point x="740" y="1180" type="curve" smooth="yes"/>
      <point x="740" y="892" type="line" smooth="yes"/>
      <point x="740" y="820"/>
      <point x="762" y="822"/>
      <point x="792" y="846" type="curve" smooth="yes"/>
      <point x="1226" y="1198" type="line" smooth="yes"/>
      <point x="1253" y="1220"/>
      <point x="1262" y="1230"/>
      <point x="1210" y="1230" type="curve" smooth="yes"/>
      <point x="1133" y="1230" type="line" smooth="yes"/>
      <point x="1081" y="1230"/>
      <point x="1070" y="1232"/>
      <point x="1070" y="1284" type="curve" smooth="yes"/>
      <point x="1070" y="1458" type="line" smooth="yes"/>
      <point x="1070" y="1490"/>
      <point x="1075" y="1500"/>
      <point x="1106" y="1500" type="curve" smooth="yes"/>
      <point x="1838" y="1500" type="line" smooth="yes"/>
      <point x="1869" y="1500"/>
      <point x="1870" y="1481"/>
      <point x="1870" y="1450" type="curve" smooth="yes"/>
      <point x="1870" y="1287" type="line" smooth="yes"/>
      <point x="1870" y="1242"/>
      <point x="1869" y="1230"/>
      <point x="1824" y="1230" type="curve" smooth="yes"/>
      <point x="1684" y="1230" type="line" smooth="yes"/>
      <point x="1627" y="1230"/>
      <point x="1618" y="1214"/>
      <point x="1588" y="1190" type="curve" smooth="yes"/>
      <point x="1332" y="979" type="line" smooth="yes"/>
      <point x="1292" y="946"/>
      <point x="1275" y="945"/>
      <point x="1307" y="900" type="curve" smooth="yes"/>
      <point x="1726" y="314" type="line" smooth="yes"/>
      <point x="1753" y="276"/>
      <point x="1759" y="270"/>
      <point x="1826" y="270" type="curve" smooth="yes"/>
      <point x="1940" y="270" type="line" smooth="yes"/>
      <point x="1970" y="270"/>
      <point x="1980" y="263"/>
      <point x="1980" y="231" type="curve" smooth="yes"/>
      <point x="1980" y="40" type="line" smooth="yes"/>
      <point x="1980" y="5"/>
      <point x="1964" y="0"/>
      <point x="1928" y="0" type="curve" smooth="yes"/>
      <point x="1082" y="0" type="line" smooth="yes"/>
      <point x="1045" y="0"/>
      <point x="1040" y="8"/>
      <point x="1040" y="46" type="curve" smooth="yes"/>
      <point x="1040" y="223" type="line" smooth="yes"/>
      <point x="1040" y="266"/>
      <point x="1059" y="270"/>
      <point x="1098" y="270" type="curve" smooth="yes"/>
      <point x="1192" y="270" type="line" smooth="yes"/>
      <point x="1246" y="270"/>
      <point x="1228" y="294"/>
      <point x="1210" y="321" type="curve" smooth="yes"/>
      <point x="994" y="650" type="line" smooth="yes"/>
      <point x="969" y="688"/>
      <point x="967" y="679"/>
      <point x="934" y="652" type="curve" smooth="yes"/>
      <point x="776" y="522" type="line" smooth="yes"/>
      <point x="750" y="500"/>
      <point x="740" y="497"/>
      <point x="740" y="446" type="curve" smooth="yes"/>
      <point x="740" y="310" type="line" smooth="yes"/>
      <point x="740" y="273"/>
      <point x="748" y="270"/>
      <point x="786" y="270" type="curve" smooth="yes"/>
      <point x="920" y="270" type="line" smooth="yes"/>
      <point x="955" y="270"/>
      <point x="960" y="262"/>
      <point x="960" y="226" type="curve" smooth="yes"/>
      <point x="960" y="56" type="line" smooth="yes"/>
      <point x="960" y="5"/>
      <point x="948" y="0"/>
      <point x="900" y="0" type="curve" smooth="yes"/>
      <point x="96" y="0" type="line" smooth="yes"/>
      <point x="52" y="0"/>
      <point x="50" y="10"/>
    </contour>
  </outline>
</glyph>
<glyph name="Q" format="2">
  <advance width="1820"/>
  <unicode hex="0051"/>
  <anchor x="906" y="1500" name="Anchor-0"/>
  <outline>
    <contour>
      <point x="70" y="750" type="curve" smooth="yes"/>
      <point x="70" y="1216"/>
      <point x="384" y="1540"/>
      <point x="910" y="1540" type="curve" smooth="yes"/>
      <point x="1436" y="1540"/>
      <point x="1750" y="1216"/>
      <point x="1750" y="750" type="curve" smooth="yes"/>
      <point x="1750" y="465"/>
      <point x="1625" y="233"/>
      <point x="1413" y="96" type="curve" smooth="yes"/>
      <point x="1367" y="66"/>
      <point x="1362" y="57"/>
      <point x="1412" y="25" type="curve" smooth="yes"/>
      <point x="1431" y="13"/>
      <point x="1453" y="6"/>
      <point x="1476" y="6" type="curve" smooth="yes"/>
      <point x="1550" y="6"/>
      <point x="1598" y="42"/>
      <point x="1622" y="128" type="curve" smooth="yes"/>
      <point x="1628" y="151"/>
      <point x="1622" y="164"/>
      <point x="1654" y="164" type="curve" smooth="yes"/>
      <point x="1784" y="164" type="line" smooth="yes"/>
      <point x="1837" y="164"/>
      <point x="1850" y="156"/>
      <point x="1844" y="110" type="curve" smooth="yes"/>
      <point x="1817" y="-107"/>
      <point x="1704" y="-350"/>
      <point x="1480" y="-350" type="curve" smooth="yes"/>
      <point x="1278" y="-350"/>
      <point x="1203" y="-209"/>
      <point x="1138" y="-60" type="curve" smooth="yes"/>
      <point x="1125" y="-30"/>
      <point x="1114" y="-21"/>
      <point x="1078" y="-27" type="curve" smooth="yes"/>
      <point x="1025" y="-36"/>
      <point x="968" y="-40"/>
      <point x="910" y="-40" type="curve" smooth="yes"/>
      <point x="384" y="-40"/>
      <point x="70" y="284"/>
    </contour>
    <contour>
      <point x="726" y="285" type="curve" smooth="yes"/>
      <point x="775" y="244"/>
      <point x="834" y="220"/>
      <point x="910" y="220" type="curve" smooth="yes"/>
      <point x="934" y="220"/>
      <point x="957" y="221"/>
      <point x="978" y="226" type="curve" smooth="yes"/>
      <point x="1016" y="236"/>
      <point x="1021" y="250"/>
      <point x="998" y="278" type="curve" smooth="yes"/>
      <point x="958" y="328"/>
      <point x="905" y="360"/>
      <point x="828" y="360" type="curve" smooth="yes"/>
      <point x="795" y="360"/>
      <point x="765" y="357"/>
      <point x="740" y="345" type="curve" smooth="yes"/>
      <point x="705" y="329"/>
      <point x="696" y="311"/>
    </contour>
    <contour>
      <point x="1206" y="484" type="curve" smooth="yes"/>
      <point x="1221" y="560"/>
      <point x="1230" y="649"/>
      <point x="1230" y="750" type="curve" smooth="yes"/>
      <point x="1230" y="1074"/>
      <point x="1138" y="1280"/>
      <point x="910" y="1280" type="curve" smooth="yes"/>
      <point x="682" y="1280"/>
      <point x="590" y="1074"/>
      <point x="590" y="750" type="curve" smooth="yes"/>
      <point x="590" y="692"/>
      <point x="591" y="638"/>
      <point x="599" y="588" type="curve" smooth="yes"/>
      <point x="606" y="547"/>
      <point x="612" y="540"/>
      <point x="644" y="582" type="curve" smooth="yes"/>
      <point x="698" y="654"/>
      <point x="777" y="706"/>
      <point x="884" y="706" type="curve" smooth="yes"/>
      <point x="1006" y="706"/>
      <point x="1087" y="620"/>
      <point x="1150" y="509" type="curve" smooth="yes"/>
      <point x="1176" y="464"/>
      <point x="1196" y="437"/>
    </contour>
  </outline>
</glyph>
<glyph name="S" format="2">
  <advance width="1480"/>
  <unicode hex="0053"/>
  <anchor x="785" y="0" name="Anchor-2"/>
  <anchor x="796" y="1500" name="Anchor-0"/>
  <outline>
    <contour>
      <point x="1144" y="1017" type="curve" smooth="yes"/>
      <point x="1106" y="1203"/>
      <point x="911" y="1268"/>
      <point x="760" y="1268" type="curve" smooth="yes"/>
      <point x="628" y="1268"/>
      <point x="552" y="1224"/>
      <point x="552" y="1156" type="curve" smooth="yes"/>
      <point x="552" y="916"/>
      <point x="1430" y="1040"/>
      <point x="1430" y="460" type="curve" smooth="yes"/>
      <point x="1430" y="80"/>
      <point x="1162" y="-40"/>
      <point x="800" y="-40" type="curve" smooth="yes"/>
      <point x="620" y="-40"/>
      <point x="500" y="14"/>
      <point x="422" y="87" type="curve" smooth="yes"/>
      <point x="379" y="127"/>
      <point x="374" y="103"/>
      <point x="344" y="51" type="curve" smooth="yes"/>
      <point x="326" y="17" type="line" smooth="yes"/>
      <point x="313" y="-6"/>
      <point x="296" y="-10"/>
      <point x="259" y="-10" type="curve" smooth="yes"/>
      <point x="134" y="-10" type="line" smooth="yes"/>
      <point x="95" y="-10"/>
      <point x="80" y="-3"/>
      <point x="80" y="35" type="curve" smooth="yes"/>
      <point x="80" y="537" type="line" smooth="yes"/>
      <point x="80" y="579"/>
      <point x="83" y="590"/>
      <point x="124" y="590" type="curve" smooth="yes"/>
      <point x="270" y="590" type="line" smooth="yes"/>
      <point x="317" y="590"/>
      <point x="307" y="582"/>
      <point x="313" y="541" type="curve" smooth="yes"/>
      <point x="337" y="365"/>
      <point x="493" y="222"/>
      <point x="720" y="222" type="curve" smooth="yes"/>
      <point x="892" y="222"/>
      <point x="980" y="272"/>
      <point x="980" y="370" type="curve" smooth="yes"/>
      <point x="980" y="650"/>
      <point x="110" y="478"/>
      <point x="110" y="1058" type="curve" smooth="yes"/>
      <point x="110" y="1398"/>
      <point x="398" y="1530"/>
      <point x="660" y="1530" type="curve" smooth="yes"/>
      <point x="812" y="1530"/>
      <point x="936" y="1483"/>
      <point x="1026" y="1415" type="curve" smooth="yes"/>
      <point x="1065" y="1386"/>
      <point x="1079" y="1383"/>
      <point x="1108" y="1430" type="curve" smooth="yes"/>
      <point x="1133" y="1473" type="line" smooth="yes"/>
      <point x="1145" y="1492"/>
      <point x="1145" y="1500"/>
      <point x="1178" y="1500" type="curve" smooth="yes"/>
      <point x="1332" y="1500" type="line" smooth="yes"/>
      <point x="1367" y="1500"/>
      <point x="1380" y="1491"/>
      <point x="1380" y="1454" type="curve" smooth="yes"/>
      <point x="1380" y="1005" type="line" smooth="yes"/>
      <point x="1380" y="957"/>
      <point x="1373" y="950"/>
      <point x="1323" y="950" type="curve" smooth="yes"/>
      <point x="1214" y="950" type="line" smooth="yes"/>
      <point x="1148" y="950"/>
      <point x="1155" y="965"/>
    </contour>
  </outline>
</glyph>
<glyph name="U" format="2">
  <advance width="1870"/>
  <unicode hex="0055"/>
  <anchor x="1371" y="190" name="Anchor-3"/>
  <anchor x="1006" y="0" name="Anchor-2"/>
  <anchor x="996" y="1500" name="Anchor-0"/>
  <outline>
    <contour>
      <point x="1291" y="1230" type="curve" smooth="yes"/>
      <point x="1155" y="1230" type="line" smooth="yes"/>
      <point x="1107" y="1230"/>
      <point x="1095" y="1242"/>
      <point x="1095" y="1287" type="curve" smooth="yes"/>
      <point x="1095" y="1427" type="line" smooth="yes"/>
      <point x="1095" y="1481"/>
      <point x="1097" y="1500"/>
      <point x="1151" y="1500" type="curve" smooth="yes"/>
      <point x="1797" y="1500" type="line" smooth="yes"/>
      <point x="1840" y="1500"/>
      <point x="1845" y="1491"/>
      <point x="1845" y="1446" type="curve" smooth="yes"/>
      <point x="1845" y="1285" type="line" smooth="yes"/>
      <point x="1845" y="1237"/>
      <point x="1838" y="1230"/>
      <point x="1788" y="1230" type="curve" smooth="yes"/>
      <point x="1687" y="1230" type="line" smooth="yes"/>
      <point x="1635" y="1230"/>
      <point x="1625" y="1223"/>
      <point x="1625" y="1169" type="curve" smooth="yes"/>
      <point x="1625" y="600" type="line" smooth="yes"/>
      <point x="1625" y="170"/>
      <point x="1361" y="-40"/>
      <point x="925" y="-40" type="curve" smooth="yes"/>
      <point x="339" y="-40"/>
      <point x="245" y="254"/>
      <point x="245" y="620" type="curve" smooth="yes"/>
      <point x="245" y="1179" type="line" smooth="yes"/>
      <point x="245" y="1225"/>
      <point x="235" y="1230"/>
      <point x="191" y="1230" type="curve" smooth="yes"/>
      <point x="85" y="1230" type="line" smooth="yes"/>
      <point x="36" y="1230"/>
      <point x="25" y="1232"/>
      <point x="25" y="1281" type="curve" smooth="yes"/>
      <point x="25" y="1437" type="line" smooth="yes"/>
      <point x="25" y="1486"/>
      <point x="32" y="1500"/>
      <point x="79" y="1500" type="curve" smooth="yes"/>
      <point x="913" y="1500" type="line" smooth="yes"/>
      <point x="950" y="1500"/>
      <point x="955" y="1491"/>
      <point x="955" y="1452" type="curve" smooth="yes"/>
      <point x="955" y="1279" type="line" smooth="yes"/>
      <point x="955" y="1239"/>
      <point x="949" y="1230"/>
      <point x="906" y="1230" type="curve" smooth="yes"/>
      <point x="771" y="1230" type="line" smooth="yes"/>
      <point x="717" y="1230"/>
      <point x="715" y="1219"/>
      <point x="715" y="1164" type="curve" smooth="yes"/>
      <point x="715" y="660" type="line" smooth="yes"/>
      <point x="715" y="376"/>
      <point x="787" y="254"/>
      <point x="1015" y="254" type="curve" smooth="yes"/>
      <point x="1183" y="254"/>
      <point x="1345" y="336"/>
      <point x="1345" y="600" type="curve" smooth="yes"/>
      <point x="1345" y="1179" type="line" smooth="yes"/>
      <point x="1345" y="1224"/>
      <point x="1333" y="1230"/>
    </contour>
  </outline>
</glyph>
<glyph name="V" format="2">
  <advance width="1900"/>
  <unicode hex="0056"/>
  <anchor x="972" y="0" name="Anchor-2"/>
  <anchor x="1096" y="1500" name="Anchor-0"/>
  <outline>
    <contour>
      <point x="1093" y="489" type="curve" smooth="yes"/>
      <point x="1393" y="1181" type="line" smooth="yes"/>
      <point x="1410" y="1221"/>
      <point x="1411" y="1230"/>
      <point x="1356" y="1230" type="curve" smooth="yes"/>
      <point x="1300" y="1230" type="line" smooth="yes"/>
      <point x="1256" y="1230"/>
      <point x="1250" y="1235"/>
      <point x="1250" y="1277" type="curve" smooth="yes"/>
      <point x="1250" y="1437" type="line" smooth="yes"/>
      <point x="1250" y="1488"/>
      <point x="1251" y="1500"/>
      <point x="1302" y="1500" type="curve" smooth="yes"/>
      <point x="1844" y="1500" type="line" smooth="yes"/>
      <point x="1890" y="1500"/>
      <point x="1910" y="1495"/>
      <point x="1910" y="1444" type="curve" smooth="yes"/>
      <point x="1910" y="1271" type="line" smooth="yes"/>
      <point x="1910" y="1239"/>
      <point x="1896" y="1230"/>
      <point x="1862" y="1230" type="curve" smooth="yes"/>
      <point x="1772" y="1230" type="line" smooth="yes"/>
      <point x="1717" y="1230"/>
      <point x="1710" y="1215"/>
      <point x="1694" y="1179" type="curve" smooth="yes"/>
      <point x="1189" y="39" type="line" smooth="yes"/>
      <point x="1166" y="-13"/>
      <point x="1169" y="-30"/>
      <point x="1090" y="-30" type="curve" smooth="yes"/>
      <point x="838" y="-30" type="line" smooth="yes"/>
      <point x="767" y="-30"/>
      <point x="757" y="-23"/>
      <point x="737" y="25" type="curve" smooth="yes"/>
      <point x="241" y="1187" type="line" smooth="yes"/>
      <point x="224" y="1227"/>
      <point x="221" y="1230"/>
      <point x="162" y="1230" type="curve" smooth="yes"/>
      <point x="41" y="1230" type="line" smooth="yes"/>
      <point x="-6" y="1230"/>
      <point x="-10" y="1245"/>
      <point x="-10" y="1289" type="curve" smooth="yes"/>
      <point x="-10" y="1451" type="line" smooth="yes"/>
      <point x="-10" y="1499"/>
      <point x="-1" y="1500"/>
      <point x="48" y="1500" type="curve" smooth="yes"/>
      <point x="926" y="1500" type="line" smooth="yes"/>
      <point x="961" y="1500"/>
      <point x="970" y="1487"/>
      <point x="970" y="1450" type="curve" smooth="yes"/>
      <point x="970" y="1277" type="line" smooth="yes"/>
      <point x="970" y="1236"/>
      <point x="963" y="1230"/>
      <point x="920" y="1230" type="curve" smooth="yes"/>
      <point x="788" y="1230" type="line" smooth="yes"/>
      <point x="745" y="1230"/>
      <point x="738" y="1218"/>
      <point x="750" y="1186" type="curve" smooth="yes"/>
      <point x="978" y="601" type="line" smooth="yes"/>
      <point x="1017" y="500"/>
      <point x="1030" y="342"/>
    </contour>
  </outline>
</glyph>
<glyph name="W" format="2">
  <advance width="2580"/>
  <unicode hex="0057"/>
  <anchor x="1306" y="0" name="Anchor-2"/>
  <anchor x="1396" y="1500" name="Anchor-0"/>
  <outline>
    <contour>
      <point x="994" y="676" type="curve" smooth="yes"/>
      <point x="1193" y="1092" type="line" smooth="yes"/>
      <point x="1211" y="1129"/>
      <point x="1223" y="1145"/>
      <point x="1208" y="1186" type="curve" smooth="yes"/>
      <point x="1199" y="1210" type="line" smooth="yes"/>
      <point x="1193" y="1227"/>
      <point x="1188" y="1230"/>
      <point x="1165" y="1230" type="curve" smooth="yes"/>
      <point x="1049" y="1230" type="line" smooth="yes"/>
      <point x="1011" y="1230"/>
      <point x="1010" y="1239"/>
      <point x="1010" y="1278" type="curve" smooth="yes"/>
      <point x="1010" y="1435" type="line" smooth="yes"/>
      <point x="1010" y="1489"/>
      <point x="1011" y="1500"/>
      <point x="1065" y="1500" type="curve" smooth="yes"/>
      <point x="1733" y="1500" type="line" smooth="yes"/>
      <point x="1767" y="1500"/>
      <point x="1810" y="1498"/>
      <point x="1810" y="1460" type="curve" smooth="yes"/>
      <point x="1810" y="1294" type="line" smooth="yes"/>
      <point x="1810" y="1251"/>
      <point x="1809" y="1230"/>
      <point x="1762" y="1230" type="curve" smooth="yes"/>
      <point x="1710" y="1230" type="line" smooth="yes"/>
      <point x="1663" y="1230"/>
      <point x="1663" y="1220"/>
      <point x="1674" y="1188" type="curve" smooth="yes"/>
      <point x="1809" y="780" type="line" smooth="yes"/>
      <point x="1830" y="717"/>
      <point x="1843" y="613"/>
      <point x="1869" y="613" type="curve" smooth="yes"/>
      <point x="1878" y="613"/>
      <point x="1888" y="631"/>
      <point x="1900" y="666" type="curve" smooth="yes"/>
      <point x="2073" y="1164" type="line" smooth="yes"/>
      <point x="2090" y="1213"/>
      <point x="2103" y="1230"/>
      <point x="2029" y="1230" type="curve" smooth="yes"/>
      <point x="1967" y="1230" type="line" smooth="yes"/>
      <point x="1922" y="1230"/>
      <point x="1910" y="1236"/>
      <point x="1910" y="1284" type="curve" smooth="yes"/>
      <point x="1910" y="1442" type="line" smooth="yes"/>
      <point x="1910" y="1494"/>
      <point x="1917" y="1500"/>
      <point x="1967" y="1500" type="curve" smooth="yes"/>
      <point x="2529" y="1500" type="line" smooth="yes"/>
      <point x="2570" y="1500"/>
      <point x="2590" y="1498"/>
      <point x="2590" y="1453" type="curve" smooth="yes"/>
      <point x="2590" y="1272" type="line" smooth="yes"/>
      <point x="2590" y="1233"/>
      <point x="2581" y="1230"/>
      <point x="2541" y="1230" type="curve" smooth="yes"/>
      <point x="2423" y="1230" type="line" smooth="yes"/>
      <point x="2363" y="1230"/>
      <point x="2358" y="1215"/>
      <point x="2343" y="1172" type="curve" smooth="yes"/>
      <point x="1944" y="18" type="line" smooth="yes"/>
      <point x="1931" y="-19"/>
      <point x="1920" y="-20"/>
      <point x="1871" y="-20" type="curve" smooth="yes"/>
      <point x="1709" y="-20" type="line" smooth="yes"/>
      <point x="1653" y="-20"/>
      <point x="1657" y="-7"/>
      <point x="1642" y="32" type="curve" smooth="yes"/>
      <point x="1418" y="628" type="line" smooth="yes"/>
      <point x="1396" y="688"/>
      <point x="1375" y="813"/>
      <point x="1343" y="813" type="curve" smooth="yes"/>
      <point x="1333" y="813"/>
      <point x="1322" y="804"/>
      <point x="1310" y="778" type="curve" smooth="yes"/>
      <point x="953" y="28" type="line" smooth="yes"/>
      <point x="935" y="-9"/>
      <point x="937" y="-20"/>
      <point x="879" y="-20" type="curve" smooth="yes"/>
      <point x="727" y="-20" type="line" smooth="yes"/>
      <point x="664" y="-20"/>
      <point x="659" y="-19"/>
      <point x="643" y="26" type="curve" smooth="yes"/>
      <point x="228" y="1176" type="line" smooth="yes"/>
      <point x="211" y="1224"/>
      <point x="211" y="1230"/>
      <point x="143" y="1230" type="curve" smooth="yes"/>
      <point x="37" y="1230" type="line" smooth="yes"/>
      <point x="-3" y="1230"/>
      <point x="-10" y="1235"/>
      <point x="-10" y="1276" type="curve" smooth="yes"/>
      <point x="-10" y="1448" type="line" smooth="yes"/>
      <point x="-10" y="1498"/>
      <point x="6" y="1500"/>
      <point x="53" y="1500" type="curve" smooth="yes"/>
      <point x="821" y="1500" type="line" smooth="yes"/>
      <point x="874" y="1500"/>
      <point x="890" y="1499"/>
      <point x="890" y="1442" type="curve" smooth="yes"/>
      <point x="890" y="1290" type="line" smooth="yes"/>
      <point x="890" y="1239"/>
      <point x="888" y="1230"/>
      <point x="837" y="1230" type="curve" smooth="yes"/>
      <point x="793" y="1230" type="line" smooth="yes"/>
      <point x="755" y="1230"/>
      <point x="734" y="1230"/>
      <point x="745" y="1196" type="curve" smooth="yes"/>
      <point x="891" y="764" type="line" smooth="yes"/>
      <point x="910" y="705"/>
      <point x="922" y="622"/>
      <point x="946" y="622" type="curve" smooth="yes"/>
      <point x="967" y="622"/>
      <point x="978" y="643"/>
    </contour>
  </outline>
</glyph>
<glyph name="grave" format="2">
  <advance width="790"/>
  <unicode hex="0060"/>
  <outline>
    <contour>
      <point x="250" y="1340" type="line" smooth="yes"/>
      <point x="145" y="1331"/>
      <point x="60" y="1392"/>
      <point x="60" y="1510" type="curve" smooth="yes"/>
      <point x="60" y="1628"/>
      <point x="154" y="1720"/>
      <point x="270" y="1676" type="curve" smooth="yes"/>
      <point x="637" y="1536" type="line" smooth="yes"/>
      <point x="701" y="1512"/>
      <point x="730" y="1509"/>
      <point x="724" y="1432" type="curve" smooth="yes"/>
      <point x="720" y="1377"/>
      <point x="696" y="1378"/>
      <point x="634" y="1373" type="curve" smooth="yes"/>
    </contour>
  </outline>
</glyph>
<glyph name="a" format="2">
  <advance width="1394"/>
  <unicode hex="0061"/>
  <anchor x="672" y="1040" name="Anchor-0"/>
  <anchor x="685" y="0" name="Anchor-2"/>
  <anchor x="1205" y="90" name="Anchor-3"/>
  <outline>
    <contour>
      <point x="45" y="246" type="curve" smooth="yes"/>
      <point x="45" y="474"/>
      <point x="289" y="588"/>
      <point x="633" y="588" type="curve" smooth="yes"/>
      <point x="701" y="588" type="line" smooth="yes"/>
      <point x="724" y="588"/>
      <point x="727" y="590"/>
      <point x="727" y="614" type="curve" smooth="yes"/>
      <point x="727" y="734" type="line" smooth="yes"/>
      <point x="727" y="838"/>
      <point x="661" y="888"/>
      <point x="571" y="888" type="curve" smooth="yes"/>
      <point x="541" y="888"/>
      <point x="519" y="880"/>
      <point x="519" y="868" type="curve" smooth="yes"/>
      <point x="519" y="845"/>
      <point x="553" y="844"/>
      <point x="553" y="756" type="curve" smooth="yes"/>
      <point x="553" y="658"/>
      <point x="451" y="600"/>
      <point x="343" y="600" type="curve" smooth="yes"/>
      <point x="221" y="600"/>
      <point x="125" y="648"/>
      <point x="125" y="756" type="curve" smooth="yes"/>
      <point x="125" y="980"/>
      <point x="419" y="1060"/>
      <point x="701" y="1060" type="curve" smooth="yes"/>
      <point x="981" y="1060"/>
      <point x="1147" y="946"/>
      <point x="1147" y="694" type="curve" smooth="yes"/>
      <point x="1147" y="272" type="line" smooth="yes"/>
      <point x="1147" y="232"/>
      <point x="1171" y="214"/>
      <point x="1199" y="214" type="curve" smooth="yes"/>
      <point x="1227" y="214"/>
      <point x="1254" y="224"/>
      <point x="1277" y="267" type="curve" smooth="yes"/>
      <point x="1284" y="279"/>
      <point x="1290" y="282"/>
      <point x="1300" y="274" type="curve"/>
      <point x="1414" y="204" type="line" smooth="yes"/>
      <point x="1425" y="197"/>
      <point x="1426" y="193"/>
      <point x="1420" y="180" type="curve" smooth="yes"/>
      <point x="1373" y="91"/>
      <point x="1272" y="-20"/>
      <point x="1091" y="-20" type="curve" smooth="yes"/>
      <point x="1090" y="-20" type="line" smooth="yes"/>
      <point x="949" y="-20"/>
      <point x="869" y="10"/>
      <point x="809" y="77" type="curve" smooth="yes"/>
      <point x="776" y="113"/>
      <point x="764" y="113"/>
      <point x="742" y="91" type="curve" smooth="yes"/>
      <point x="676" y="26"/>
      <point x="566" y="-20"/>
      <point x="395" y="-20" type="curve" smooth="yes"/>
      <point x="167" y="-20"/>
      <point x="45" y="68"/>
    </contour>
    <contour>
      <point x="519" y="286" type="curve" smooth="yes"/>
      <point x="519" y="232"/>
      <point x="545" y="199"/>
      <point x="605" y="199" type="curve" smooth="yes"/>
      <point x="691" y="199"/>
      <point x="727" y="250"/>
      <point x="727" y="382" type="curve" smooth="yes"/>
      <point x="727" y="417" type="line" smooth="yes"/>
      <point x="727" y="434"/>
      <point x="724" y="437"/>
      <point x="707" y="437" type="curve" smooth="yes"/>
      <point x="699" y="437" type="line" smooth="yes"/>
      <point x="607" y="437"/>
      <point x="519" y="360"/>
    </contour>
  </outline>
</glyph>
<glyph name="b" format="2">
  <advance width="1471"/>
  <unicode hex="0062"/>
  <anchor x="972" y="1040" name="Anchor-0"/>
  <anchor x="685" y="0" name="Anchor-2"/>
  <outline>
    <contour>
      <point x="645" y="520" type="curve" smooth="yes"/>
      <point x="645" y="332"/>
      <point x="719" y="204"/>
      <point x="821" y="204" type="curve" smooth="yes"/>
      <point x="909" y="204"/>
      <point x="981" y="332"/>
      <point x="981" y="520" type="curve" smooth="yes"/>
      <point x="981" y="708"/>
      <point x="909" y="836"/>
      <point x="821" y="836" type="curve" smooth="yes"/>
      <point x="719" y="836"/>
      <point x="645" y="708"/>
    </contour>
    <contour>
      <point x="81" y="1350" type="line" smooth="yes"/>
      <point x="50" y="1350"/>
      <point x="45" y="1354"/>
      <point x="45" y="1384" type="curve" smooth="yes"/>
      <point x="45" y="1529" type="line" smooth="yes"/>
      <point x="45" y="1556"/>
      <point x="56" y="1560"/>
      <point x="81" y="1560" type="curve" smooth="yes"/>
      <point x="597" y="1560" type="line" smooth="yes"/>
      <point x="629" y="1560"/>
      <point x="645" y="1559"/>
      <point x="645" y="1524" type="curve" smooth="yes"/>
      <point x="645" y="943" type="line" smooth="yes"/>
      <point x="645" y="902"/>
      <point x="649" y="901"/>
      <point x="661" y="916" type="curve" smooth="yes"/>
      <point x="737" y="1010"/>
      <point x="813" y="1078"/>
      <point x="977" y="1078" type="curve" smooth="yes"/>
      <point x="1235" y="1078"/>
      <point x="1421" y="880"/>
      <point x="1421" y="520" type="curve" smooth="yes"/>
      <point x="1421" y="160"/>
      <point x="1215" y="-40"/>
      <point x="957" y="-40" type="curve" smooth="yes"/>
      <point x="803" y="-40"/>
      <point x="731" y="8"/>
      <point x="668" y="103" type="curve" smooth="yes"/>
      <point x="653" y="126"/>
      <point x="645" y="123"/>
      <point x="645" y="84" type="curve" smooth="yes"/>
      <point x="645" y="36" type="line" smooth="yes"/>
      <point x="645" y="2"/>
      <point x="632" y="0"/>
      <point x="601" y="0" type="curve" smooth="yes"/>
      <point x="79" y="0" type="line" smooth="yes"/>
      <point x="52" y="0"/>
      <point x="45" y="5"/>
      <point x="45" y="34" type="curve" smooth="yes"/>
      <point x="45" y="178" type="line" smooth="yes"/>
      <point x="45" y="207"/>
      <point x="58" y="210"/>
      <point x="85" y="210" type="curve" smooth="yes"/>
      <point x="187" y="210" type="line" smooth="yes"/>
      <point x="221" y="210"/>
      <point x="225" y="217"/>
      <point x="225" y="252" type="curve" smooth="yes"/>
      <point x="225" y="1323" type="line" smooth="yes"/>
      <point x="225" y="1343"/>
      <point x="222" y="1350"/>
      <point x="203" y="1350" type="curve" smooth="yes"/>
    </contour>
  </outline>
</glyph>
<glyph name="c" format="2">
  <advance width="1248"/>
  <unicode hex="0063"/>
  <anchor x="681" y="1040" name="Anchor-0"/>
  <anchor x="679" y="0" name="Anchor-2"/>
  <outline>
    <contour>
      <point x="50" y="500" type="curve" smooth="yes"/>
      <point x="50" y="800"/>
      <point x="266" y="1080"/>
      <point x="688" y="1080" type="curve" smooth="yes"/>
      <point x="1012" y="1080"/>
      <point x="1208" y="918"/>
      <point x="1208" y="744" type="curve" smooth="yes"/>
      <point x="1208" y="588"/>
      <point x="1100" y="500"/>
      <point x="962" y="500" type="curve" smooth="yes"/>
      <point x="808" y="500"/>
      <point x="728" y="582"/>
      <point x="728" y="696" type="curve" smooth="yes"/>
      <point x="728" y="798"/>
      <point x="810" y="818"/>
      <point x="810" y="852" type="curve" smooth="yes"/>
      <point x="810" y="878"/>
      <point x="784" y="898"/>
      <point x="728" y="898" type="curve" smooth="yes"/>
      <point x="598" y="898"/>
      <point x="520" y="768"/>
      <point x="520" y="540" type="curve" smooth="yes"/>
      <point x="520" y="352"/>
      <point x="552" y="166"/>
      <point x="690" y="166" type="curve" smooth="yes"/>
      <point x="788" y="166"/>
      <point x="845" y="218"/>
      <point x="893" y="321" type="curve" smooth="yes"/>
      <point x="902" y="341"/>
      <point x="911" y="346"/>
      <point x="942" y="346" type="curve" smooth="yes"/>
      <point x="1138" y="346" type="line" smooth="yes"/>
      <point x="1172" y="346"/>
      <point x="1176" y="342"/>
      <point x="1169" y="315" type="curve" smooth="yes"/>
      <point x="1107" y="64"/>
      <point x="898" y="-40"/>
      <point x="646" y="-40" type="curve" smooth="yes"/>
      <point x="244" y="-40"/>
      <point x="50" y="220"/>
    </contour>
  </outline>
</glyph>
<glyph name="f" format="2">
  <advance width="920"/>
  <unicode hex="0066"/>
  <anchor x="819" y="1692" name="Anchor-0"/>
  <anchor x="441" y="0" name="Anchor-2"/>
  <outline>
    <contour>
      <point x="630" y="787" type="curve" smooth="yes"/>
      <point x="630" y="248" type="line" smooth="yes"/>
      <point x="630" y="215"/>
      <point x="636" y="210"/>
      <point x="671" y="210" type="curve" smooth="yes"/>
      <point x="813" y="210" type="line" smooth="yes"/>
      <point x="852" y="210"/>
      <point x="870" y="206"/>
      <point x="870" y="163" type="curve" smooth="yes"/>
      <point x="870" y="46" type="line" smooth="yes"/>
      <point x="870" y="3"/>
      <point x="863" y="0"/>
      <point x="819" y="0" type="curve" smooth="yes"/>
      <point x="87" y="0" type="line" smooth="yes"/>
      <point x="45" y="0"/>
      <point x="30" y="6"/>
      <point x="30" y="51" type="curve" smooth="yes"/>
      <point x="30" y="155" type="line" smooth="yes"/>
      <point x="30" y="196"/>
      <point x="32" y="210"/>
      <point x="73" y="210" type="curve" smooth="yes"/>
      <point x="161" y="210" type="line" smooth="yes"/>
      <point x="201" y="210"/>
      <point x="210" y="212"/>
      <point x="210" y="252" type="curve" smooth="yes"/>
      <point x="210" y="796" type="line" smooth="yes"/>
      <point x="210" y="822"/>
      <point x="208" y="830"/>
      <point x="183" y="830" type="curve" smooth="yes"/>
      <point x="71" y="830" type="line" smooth="yes"/>
      <point x="40" y="830"/>
      <point x="30" y="831"/>
      <point x="30" y="862" type="curve" smooth="yes"/>
      <point x="30" y="1000" type="line" smooth="yes"/>
      <point x="30" y="1031"/>
      <point x="34" y="1040"/>
      <point x="67" y="1040" type="curve" smooth="yes"/>
      <point x="171" y="1040" type="line" smooth="yes"/>
      <point x="204" y="1040"/>
      <point x="210" y="1046"/>
      <point x="210" y="1078" type="curve" smooth="yes"/>
      <point x="210" y="1144" type="line" smooth="yes"/>
      <point x="210" y="1366"/>
      <point x="404" y="1600"/>
      <point x="804" y="1600" type="curve" smooth="yes"/>
      <point x="1126" y="1600"/>
      <point x="1270" y="1462"/>
      <point x="1270" y="1308" type="curve" smooth="yes"/>
      <point x="1270" y="1148"/>
      <point x="1160" y="1086"/>
      <point x="1036" y="1086" type="curve" smooth="yes"/>
      <point x="892" y="1086"/>
      <point x="796" y="1162"/>
      <point x="796" y="1272" type="curve" smooth="yes"/>
      <point x="796" y="1366"/>
      <point x="868" y="1388"/>
      <point x="868" y="1410" type="curve" smooth="yes"/>
      <point x="868" y="1424"/>
      <point x="840" y="1426"/>
      <point x="820" y="1426" type="curve" smooth="yes"/>
      <point x="740" y="1426"/>
      <point x="630" y="1354"/>
      <point x="630" y="1100" type="curve" smooth="yes"/>
      <point x="630" y="1063" type="line" smooth="yes"/>
      <point x="630" y="1042"/>
      <point x="635" y="1040"/>
      <point x="655" y="1040" type="curve" smooth="yes"/>
      <point x="836" y="1040" type="line" smooth="yes"/>
      <point x="869" y="1040"/>
      <point x="870" y="1036"/>
      <point x="870" y="1004" type="curve" smooth="yes"/>
      <point x="870" y="867" type="line" smooth="yes"/>
      <point x="870" y="834"/>
      <point x="868" y="830"/>
      <point x="835" y="830" type="curve" smooth="yes"/>
      <point x="677" y="830" type="line" smooth="yes"/>
      <point x="640" y="830"/>
      <point x="630" y="824"/>
    </contour>
  </outline>
</glyph>
<glyph name="h" format="2">
  <advance width="1505"/>
  <unicode hex="0068"/>
  <anchor x="1068" y="1039" name="Anchor-0"/>
  <anchor x="739" y="0" name="Anchor-2"/>
  <outline>
    <contour>
      <point x="197" y="1350" type="curve" smooth="yes"/>
      <point x="79" y="1350" type="line" smooth="yes"/>
      <point x="50" y="1350"/>
      <point x="45" y="1358"/>
      <point x="45" y="1385" type="curve" smooth="yes"/>
      <point x="45" y="1523" type="line" smooth="yes"/>
      <point x="45" y="1550"/>
      <point x="46" y="1560"/>
      <point x="73" y="1560" type="curve" smooth="yes"/>
      <point x="585" y="1560" type="line" smooth="yes"/>
      <point x="600" y="1560"/>
      <point x="605" y="1553"/>
      <point x="605" y="1537" type="curve" smooth="yes"/>
      <point x="605" y="958" type="line" smooth="yes"/>
      <point x="605" y="909"/>
      <point x="610" y="932"/>
      <point x="627" y="953" type="curve" smooth="yes"/>
      <point x="687" y="1028"/>
      <point x="782" y="1080"/>
      <point x="931" y="1080" type="curve" smooth="yes"/>
      <point x="1165" y="1080"/>
      <point x="1295" y="952"/>
      <point x="1295" y="738" type="curve" smooth="yes"/>
      <point x="1295" y="236" type="line" smooth="yes"/>
      <point x="1295" y="210"/>
      <point x="1295" y="210"/>
      <point x="1321" y="210" type="curve" smooth="yes"/>
      <point x="1447" y="210" type="line" smooth="yes"/>
      <point x="1465" y="210"/>
      <point x="1475" y="205"/>
      <point x="1475" y="186" type="curve" smooth="yes"/>
      <point x="1475" y="30" type="line" smooth="yes"/>
      <point x="1475" y="5"/>
      <point x="1468" y="0"/>
      <point x="1445" y="0" type="curve" smooth="yes"/>
      <point x="803" y="0" type="line" smooth="yes"/>
      <point x="776" y="0"/>
      <point x="775" y="9"/>
      <point x="775" y="36" type="curve" smooth="yes"/>
      <point x="775" y="181" type="line" smooth="yes"/>
      <point x="775" y="202"/>
      <point x="777" y="210"/>
      <point x="797" y="210" type="curve" smooth="yes"/>
      <point x="845" y="210" type="line" smooth="yes"/>
      <point x="868" y="210"/>
      <point x="875" y="213"/>
      <point x="875" y="235" type="curve" smooth="yes"/>
      <point x="875" y="706" type="line" smooth="yes"/>
      <point x="875" y="814"/>
      <point x="847" y="846"/>
      <point x="785" y="846" type="curve" smooth="yes"/>
      <point x="709" y="846"/>
      <point x="605" y="772"/>
      <point x="605" y="566" type="curve" smooth="yes"/>
      <point x="605" y="240" type="line" smooth="yes"/>
      <point x="605" y="213"/>
      <point x="613" y="210"/>
      <point x="641" y="210" type="curve" smooth="yes"/>
      <point x="676" y="210" type="line" smooth="yes"/>
      <point x="696" y="210"/>
      <point x="705" y="205"/>
      <point x="705" y="183" type="curve" smooth="yes"/>
      <point x="705" y="34" type="line" smooth="yes"/>
      <point x="705" y="4"/>
      <point x="696" y="0"/>
      <point x="668" y="0" type="curve" smooth="yes"/>
      <point x="65" y="0" type="line" smooth="yes"/>
      <point x="48" y="0"/>
      <point x="45" y="8"/>
      <point x="45" y="26" type="curve" smooth="yes"/>
      <point x="45" y="176" type="line" smooth="yes"/>
      <point x="45" y="202"/>
      <point x="48" y="210"/>
      <point x="73" y="210" type="curve" smooth="yes"/>
      <point x="196" y="210" type="line" smooth="yes"/>
      <point x="222" y="210"/>
      <point x="225" y="218"/>
      <point x="225" y="245" type="curve" smooth="yes"/>
      <point x="225" y="1316" type="line" smooth="yes"/>
      <point x="225" y="1342"/>
      <point x="222" y="1350"/>
    </contour>
  </outline>
</glyph>
<glyph name="l" format="2">
  <advance width="870"/>
  <unicode hex="006C"/>
  <anchor x="433" y="1696" name="Anchor-0"/>
  <anchor x="896" y="1040" name="Anchor-1"/>
  <anchor x="440" y="0" name="Anchor-2"/>
  <outline>
    <contour>
      <point x="166" y="1350" type="curve" smooth="yes"/>
      <point x="102" y="1350" type="line" smooth="yes"/>
      <point x="46" y="1350"/>
      <point x="45" y="1363"/>
      <point x="45" y="1416" type="curve" smooth="yes"/>
      <point x="45" y="1496" type="line" smooth="yes"/>
      <point x="45" y="1558"/>
      <point x="53" y="1560"/>
      <point x="116" y="1560" type="curve" smooth="yes"/>
      <point x="582" y="1560" type="line" smooth="yes"/>
      <point x="638" y="1560"/>
      <point x="645" y="1556"/>
      <point x="645" y="1498" type="curve" smooth="yes"/>
      <point x="645" y="262" type="line" smooth="yes"/>
      <point x="645" y="215"/>
      <point x="651" y="210"/>
      <point x="696" y="210" type="curve" smooth="yes"/>
      <point x="792" y="210" type="line" smooth="yes"/>
      <point x="819" y="210"/>
      <point x="825" y="205"/>
      <point x="825" y="176" type="curve" smooth="yes"/>
      <point x="825" y="54" type="line" smooth="yes"/>
      <point x="825" y="3"/>
      <point x="818" y="0"/>
      <point x="766" y="0" type="curve" smooth="yes"/>
      <point x="86" y="0" type="line" smooth="yes"/>
      <point x="54" y="0"/>
      <point x="45" y="2"/>
      <point x="45" y="34" type="curve" smooth="yes"/>
      <point x="45" y="166" type="line" smooth="yes"/>
      <point x="45" y="201"/>
      <point x="57" y="210"/>
      <point x="92" y="210" type="curve" smooth="yes"/>
      <point x="164" y="210" type="line" smooth="yes"/>
      <point x="218" y="210"/>
      <point x="225" y="214"/>
      <point x="225" y="270" type="curve" smooth="yes"/>
      <point x="225" y="1298" type="line" smooth="yes"/>
      <point x="225" y="1348"/>
      <point x="213" y="1350"/>
    </contour>
  </outline>
</glyph>
<glyph name="m" format="2">
  <advance width="2185"/>
  <unicode hex="006D"/>
  <anchor x="1149" y="1040" name="Anchor-0"/>
  <anchor x="1090" y="0" name="Anchor-2"/>
  <outline>
    <contour>
      <point x="55" y="38" type="curve" smooth="yes"/>
      <point x="55" y="166" type="line" smooth="yes"/>
      <point x="55" y="194"/>
      <point x="57" y="210"/>
      <point x="88" y="210" type="curve" smooth="yes"/>
      <point x="204" y="210" type="line" smooth="yes"/>
      <point x="234" y="210"/>
      <point x="235" y="219"/>
      <point x="235" y="250" type="curve" smooth="yes"/>
      <point x="235" y="784" type="line" smooth="yes"/>
      <point x="235" y="827"/>
      <point x="228" y="830"/>
      <point x="184" y="830" type="curve" smooth="yes"/>
      <point x="109" y="830" type="line" smooth="yes"/>
      <point x="70" y="830"/>
      <point x="55" y="831"/>
      <point x="55" y="870" type="curve" smooth="yes"/>
      <point x="55" y="991" type="line" smooth="yes"/>
      <point x="55" y="1032"/>
      <point x="65" y="1040"/>
      <point x="104" y="1040" type="curve" smooth="yes"/>
      <point x="567" y="1040" type="line" smooth="yes"/>
      <point x="601" y="1040"/>
      <point x="615" y="1038"/>
      <point x="615" y="1004" type="curve" smooth="yes"/>
      <point x="615" y="968" type="line" smooth="yes"/>
      <point x="615" y="907"/>
      <point x="624" y="899"/>
      <point x="657" y="943" type="curve" smooth="yes"/>
      <point x="713" y="1019"/>
      <point x="808" y="1080"/>
      <point x="951" y="1080" type="curve" smooth="yes"/>
      <point x="1094" y="1080"/>
      <point x="1186" y="1033"/>
      <point x="1237" y="957" type="curve" smooth="yes"/>
      <point x="1270" y="908"/>
      <point x="1285" y="923"/>
      <point x="1320" y="962" type="curve" smooth="yes"/>
      <point x="1383" y="1032"/>
      <point x="1475" y="1080"/>
      <point x="1611" y="1080" type="curve" smooth="yes"/>
      <point x="1845" y="1080"/>
      <point x="1975" y="952"/>
      <point x="1975" y="738" type="curve" smooth="yes"/>
      <point x="1975" y="248" type="line" smooth="yes"/>
      <point x="1975" y="212"/>
      <point x="1983" y="210"/>
      <point x="2020" y="210" type="curve" smooth="yes"/>
      <point x="2110" y="210" type="line" smooth="yes"/>
      <point x="2145" y="210"/>
      <point x="2155" y="205"/>
      <point x="2155" y="168" type="curve" smooth="yes"/>
      <point x="2155" y="56" type="line" smooth="yes"/>
      <point x="2155" y="12"/>
      <point x="2154" y="0"/>
      <point x="2110" y="0" type="curve" smooth="yes"/>
      <point x="1516" y="0" type="line" smooth="yes"/>
      <point x="1475" y="0"/>
      <point x="1465" y="5"/>
      <point x="1465" y="44" type="curve" smooth="yes"/>
      <point x="1465" y="162" type="line" smooth="yes"/>
      <point x="1465" y="192"/>
      <point x="1467" y="210"/>
      <point x="1496" y="210" type="curve" smooth="yes"/>
      <point x="1524" y="210" type="line" smooth="yes"/>
      <point x="1553" y="210"/>
      <point x="1555" y="218"/>
      <point x="1555" y="248" type="curve" smooth="yes"/>
      <point x="1555" y="706" type="line" smooth="yes"/>
      <point x="1555" y="814"/>
      <point x="1527" y="846"/>
      <point x="1465" y="846" type="curve" smooth="yes"/>
      <point x="1409" y="846"/>
      <point x="1315" y="772"/>
      <point x="1315" y="566" type="curve" smooth="yes"/>
      <point x="1315" y="252" type="line" smooth="yes"/>
      <point x="1315" y="230"/>
      <point x="1317" y="210"/>
      <point x="1342" y="210" type="curve" smooth="yes"/>
      <point x="1372" y="210" type="line" smooth="yes"/>
      <point x="1397" y="210"/>
      <point x="1405" y="208"/>
      <point x="1405" y="184" type="curve" smooth="yes"/>
      <point x="1405" y="46" type="line" smooth="yes"/>
      <point x="1405" y="5"/>
      <point x="1396" y="0"/>
      <point x="1353" y="0" type="curve" smooth="yes"/>
      <point x="844" y="0" type="line" smooth="yes"/>
      <point x="808" y="0"/>
      <point x="805" y="7"/>
      <point x="805" y="44" type="curve" smooth="yes"/>
      <point x="805" y="176" type="line" smooth="yes"/>
      <point x="805" y="204"/>
      <point x="810" y="210"/>
      <point x="840" y="210" type="curve" smooth="yes"/>
      <point x="868" y="210" type="line" smooth="yes"/>
      <point x="897" y="210"/>
      <point x="895" y="222"/>
      <point x="895" y="250" type="curve" smooth="yes"/>
      <point x="895" y="706" type="line" smooth="yes"/>
      <point x="895" y="814"/>
      <point x="867" y="846"/>
      <point x="805" y="846" type="curve" smooth="yes"/>
      <point x="749" y="846"/>
      <point x="655" y="772"/>
      <point x="655" y="566" type="curve" smooth="yes"/>
      <point x="655" y="254" type="line" smooth="yes"/>
      <point x="655" y="220"/>
      <point x="656" y="210"/>
      <point x="690" y="210" type="curve" smooth="yes"/>
      <point x="715" y="210" type="line" smooth="yes"/>
      <point x="743" y="210"/>
      <point x="745" y="202"/>
      <point x="745" y="176" type="curve" smooth="yes"/>
      <point x="745" y="40" type="line" smooth="yes"/>
      <point x="745" y="9"/>
      <point x="741" y="0"/>
      <point x="708" y="0" type="curve" smooth="yes"/>
      <point x="104" y="0" type="line" smooth="yes"/>
      <point x="70" y="0"/>
      <point x="55" y="1"/>
    </contour>
  </outline>
</glyph>
<glyph name="q" format="2">
  <advance width="1446"/>
  <unicode hex="0071"/>
  <anchor x="606" y="1040" name="Anchor-0"/>
  <anchor x="515" y="0" name="Anchor-2"/>
  <outline>
    <contour>
      <point x="826" y="520" type="curve" smooth="yes"/>
      <point x="826" y="708"/>
      <point x="752" y="836"/>
      <point x="650" y="836" type="curve" smooth="yes"/>
      <point x="562" y="836"/>
      <point x="490" y="708"/>
      <point x="490" y="520" type="curve" smooth="yes"/>
      <point x="490" y="332"/>
      <point x="562" y="204"/>
      <point x="650" y="204" type="curve" smooth="yes"/>
      <point x="752" y="204"/>
      <point x="826" y="332"/>
    </contour>
    <contour>
      <point x="1281" y="-310" type="curve" smooth="yes"/>
      <point x="1367" y="-310" type="line" smooth="yes"/>
      <point x="1408" y="-310"/>
      <point x="1426" y="-317"/>
      <point x="1426" y="-362" type="curve" smooth="yes"/>
      <point x="1426" y="-480" type="line" smooth="yes"/>
      <point x="1426" y="-511"/>
      <point x="1417" y="-520"/>
      <point x="1384" y="-520" type="curve" smooth="yes"/>
      <point x="689" y="-520" type="line" smooth="yes"/>
      <point x="651" y="-520"/>
      <point x="646" y="-514"/>
      <point x="646" y="-474" type="curve" smooth="yes"/>
      <point x="646" y="-356" type="line" smooth="yes"/>
      <point x="646" y="-320"/>
      <point x="647" y="-310"/>
      <point x="683" y="-310" type="curve" smooth="yes"/>
      <point x="791" y="-310" type="line" smooth="yes"/>
      <point x="825" y="-310"/>
      <point x="826" y="-296"/>
      <point x="826" y="-261" type="curve" smooth="yes"/>
      <point x="826" y="42" type="line" smooth="yes"/>
      <point x="826" y="134"/>
      <point x="815" y="117"/>
      <point x="787" y="81" type="curve" smooth="yes"/>
      <point x="729" y="7"/>
      <point x="637" y="-38"/>
      <point x="494" y="-38" type="curve" smooth="yes"/>
      <point x="236" y="-38"/>
      <point x="50" y="160"/>
      <point x="50" y="520" type="curve" smooth="yes"/>
      <point x="50" y="880"/>
      <point x="256" y="1080"/>
      <point x="514" y="1080" type="curve" smooth="yes"/>
      <point x="657" y="1080"/>
      <point x="746" y="1029"/>
      <point x="801" y="946" type="curve" smooth="yes"/>
      <point x="818" y="920"/>
      <point x="826" y="910"/>
      <point x="826" y="974" type="curve" smooth="yes"/>
      <point x="826" y="1012" type="line" smooth="yes"/>
      <point x="826" y="1038"/>
      <point x="834" y="1040"/>
      <point x="861" y="1040" type="curve" smooth="yes"/>
      <point x="1391" y="1040" type="line" smooth="yes"/>
      <point x="1420" y="1040"/>
      <point x="1426" y="1034"/>
      <point x="1426" y="1004" type="curve" smooth="yes"/>
      <point x="1426" y="889" type="line" smooth="yes"/>
      <point x="1426" y="844"/>
      <point x="1424" y="830"/>
      <point x="1379" y="830" type="curve" smooth="yes"/>
      <point x="1291" y="830" type="line" smooth="yes"/>
      <point x="1249" y="830"/>
      <point x="1246" y="818"/>
      <point x="1246" y="775" type="curve" smooth="yes"/>
      <point x="1246" y="-274" type="line" smooth="yes"/>
      <point x="1246" y="-300"/>
      <point x="1255" y="-310"/>
    </contour>
  </outline>
</glyph>
<glyph name="x" format="2">
  <advance width="1448"/>
  <unicode hex="0078"/>
  <anchor x="825" y="1040" name="Anchor-0"/>
  <anchor x="637" y="2" name="Anchor-2"/>
  <outline>
    <contour>
      <point x="890" y="765" type="curve" smooth="yes"/>
      <point x="942" y="793" type="line" smooth="yes"/>
      <point x="967" y="807"/>
      <point x="996" y="830"/>
      <point x="972" y="830" type="curve" smooth="yes"/>
      <point x="922" y="830" type="line" smooth="yes"/>
      <point x="899" y="830"/>
      <point x="896" y="838"/>
      <point x="896" y="859" type="curve" smooth="yes"/>
      <point x="896" y="999" type="line" smooth="yes"/>
      <point x="896" y="1031"/>
      <point x="898" y="1040"/>
      <point x="930" y="1040" type="curve" smooth="yes"/>
      <point x="1388" y="1040" type="line" smooth="yes"/>
      <point x="1421" y="1040"/>
      <point x="1424" y="1032"/>
      <point x="1424" y="998" type="curve" smooth="yes"/>
      <point x="1424" y="872" type="line" smooth="yes"/>
      <point x="1424" y="832"/>
      <point x="1416" y="830"/>
      <point x="1376" y="830" type="curve" smooth="yes"/>
      <point x="1324" y="830" type="line" smooth="yes"/>
      <point x="1288" y="830"/>
      <point x="1276" y="806"/>
      <point x="1252" y="790" type="curve" smooth="yes"/>
      <point x="1032" y="642" type="line" smooth="yes"/>
      <point x="987" y="608"/>
      <point x="958" y="602"/>
      <point x="958" y="574" type="curve" smooth="yes"/>
      <point x="958" y="544"/>
      <point x="1012" y="512"/>
      <point x="1052" y="470" type="curve" smooth="yes"/>
      <point x="1283" y="230" type="line" smooth="yes"/>
      <point x="1296" y="216"/>
      <point x="1299" y="210"/>
      <point x="1328" y="210" type="curve" smooth="yes"/>
      <point x="1441" y="210" type="line" smooth="yes"/>
      <point x="1457" y="210"/>
      <point x="1458" y="201"/>
      <point x="1458" y="184" type="curve" smooth="yes"/>
      <point x="1458" y="28" type="line" smooth="yes"/>
      <point x="1458" y="7"/>
      <point x="1454" y="0"/>
      <point x="1434" y="0" type="curve" smooth="yes"/>
      <point x="710" y="0" type="line" smooth="yes"/>
      <point x="687" y="0"/>
      <point x="686" y="9"/>
      <point x="686" y="32" type="curve" smooth="yes"/>
      <point x="686" y="170" type="line" smooth="yes"/>
      <point x="686" y="202"/>
      <point x="689" y="210"/>
      <point x="720" y="210" type="curve" smooth="yes"/>
      <point x="764" y="210" type="line" smooth="yes"/>
      <point x="800" y="210"/>
      <point x="808" y="214"/>
      <point x="793" y="230" type="curve" smooth="yes"/>
      <point x="727" y="298" type="line" smooth="yes"/>
      <point x="695" y="331"/>
      <point x="677" y="356"/>
      <point x="659" y="356" type="curve" smooth="yes"/>
      <point x="643" y="356"/>
      <point x="629" y="335"/>
      <point x="596" y="310" type="curve" smooth="yes"/>
      <point x="501" y="238" type="line" smooth="yes"/>
      <point x="480" y="222"/>
      <point x="466" y="210"/>
      <point x="498" y="210" type="curve" smooth="yes"/>
      <point x="524" y="210" type="line" smooth="yes"/>
      <point x="552" y="210"/>
      <point x="568" y="208"/>
      <point x="568" y="178" type="curve" smooth="yes"/>
      <point x="568" y="43" type="line" smooth="yes"/>
      <point x="568" y="6"/>
      <point x="564" y="0"/>
      <point x="528" y="0" type="curve" smooth="yes"/>
      <point x="18" y="0" type="line" smooth="yes"/>
      <point x="-9" y="0"/>
      <point x="-10" y="9"/>
      <point x="-10" y="36" type="curve" smooth="yes"/>
      <point x="-10" y="177" type="line" smooth="yes"/>
      <point x="-10" y="202"/>
      <point x="-8" y="210"/>
      <point x="16" y="210" type="curve" smooth="yes"/>
      <point x="108" y="210" type="line" smooth="yes"/>
      <point x="143" y="210"/>
      <point x="150" y="216"/>
      <point x="168" y="230" type="curve" smooth="yes"/>
      <point x="464" y="455" type="line" smooth="yes"/>
      <point x="497" y="480"/>
      <point x="521" y="485"/>
      <point x="521" y="509" type="curve" smooth="yes"/>
      <point x="521" y="537"/>
      <point x="480" y="554"/>
      <point x="445" y="590" type="curve" smooth="yes"/>
      <point x="236" y="806" type="line" smooth="yes"/>
      <point x="218" y="825"/>
      <point x="212" y="830"/>
      <point x="172" y="830" type="curve" smooth="yes"/>
      <point x="66" y="830" type="line" smooth="yes"/>
      <point x="36" y="830"/>
      <point x="36" y="830"/>
      <point x="36" y="860" type="curve" smooth="yes"/>
      <point x="36" y="1013" type="line" smooth="yes"/>
      <point x="36" y="1039"/>
      <point x="45" y="1040"/>
      <point x="72" y="1040" type="curve" smooth="yes"/>
      <point x="780" y="1040" type="line" smooth="yes"/>
      <point x="801" y="1040"/>
      <point x="818" y="1037"/>
      <point x="818" y="1014" type="curve" smooth="yes"/>
      <point x="818" y="855" type="line" smooth="yes"/>
      <point x="818" y="835"/>
      <point x="812" y="830"/>
      <point x="790" y="830" type="curve" smooth="yes"/>
      <point x="714" y="830" type="line" smooth="yes"/>
      <point x="681" y="830"/>
      <point x="679" y="803"/>
      <point x="699" y="793" type="curve" smooth="yes"/>
      <point x="737" y="762" type="line" smooth="yes"/>
      <point x="772" y="734"/>
      <point x="781" y="721"/>
      <point x="809" y="721" type="curve" smooth="yes"/>
      <point x="835" y="721"/>
      <point x="856" y="747"/>
    </contour>
  </outline>
</glyph>
<glyph name="z" format="2">
  <advance width="1175"/>
  <unicode hex="007A"/>
  <anchor x="608" y="1040" name="Anchor-0"/>
  <anchor x="589" y="0" name="Anchor-2"/>
  <outline>
    <contour>
      <point x="572" y="840" type="line" smooth="yes"/>
      <point x="345" y="840"/>
      <point x="302" y="737"/>
      <point x="297" y="580" type="curve" smooth="yes"/>
      <point x="296" y="540"/>
      <point x="289" y="536"/>
      <point x="246" y="536" type="curve" smooth="yes"/>
      <point x="152" y="536" type="line" smooth="yes"/>
      <point x="105" y="536"/>
      <point x="96" y="539"/>
      <point x="96" y="589" type="curve" smooth="yes"/>
      <point x="96" y="980" type="line" smooth="yes"/>
      <point x="96" y="1032"/>
      <point x="100" y="1040"/>
      <point x="154" y="1040" type="curve" smooth="yes"/>
      <point x="1068" y="1040" type="line" smooth="yes"/>
      <point x="1111" y="1040"/>
      <point x="1118" y="1036"/>
      <point x="1118" y="991" type="curve" smooth="yes"/>
      <point x="1118" y="885" type="line" smooth="yes"/>
      <point x="1118" y="840"/>
      <point x="1107" y="829"/>
      <point x="1087" y="807" type="curve" smooth="yes"/>
      <point x="565" y="242" type="line" smooth="yes"/>
      <point x="542" y="217"/>
      <point x="535" y="200"/>
      <point x="580" y="200" type="curve" smooth="yes"/>
      <point x="598" y="200" type="line" smooth="yes"/>
      <point x="868" y="200"/>
      <point x="913" y="301"/>
      <point x="919" y="494" type="curve" smooth="yes"/>
      <point x="920" y="533"/>
      <point x="921" y="548"/>
      <point x="964" y="548" type="curve" smooth="yes"/>
      <point x="1086" y="548" type="line" smooth="yes"/>
      <point x="1113" y="548"/>
      <point x="1120" y="544"/>
      <point x="1120" y="517" type="curve" smooth="yes"/>
      <point x="1120" y="70" type="line" smooth="yes"/>
      <point x="1120" y="9"/>
      <point x="1117" y="0"/>
      <point x="1054" y="0" type="curve" smooth="yes"/>
      <point x="90" y="0" type="line" smooth="yes"/>
      <point x="59" y="0"/>
      <point x="50" y="1"/>
      <point x="50" y="32" type="curve" smooth="yes"/>
      <point x="50" y="156" type="line" smooth="yes"/>
      <point x="50" y="203"/>
      <point x="59" y="209"/>
      <point x="80" y="231" type="curve" smooth="yes"/>
      <point x="618" y="796" type="line" smooth="yes"/>
      <point x="643" y="822"/>
      <point x="643" y="840"/>
      <point x="594" y="840" type="curve" smooth="yes"/>
    </contour>
  </outline>
</glyph>
<glyph name="bar" format="2">
  <advance width="600"/>
  <unicode hex="007C"/>
  <outline>
    <contour>
      <point x="207" y="1560" type="curve" smooth="yes"/>
      <point x="393" y="1560" type="line" smooth="yes"/>
      <point x="447" y="1560"/>
      <point x="450" y="1553"/>
      <point x="450" y="1498" type="curve" smooth="yes"/>
      <point x="450" y="-448" type="line" smooth="yes"/>
      <point x="450" y="-499"/>
      <point x="441" y="-500"/>
      <point x="389" y="-500" type="curve" smooth="yes"/>
      <point x="203" y="-500" type="line" smooth="yes"/>
      <point x="152" y="-500"/>
      <point x="150" y="-492"/>
      <point x="150" y="-440" type="curve" smooth="yes"/>
      <point x="150" y="1496" type="line" smooth="yes"/>
      <point x="150" y="1551"/>
      <point x="152" y="1560"/>
    </contour>
  </outline>
</glyph>
<glyph name="asciitilde" format="2">
  <advance width="1376"/>
  <unicode hex="007E"/>
  <outline>
    <contour>
      <point x="486" y="834" type="curve" smooth="yes"/>
      <point x="432" y="834"/>
      <point x="392" y="805"/>
      <point x="379" y="738" type="curve" smooth="yes"/>
      <point x="373" y="707"/>
      <point x="375" y="686"/>
      <point x="334" y="686" type="curve" smooth="yes"/>
      <point x="184" y="686" type="line" smooth="yes"/>
      <point x="142" y="686"/>
      <point x="139" y="690"/>
      <point x="142" y="732" type="curve" smooth="yes"/>
      <point x="158" y="940"/>
      <point x="293" y="1080"/>
      <point x="498" y="1080" type="curve" smooth="yes"/>
      <point x="758" y="1080"/>
      <point x="718" y="872"/>
      <point x="870" y="872" type="curve" smooth="yes"/>
      <point x="925" y="872"/>
      <point x="980" y="903"/>
      <point x="997" y="974" type="curve" smooth="yes"/>
      <point x="1006" y="1012"/>
      <point x="1009" y="1020"/>
      <point x="1058" y="1020" type="curve" smooth="yes"/>
      <point x="1176" y="1020" type="line" smooth="yes"/>
      <point x="1225" y="1020"/>
      <point x="1238" y="1019"/>
      <point x="1234" y="971" type="curve" smooth="yes"/>
      <point x="1215" y="767"/>
      <point x="1080" y="626"/>
      <point x="878" y="626" type="curve" smooth="yes"/>
      <point x="584" y="626"/>
      <point x="652" y="834"/>
    </contour>
  </outline>
</glyph>
<glyph name="cent" format="2">
  <advance width="1250"/>
  <unicode hex="00A2"/>
  <outline>
    <contour>
      <point x="762" y="1230" type="curve" smooth="yes"/>
      <point x="822" y="1230" type="line" smooth="yes"/>
      <point x="863" y="1230"/>
      <point x="858" y="1215"/>
      <point x="851" y="1186" type="curve" smooth="yes"/>
      <point x="551" y="-136" type="line" smooth="yes"/>
      <point x="544" y="-163"/>
      <point x="547" y="-170"/>
      <point x="512" y="-170" type="curve" smooth="yes"/>
      <point x="436" y="-170" type="line" smooth="yes"/>
      <point x="403" y="-170"/>
      <point x="392" y="-168"/>
      <point x="399" y="-142" type="curve" smooth="yes"/>
      <point x="702" y="1190" type="line" smooth="yes"/>
      <point x="711" y="1224"/>
      <point x="718" y="1230"/>
    </contour>
    <component base="c"/>
  </outline>
</glyph>
<glyph name="macron" format="2">
  <advance width="1000"/>
  <unicode hex="00AF"/>
  <outline>
    <contour>
      <point x="260" y="1662" type="curve" smooth="yes"/>
      <point x="260" y="1795" type="line" smooth="yes"/>
      <point x="260" y="1814"/>
      <point x="262" y="1822"/>
      <point x="280" y="1822" type="curve" smooth="yes"/>
      <point x="706" y="1822" type="line" smooth="yes"/>
      <point x="731" y="1822"/>
      <point x="740" y="1818"/>
      <point x="740" y="1791" type="curve" smooth="yes"/>
      <point x="740" y="1660" type="line" smooth="yes"/>
      <point x="740" y="1639"/>
      <point x="739" y="1630"/>
      <point x="718" y="1630" type="curve" smooth="yes"/>
      <point x="295" y="1630" type="line" smooth="yes"/>
      <point x="269" y="1630"/>
      <point x="260" y="1634"/>
    </contour>
  </outline>
</glyph>
<glyph name="mu" format="2">
  <advance width="1545"/>
  <unicode hex="00B5"/>
  <outline>
    <contour>
      <point x="422" y="847" type="line"/>
      <point x="422" y="-182" type="line" smooth="yes"/>
      <point x="422" y="-353"/>
      <point x="626" y="-383"/>
      <point x="644" y="-375" type="curve" smooth="yes"/>
      <point x="653" y="-371"/>
      <point x="591" y="-346"/>
      <point x="591" y="-252" type="curve" smooth="yes"/>
      <point x="591" y="-157"/>
      <point x="679" y="-86"/>
      <point x="814" y="-86" type="curve" smooth="yes"/>
      <point x="964" y="-86"/>
      <point x="1037" y="-158"/>
      <point x="1037" y="-280" type="curve" smooth="yes"/>
      <point x="1037" y="-401"/>
      <point x="930" y="-520"/>
      <point x="670" y="-520" type="curve" smooth="yes"/>
      <point x="388" y="-520"/>
      <point x="210" y="-409"/>
      <point x="210" y="-182" type="curve" smooth="yes"/>
      <point x="210" y="847" type="line"/>
    </contour>
    <component base="u"/>
  </outline>
</glyph>
<glyph name="onequarter" format="2">
  <advance width="2000"/>
  <unicode hex="00BC"/>
  <outline>
    <contour>
      <point x="1522" y="1440" type="line"/>
      <point x="1650" y="1440" type="line"/>
      <point x="728" y="-60" type="line"/>
      <point x="590" y="-60" type="line"/>
    </contour>
    <component base="four" xScale="0.6" yScale="0.6" xOffset="1070" yOffset="4"/>
    <component base="one" xScale="0.6" yScale="0.6" xOffset="214" yOffset="632"/>
  </outline>
</glyph>
<glyph name="Thorn" format="2">
  <advance width="1580"/>
  <unicode hex="00DE"/>
  <outline>
    <contour>
      <point x="735" y="554" type="curve" smooth="yes"/>
      <point x="865" y="554" type="line" smooth="yes"/>
      <point x="997" y="554"/>
      <point x="1085" y="616"/>
      <point x="1085" y="764" type="curve" smooth="yes"/>
      <point x="1085" y="912"/>
      <point x="997" y="974"/>
      <point x="865" y="974" type="curve" smooth="yes"/>
      <point x="714" y="974" type="line" smooth="yes"/>
      <point x="688" y="974"/>
      <point x="685" y="962"/>
      <point x="685" y="935" type="curve" smooth="yes"/>
      <point x="685" y="598" type="line" smooth="yes"/>
      <point x="685" y="556"/>
      <point x="693" y="554"/>
    </contour>
    <contour>
      <point x="685" y="288" type="curve" smooth="yes"/>
      <point x="685" y="273" type="line" smooth="yes"/>
      <point x="685" y="218"/>
      <point x="689" y="210"/>
      <point x="743" y="210" type="curve" smooth="yes"/>
      <point x="873" y="210" type="line" smooth="yes"/>
      <point x="904" y="210"/>
      <point x="905" y="201"/>
      <point x="905" y="170" type="curve" smooth="yes"/>
      <point x="905" y="48" type="line" smooth="yes"/>
      <point x="905" y="8"/>
      <point x="903" y="0"/>
      <point x="863" y="0" type="curve" smooth="yes"/>
      <point x="129" y="0" type="line" smooth="yes"/>
      <point x="88" y="0"/>
      <point x="75" y="2"/>
      <point x="75" y="46" type="curve" smooth="yes"/>
      <point x="75" y="182" type="line" smooth="yes"/>
      <point x="75" y="206"/>
      <point x="82" y="210"/>
      <point x="107" y="210" type="curve" smooth="yes"/>
      <point x="249" y="210" type="line" smooth="yes"/>
      <point x="290" y="210"/>
      <point x="295" y="220"/>
      <point x="295" y="258" type="curve" smooth="yes"/>
      <point x="295" y="1264" type="line" smooth="yes"/>
      <point x="295" y="1287"/>
      <point x="287" y="1290"/>
      <point x="263" y="1290" type="curve" smooth="yes"/>
      <point x="100" y="1290" type="line" smooth="yes"/>
      <point x="76" y="1290"/>
      <point x="75" y="1299"/>
      <point x="75" y="1323" type="curve" smooth="yes"/>
      <point x="75" y="1464" type="line" smooth="yes"/>
      <point x="75" y="1495"/>
      <point x="83" y="1500"/>
      <point x="112" y="1500" type="curve" smooth="yes"/>
      <point x="851" y="1500" type="line" smooth="yes"/>
      <point x="892" y="1500"/>
      <point x="905" y="1498"/>
      <point x="905" y="1454" type="curve" smooth="yes"/>
      <point x="905" y="1318" type="line" smooth="yes"/>
      <point x="905" y="1294"/>
      <point x="898" y="1290"/>
      <point x="873" y="1290" type="curve" smooth="yes"/>
      <point x="731" y="1290" type="line" smooth="yes"/>
      <point x="690" y="1290"/>
      <point x="685" y="1280"/>
      <point x="685" y="1242" type="curve" smooth="yes"/>
      <point x="685" y="1222" type="line" smooth="yes"/>
      <point x="685" y="1190"/>
      <point x="691" y="1184"/>
      <point x="722" y="1184" type="curve" smooth="yes"/>
      <point x="885" y="1184" type="line" smooth="yes"/>
      <point x="1307" y="1184"/>
      <point x="1505" y="1054"/>
      <point x="1505" y="764" type="curve" smooth="yes"/>
      <point x="1505" y="474"/>
      <point x="1307" y="344"/>
      <point x="885" y="344" type="curve" smooth="yes"/>
      <point x="749" y="344" type="line" smooth="yes"/>
      <point x="694" y="344"/>
      <point x="685" y="343"/>
    </contour>
  </outline>
</glyph>
<glyph name="eth" format="2">
  <advance width="1340"/>
  <unicode hex="00F0"/>
  <outline>
    <contour>
      <point x="621" y="1612" type="curve" smooth="yes"/>
      <point x="864" y="1508"/>
      <point x="1290" y="1187"/>
      <point x="1290" y="700" type="curve" smooth="yes"/>
      <point x="1290" y="190"/>
      <point x="984" y="-20"/>
      <point x="662" y="-20" type="curve" smooth="yes"/>
      <point x="260" y="-20"/>
      <point x="50" y="190"/>
      <point x="50" y="510" type="curve" smooth="yes"/>
      <point x="50" y="840"/>
      <point x="286" y="1060"/>
      <point x="638" y="1060" type="curve" smooth="yes"/>
      <point x="750" y="1060"/>
      <point x="808" y="1039"/>
      <point x="844" y="1011" type="curve" smooth="yes"/>
      <point x="864" y="995"/>
      <point x="878" y="976"/>
      <point x="886" y="980" type="curve" smooth="yes"/>
      <point x="893" y="984"/>
      <point x="889" y="997"/>
      <point x="887" y="1030" type="curve" smooth="yes"/>
      <point x="872" y="1248"/>
      <point x="708" y="1366"/>
      <point x="535" y="1454" type="curve" smooth="yes"/>
      <point x="519" y="1462"/>
      <point x="510" y="1462"/>
      <point x="518" y="1480" type="curve" smooth="yes"/>
      <point x="593" y="1601" type="line" smooth="yes"/>
      <point x="600" y="1617"/>
      <point x="606" y="1618"/>
    </contour>
    <contour>
      <point x="450" y="510" type="curve" smooth="yes"/>
      <point x="450" y="292"/>
      <point x="484" y="170"/>
      <point x="642" y="170" type="curve" smooth="yes"/>
      <point x="780" y="170"/>
      <point x="890" y="361"/>
      <point x="890" y="650" type="curve" smooth="yes"/>
      <point x="890" y="810"/>
      <point x="808" y="882"/>
      <point x="682" y="882" type="curve" smooth="yes"/>
      <point x="524" y="882"/>
      <point x="450" y="738"/>
    </contour>
    <component base="hyphen" xScale="0.749531" yScale="0.749531" xyScale="0.661969" yxScale="-0.661969" xOffset="1018" yOffset="517"/>
  </outline>
</glyph>
<glyph name="divide" format="2">
  <advance width="1119"/>
  <unicode hex="00F7"/>
  <outline>
    <contour>
      <point x="135" y="886" type="curve" smooth="yes"/>
      <point x="994" y="886" type="line" smooth="yes"/>
      <point x="1014" y="886"/>
      <point x="1020" y="880"/>
      <point x="1020" y="858" type="curve" smooth="yes"/>
      <point x="1020" y="692" type="line" smooth="yes"/>
      <point x="1020" y="677"/>
      <point x="1012" y="674"/>
      <point x="996" y="674" type="curve" smooth="yes"/>
      <point x="132" y="674" type="line" smooth="yes"/>
      <point x="106" y="674"/>
      <point x="100" y="679"/>
      <point x="100" y="704" type="curve" smooth="yes"/>
      <point x="100" y="846" type="line" smooth="yes"/>
      <point x="100" y="879"/>
      <point x="103" y="886"/>
    </contour>
    <contour>
      <point x="379" y="410" type="curve" smooth="yes"/>
      <point x="379" y="509"/>
      <point x="463" y="590"/>
      <point x="562" y="590" type="curve" smooth="yes"/>
      <point x="661" y="590"/>
      <point x="740" y="509"/>
      <point x="740" y="410" type="curve" smooth="yes"/>
      <point x="740" y="311"/>
      <point x="661" y="230"/>
      <point x="562" y="230" type="curve" smooth="yes"/>
      <point x="463" y="230"/>
      <point x="379" y="311"/>
    </contour>
    <contour>
      <point x="379" y="1160" type="curve" smooth="yes"/>
      <point x="379" y="1259"/>
      <point x="463" y="1340"/>
      <point x="562" y="1340" type="curve" smooth="yes"/>
      <point x="661" y="1340"/>
      <point x="740" y="1259"/>
      <point x="740" y="1160" type="curve" smooth="yes"/>
      <point x="740" y="1061"/>
      <point x="661" y="980"/>
      <point x="562" y="980" type="curve" smooth="yes"/>
      <point x="463" y="980"/>
      <point x="379" y="1061"/>
    </contour>
  </outline>
</glyph>
<glyph name="dotlessi" format="2">
  <advance width="865"/>
  <unicode hex="0131"/>
  <anchor x="439" y="1040" name="Anchor-0"/>
  <anchor x="437" y="0" name="Anchor-2"/>
  <outline>
    <contour>
      <point x="216" y="830" type="curve" smooth="yes"/>
      <point x="81" y="830" type="line" smooth="yes"/>
      <point x="63" y="830"/>
      <point x="55" y="833"/>
      <point x="55" y="850" type="curve" smooth="yes"/>
      <point x="55" y="1012" type="line" smooth="yes"/>
      <point x="55" y="1035"/>
      <point x="63" y="1040"/>
      <point x="85" y="1040" type="curve" smooth="yes"/>
      <point x="630" y="1040" type="line" smooth="yes"/>
      <point x="649" y="1040"/>
      <point x="655" y="1039"/>
      <point x="655" y="1020" type="curve" smooth="yes"/>
      <point x="655" y="235" type="line" smooth="yes"/>
      <point x="655" y="215"/>
      <point x="656" y="210"/>
      <point x="676" y="210" type="curve" smooth="yes"/>
      <point x="807" y="210" type="line" smooth="yes"/>
      <point x="830" y="210"/>
      <point x="835" y="209"/>
      <point x="835" y="186" type="curve" smooth="yes"/>
      <point x="835" y="31" type="line" smooth="yes"/>
      <point x="835" y="2"/>
      <point x="827" y="0"/>
      <point x="797" y="0" type="curve" smooth="yes"/>
      <point x="79" y="0" type="line" smooth="yes"/>
      <point x="59" y="0"/>
      <point x="55" y="4"/>
      <point x="55" y="25" type="curve" smooth="yes"/>
      <point x="55" y="181" type="line" smooth="yes"/>
      <point x="55" y="206"/>
      <point x="58" y="210"/>
      <point x="82" y="210" type="curve" smooth="yes"/>
      <point x="209" y="210" type="line" smooth="yes"/>
      <point x="230" y="210"/>
      <point x="235" y="211"/>
      <point x="235" y="232" type="curve" smooth="yes"/>
      <point x="235" y="804" type="line" smooth="yes"/>
      <point x="235" y="821"/>
      <point x="232" y="830"/>
    </contour>
  </outline>
</glyph>
<glyph name="lslash" format="2">
  <advance width="870"/>
  <unicode hex="0142"/>
  <outline>
    <contour>
      <point x="60" y="810" type="curve" smooth="yes"/>
      <point x="790" y="1145" type="line" smooth="yes"/>
      <point x="812" y="1155"/>
      <point x="814" y="1145"/>
      <point x="814" y="1108" type="curve" smooth="yes"/>
      <point x="814" y="998" type="line" smooth="yes"/>
      <point x="814" y="961"/>
      <point x="810" y="960"/>
      <point x="788" y="946" type="curve" smooth="yes"/>
      <point x="68" y="617" type="line" smooth="yes"/>
      <point x="48" y="608"/>
      <point x="44" y="615"/>
      <point x="44" y="651" type="curve" smooth="yes"/>
      <point x="44" y="775" type="line" smooth="yes"/>
      <point x="44" y="799"/>
      <point x="46" y="801"/>
    </contour>
    <component base="l"/>
  </outline>
</glyph>
<glyph name="eng" format="2">
  <advance width="1555"/>
  <unicode hex="014B"/>
  <outline>
    <contour>
      <point x="189" y="830" type="curve" smooth="yes"/>
      <point x="105" y="830" type="line" smooth="yes"/>
      <point x="60" y="830"/>
      <point x="55" y="837"/>
      <point x="55" y="881" type="curve" smooth="yes"/>
      <point x="55" y="987" type="line" smooth="yes"/>
      <point x="55" y="1033"/>
      <point x="80" y="1040"/>
      <point x="121" y="1040" type="curve" smooth="yes"/>
      <point x="559" y="1040" type="line" smooth="yes"/>
      <point x="590" y="1040"/>
      <point x="615" y="1032"/>
      <point x="615" y="990" type="curve" smooth="yes"/>
      <point x="615" y="954" type="line" smooth="yes"/>
      <point x="615" y="905"/>
      <point x="628" y="890"/>
      <point x="656" y="922" type="curve" smooth="yes"/>
      <point x="728" y="1004"/>
      <point x="812" y="1080"/>
      <point x="981" y="1080" type="curve" smooth="yes"/>
      <point x="1215" y="1080"/>
      <point x="1345" y="952"/>
      <point x="1345" y="738" type="curve" smooth="yes"/>
      <point x="1345" y="-64" type="line" smooth="yes"/>
      <point x="1345" y="-386"/>
      <point x="1110" y="-520"/>
      <point x="810" y="-520" type="curve" smooth="yes"/>
      <point x="568" y="-520"/>
      <point x="374" y="-422"/>
      <point x="374" y="-228" type="curve" smooth="yes"/>
      <point x="374" y="-108"/>
      <point x="474" y="-16"/>
      <point x="598" y="-16" type="curve" smooth="yes"/>
      <point x="742" y="-16"/>
      <point x="838" y="-102"/>
      <point x="838" y="-192" type="curve" smooth="yes"/>
      <point x="838" y="-306"/>
      <point x="758" y="-302"/>
      <point x="758" y="-324" type="curve" smooth="yes"/>
      <point x="758" y="-340"/>
      <point x="770" y="-350"/>
      <point x="806" y="-350" type="curve" smooth="yes"/>
      <point x="1006" y="-350"/>
      <point x="925" y="-134"/>
      <point x="925" y="140" type="curve" smooth="yes"/>
      <point x="925" y="706" type="line" smooth="yes"/>
      <point x="925" y="814"/>
      <point x="897" y="846"/>
      <point x="835" y="846" type="curve" smooth="yes"/>
      <point x="759" y="846"/>
      <point x="655" y="772"/>
      <point x="655" y="566" type="curve" smooth="yes"/>
      <point x="655" y="249" type="line" smooth="yes"/>
      <point x="655" y="219"/>
      <point x="659" y="210"/>
      <point x="691" y="210" type="curve" smooth="yes"/>
      <point x="715" y="210" type="line" smooth="yes"/>
      <point x="746" y="210"/>
      <point x="755" y="206"/>
      <point x="755" y="173" type="curve" smooth="yes"/>
      <point x="755" y="37" type="line" smooth="yes"/>
      <point x="755" y="2"/>
      <point x="737" y="0"/>
      <point x="705" y="0" type="curve" smooth="yes"/>
      <point x="87" y="0" type="line" smooth="yes"/>
      <point x="56" y="0"/>
      <point x="55" y="9"/>
      <point x="55" y="41" type="curve" smooth="yes"/>
      <point x="55" y="168" type="line" smooth="yes"/>
      <point x="55" y="204"/>
      <point x="60" y="210"/>
      <point x="95" y="210" type="curve" smooth="yes"/>
      <point x="185" y="210" type="line" smooth="yes"/>
      <point x="226" y="210"/>
      <point x="235" y="211"/>
      <point x="235" y="252" type="curve" smooth="yes"/>
      <point x="235" y="784" type="line" smooth="yes"/>
      <point x="235" y="825"/>
      <point x="229" y="830"/>
    </contour>
  </outline>
</glyph>
<glyph name="uni030B" format="2">
  <advance width="0"/>
  <unicode hex="030B"/>
  <anchor x="394" y="1500" name="_Anchor-0"/>
  <outline>
    <contour>
      <point x="774" y="1697" type="curve" smooth="yes"/>
      <point x="639" y="1787" type="line" smooth="yes"/>
      <point x="623" y="1798"/>
      <point x="622" y="1807"/>
      <point x="632" y="1822" type="curve" smooth="yes"/>
      <point x="801" y="2154" type="line" smooth="yes"/>
      <point x="842" y="2234"/>
      <point x="989" y="2288"/>
      <point x="1088" y="2201" type="curve" smooth="yes"/>
      <point x="1205" y="2099"/>
      <point x="1174" y="2006"/>
      <point x="1096" y="1941" type="curve" smooth="yes"/>
      <point x="804" y="1698" type="line" smooth="yes"/>
      <point x="791" y="1686"/>
      <point x="788" y="1687"/>
    </contour>
    <contour>
      <point x="144" y="1697" type="curve" smooth="yes"/>
      <point x="9" y="1787" type="line" smooth="yes"/>
      <point x="-7" y="1798"/>
      <point x="-8" y="1807"/>
      <point x="2" y="1822" type="curve" smooth="yes"/>
      <point x="171" y="2154" type="line" smooth="yes"/>
      <point x="212" y="2234"/>
      <point x="372" y="2296"/>
      <point x="468" y="2206" type="curve" smooth="yes"/>
      <point x="577" y="2105"/>
      <point x="544" y="2006"/>
      <point x="466" y="1941" type="curve" smooth="yes"/>
      <point x="174" y="1698" type="line" smooth="yes"/>
      <point x="161" y="1686"/>
      <point x="158" y="1687"/>
    </contour>
  </outline>
</glyph>
<glyph name="uni030C" format="2">
  <advance width="0"/>
  <unicode hex="030C"/>
  <anchor x="499" y="1500" name="_Anchor-0"/>
  <outline>
    <contour>
      <point x="358" y="1657" type="curve" smooth="yes"/>
      <point x="166" y="1919" type="line" smooth="yes"/>
      <point x="156" y="1929"/>
      <point x="163" y="1938"/>
      <point x="174" y="1949" type="curve" smooth="yes"/>
      <point x="248" y="2023" type="line" smooth="yes"/>
      <point x="263" y="2038"/>
      <point x="263" y="2036"/>
      <point x="280" y="2024" type="curve" smooth="yes"/>
      <point x="475" y="1879" type="line" smooth="yes"/>
      <point x="493" y="1866"/>
      <point x="507" y="1865"/>
      <point x="525" y="1878" type="curve" smooth="yes"/>
      <point x="722" y="2025" type="line" smooth="yes"/>
      <point x="737" y="2036"/>
      <point x="745" y="2032"/>
      <point x="758" y="2019" type="curve" smooth="yes"/>
      <point x="827" y="1949" type="line" smooth="yes"/>
      <point x="842" y="1934"/>
      <point x="842" y="1932"/>
      <point x="830" y="1915" type="curve" smooth="yes"/>
      <point x="642" y="1657" type="line" smooth="yes"/>
      <point x="631" y="1641"/>
      <point x="618" y="1640"/>
      <point x="589" y="1640" type="curve" smooth="yes"/>
      <point x="404" y="1640" type="line" smooth="yes"/>
      <point x="378" y="1640"/>
      <point x="368" y="1643"/>
    </contour>
  </outline>
</glyph>
<glyph name="uni0311" format="2">
  <advance width="0"/>
  <unicode hex="0311"/>
  <anchor x="499" y="1500" name="_Anchor-0"/>
  <outline>
    <contour>
      <point x="502" y="2008" type="curve" smooth="yes"/>
      <point x="704" y="2008"/>
      <point x="777" y="1883"/>
      <point x="780" y="1669" type="curve" smooth="yes"/>
      <point x="780" y="1652"/>
      <point x="774" y="1650"/>
      <point x="757" y="1650" type="curve" smooth="yes"/>
      <point x="638" y="1650" type="line" smooth="yes"/>
      <point x="624" y="1650"/>
      <point x="622" y="1653"/>
      <point x="620" y="1666" type="curve" smooth="yes"/>
      <point x="613" y="1706"/>
      <point x="599" y="1748"/>
      <point x="502" y="1748" type="curve" smooth="yes"/>
      <point x="410" y="1748"/>
      <point x="395" y="1710"/>
      <point x="383" y="1679" type="curve" smooth="yes"/>
      <point x="376" y="1661"/>
      <point x="377" y="1650"/>
      <point x="353" y="1650" type="curve" smooth="yes"/>
      <point x="241" y="1650" type="line" smooth="yes"/>
      <point x="220" y="1650"/>
      <point x="220" y="1654"/>
      <point x="221" y="1674" type="curve" smooth="yes"/>
      <point x="226" y="1884"/>
      <point x="303" y="2008"/>
    </contour>
  </outline>
</glyph>
<glyph name="uni0326" format="2">
  <unicode hex="0326"/>
  <anchor x="496" y="0" name="_Anchor-2"/>
  <outline>
    <contour>
      <point x="280.2" y="-350.6" type="curve" smooth="yes"/>
      <point x="280.2" y="-233.8"/>
      <point x="382.6" y="-160.2"/>
      <point x="491.40000000000003" y="-160.2" type="curve" smooth="yes"/>
      <point x="625.8" y="-160.2"/>
      <point x="715.4000000000001" y="-249.0"/>
      <point x="715.4000000000001" y="-421.8" type="curve" smooth="yes"/>
      <point x="715.4000000000001" y="-645.8"/>
      <point x="485.8" y="-801.0"/>
      <point x="338.6" y="-820.2" type="curve" smooth="yes"/>
      <point x="315.4" y="-823.4000000000001"/>
      <point x="309.0" y="-819.4000000000001"/>
      <point x="309.0" y="-793.8" type="curve" smooth="yes"/>
      <point x="309.0" y="-698.6" type="line" smooth="yes"/>
      <point x="309.0" y="-682.6"/>
      <point x="315.4" y="-679.4"/>
      <point x="329.0" y="-677.8" type="curve" smooth="yes"/>
      <point x="425.0" y="-668.2"/>
      <point x="521.8" y="-589.8"/>
      <point x="554.6" y="-534.6" type="curve" smooth="yes"/>
      <point x="558.6" y="-528.2"/>
      <point x="553.0" y="-523.4"/>
      <point x="543.4000000000001" y="-527.4" type="curve" smooth="yes"/>
      <point x="525.0" y="-535.4"/>
      <point x="496.2" y="-541.0"/>
      <point x="461.0" y="-541.0" type="curve" smooth="yes"/>
      <point x="352.20000000000005" y="-541.0"/>
      <point x="280.2" y="-467.4"/>
    </contour>
  </outline>
</glyph>
<glyph name="uni03A9" format="2">
  <advance width="1719"/>
  <unicode hex="03A9"/>
  <outline>
    <contour>
      <point x="1431" y="400" type="curve"/>
      <point x="1644" y="400" type="line"/>
      <point x="1644" y="0" type="line"/>
      <point x="945" y="0" type="line"/>
      <point x="945" y="506" type="line"/>
      <point x="1113" y="576"/>
      <point x="1165" y="687"/>
      <point x="1165" y="900" type="curve" smooth="yes"/>
      <point x="1165" y="1163"/>
      <point x="1052" y="1313"/>
      <point x="854" y="1313" type="curve" smooth="yes"/>
      <point x="656" y="1313"/>
      <point x="544" y="1163"/>
      <point x="544" y="900" type="curve" smooth="yes"/>
      <point x="544" y="687"/>
      <point x="595" y="567"/>
      <point x="763" y="497" type="curve"/>
      <point x="763" y="0" type="line"/>
      <point x="75" y="0" type="line"/>
      <point x="75" y="400" type="line"/>
      <point x="278" y="400" type="line"/>
      <point x="278" y="306"/>
      <point x="315" y="163"/>
      <point x="418" y="163" type="curve" smooth="yes"/>
      <point x="554" y="163" type="line"/>
      <point x="554" y="337.026" type="line"/>
      <point x="360.632" y="424.227"/>
      <point x="115" y="626.116"/>
      <point x="115" y="900" type="curve" smooth="yes"/>
      <point x="115" y="1326"/>
      <point x="407" y="1520"/>
      <point x="854" y="1520" type="curve" smooth="yes"/>
      <point x="1301" y="1520"/>
      <point x="1594" y="1326"/>
      <point x="1594" y="900" type="curve" smooth="yes"/>
      <point x="1594" y="626.116"/>
      <point x="1348.37" y="430.579"/>
      <point x="1155" y="345.41" type="curve"/>
      <point x="1155" y="163" type="line"/>
      <point x="1291" y="163" type="line" smooth="yes"/>
      <point x="1394" y="163"/>
      <point x="1431" y="306"/>
    </contour>
  </outline>
</glyph>
<glyph name="pi" format="2">
  <advance width="1560.5165448015046"/>
  <unicode hex="03C0"/>
  <outline>
    <contour>
      <point x="1452.0046724167328" y="1000" type="curve" smooth="yes"/>
      <point x="1452.0046724167328" y="663" type="line" smooth="yes"/>
      <point x="1452.0046724167328" y="642.015"/>
      <point x="1453.7246724167328" y="640.0"/>
      <point x="1432.0046724167328" y="640" type="curve" smooth="yes"/>
      <point x="1274.0046724167328" y="640" type="line" smooth="yes"/>
      <point x="1239.295672416733" y="640.0"/>
      <point x="1242.0046724167328" y="636.757"/>
      <point x="1242.0046724167328" y="603" type="curve" smooth="yes"/>
      <point x="1242.0046724167328" y="267" type="line" smooth="yes"/>
      <point x="1242.0046724167328" y="227.0"/>
      <point x="1257.0046724167328" y="205"/>
      <point x="1285.0046724167328" y="205" type="curve" smooth="yes"/>
      <point x="1316.6136724167259" y="205.0"/>
      <point x="1332.8036724167328" y="213.48"/>
      <point x="1362.0046724167328" y="261.577" type="curve" smooth="yes"/>
      <point x="1372.8846724167329" y="279.501"/>
      <point x="1374.1863054358814" y="288.5647517987677"/>
      <point x="1394.0046724167328" y="275.461" type="curve" smooth="yes"/>
      <point x="1472.0046724167328" y="223.888" type="line" smooth="yes"/>
      <point x="1491.0180867920405" y="211.3164766720746"/>
      <point x="1494.8146724167327" y="214.173"/>
      <point x="1486.0046724167328" y="191.709" type="curve" smooth="yes"/>
      <point x="1435.6346724167329" y="63.2807"/>
      <point x="1327.3866724167328" y="-20.0"/>
      <point x="1136.0046724167328" y="-20" type="curve" smooth="yes"/>
      <point x="952.0046724167327" y="-20.0"/>
      <point x="841.0046724167327" y="28.0"/>
      <point x="841.0046724167327" y="206" type="curve" smooth="yes"/>
      <point x="841.0046724167327" y="615" type="line" smooth="yes"/>
      <point x="841.0046724167327" y="637.358"/>
      <point x="843.1876724167327" y="640.0"/>
      <point x="820.0046724167327" y="640" type="curve" smooth="yes"/>
      <point x="750.0046724167327" y="640" type="line" smooth="yes"/>
      <point x="725.5636724167326" y="640.0"/>
      <point x="726.0046724167327" y="639.461"/>
      <point x="726.0046724167327" y="615" type="curve" smooth="yes"/>
      <point x="726.0046724167327" y="386" type="line" smooth="yes"/>
      <point x="726.0046724167327" y="169.99999999999983"/>
      <point x="615.0046724167328" y="-20.0"/>
      <point x="398.0046724167327" y="-20" type="curve" smooth="yes"/>
      <point x="286.0046724167327" y="-20.0"/>
      <point x="160.00467241673272" y="36.00000000002467"/>
      <point x="160.00467241673272" y="176" type="curve" smooth="yes"/>
      <point x="160.00467241673272" y="463.0"/>
      <point x="414.0046724167327" y="253.99999999999966"/>
      <point x="414.0046724167327" y="499" type="curve" smooth="yes"/>
      <point x="414.0046724167327" y="616" type="line" smooth="yes"/>
      <point x="414.0046724167327" y="637.364"/>
      <point x="416.1676724167327" y="640.0"/>
      <point x="394.0046724167327" y="640" type="curve" smooth="yes"/>
      <point x="314.0046724167327" y="640" type="line" smooth="yes"/>
      <point x="292.0896724167327" y="640.0"/>
      <point x="295.0046724167327" y="636.136"/>
      <point x="295.0046724167327" y="615" type="curve" smooth="yes"/>
      <point x="295.0046724167327" y="519" type="line" smooth="yes"/>
      <point x="295.0046724167327" y="492.672"/>
      <point x="297.2626724167327" y="490.0"/>
      <point x="270.0046724167327" y="490" type="curve" smooth="yes"/>
      <point x="106.0046724167327" y="490" type="line" smooth="yes"/>
      <point x="81.06077241673272" y="490.0"/>
      <point x="82.0046724167327" y="491.09799999999996"/>
      <point x="82.0046724167327" y="516" type="curve" smooth="yes"/>
      <point x="82.0046724167327" y="988" type="line" smooth="yes"/>
      <point x="82.0046724167327" y="1020.926"/>
      <point x="83.09287241673292" y="1020.0"/>
      <point x="116.0046724167327" y="1020" type="curve" smooth="yes"/>
      <point x="1430.0046724167328" y="1020" type="line" smooth="yes"/>
      <point x="1450.8246724167327" y="1020.0"/>
      <point x="1452.0046724167328" y="1021.013"/>
    </contour>
  </outline>
</glyph>
<glyph name="uni1E9E" format="2">
  <advance width="2172"/>
  <unicode hex="1E9E"/>
  <outline>
    <contour>
      <point x="1185" y="421" type="line"/>
      <point x="1185" y="301"/>
      <point x="1317" y="187"/>
      <point x="1463" y="187" type="curve" smooth="yes"/>
      <point x="1611" y="187"/>
      <point x="1692" y="292"/>
      <point x="1692" y="410" type="curve" smooth="yes"/>
      <point x="1692" y="558"/>
      <point x="1595" y="665"/>
      <point x="1227" y="735" type="curve"/>
      <point x="1227" y="848" type="line"/>
      <point x="1809" y="848"/>
      <point x="2102" y="601"/>
      <point x="2102" y="380" type="curve" smooth="yes"/>
      <point x="2102" y="120"/>
      <point x="1784" y="-30"/>
      <point x="1502" y="-30" type="curve" smooth="yes"/>
      <point x="1218" y="-30"/>
      <point x="990" y="66"/>
      <point x="990" y="261" type="curve" smooth="yes"/>
      <point x="990" y="393"/>
      <point x="1091" y="492"/>
      <point x="1211" y="492" type="curve" smooth="yes"/>
      <point x="1322" y="492"/>
      <point x="1419" y="402"/>
      <point x="1419" y="280" type="curve" smooth="yes"/>
      <point x="1419" y="166"/>
      <point x="1315" y="70"/>
      <point x="1206" y="70" type="curve" smooth="yes"/>
      <point x="1145" y="70"/>
      <point x="992" y="211"/>
      <point x="992" y="261" type="curve"/>
    </contour>
    <contour>
      <point x="40" y="210" type="line"/>
      <point x="801" y="210" type="line"/>
      <point x="801" y="0" type="line"/>
      <point x="40" y="0" type="line"/>
    </contour>
    <contour>
      <point x="1627" y="780" type="line"/>
      <point x="1586" y="791"/>
      <point x="1294" y="838"/>
      <point x="1227" y="848" type="curve"/>
      <point x="1540" y="1198" type="line"/>
      <point x="1470" y="1263"/>
      <point x="1375" y="1307"/>
      <point x="1257" y="1307" type="curve" smooth="yes"/>
      <point x="929" y="1307"/>
      <point x="621" y="1185"/>
      <point x="621" y="861" type="curve" smooth="yes"/>
      <point x="621" y="0" type="line"/>
      <point x="221" y="0" type="line"/>
      <point x="221" y="882" type="line" smooth="yes"/>
      <point x="221" y="1288"/>
      <point x="751" y="1520"/>
      <point x="1287" y="1520" type="curve" smooth="yes"/>
      <point x="1704" y="1520"/>
      <point x="1982" y="1348"/>
      <point x="2043" y="1282" type="curve"/>
    </contour>
  </outline>
</glyph>
<glyph name="quotesinglbase" format="2">
  <advance width="704.0"/>
  <unicode hex="201A"/>
  <outline>
    <contour>
      <point x="80.00000000000004" y="196.99999999999997" type="curve" smooth="yes"/>
      <point x="80.00000000000009" y="343.0"/>
      <point x="208.0000000000001" y="434.99999999999994"/>
      <point x="344.0000000000001" y="434.99999999999994" type="curve" smooth="yes"/>
      <point x="512.0000000000001" y="434.9999999999999"/>
      <point x="624.0000000000001" y="323.99999999999983"/>
      <point x="624.0" y="107.99999999999984" type="curve" smooth="yes"/>
      <point x="624.0" y="-172.00000000000014"/>
      <point x="336.9999999999999" y="-366.00000000000006"/>
      <point x="152.99999999999991" y="-390.00000000000006" type="curve" smooth="yes"/>
      <point x="123.9999999999999" y="-394.00000000000006"/>
      <point x="115.9999999999999" y="-389.0"/>
      <point x="115.99999999999991" y="-357.0" type="curve" smooth="yes"/>
      <point x="115.99999999999994" y="-238.00000000000003" type="line" smooth="yes"/>
      <point x="115.99999999999994" y="-218.00000000000003"/>
      <point x="123.99999999999994" y="-214.00000000000003"/>
      <point x="140.99999999999994" y="-212.00000000000003" type="curve" smooth="yes"/>
      <point x="260.99999999999994" y="-200.00000000000006"/>
      <point x="382.0" y="-102.0000000000001"/>
      <point x="423.0" y="-33.00000000000011" type="curve" smooth="yes"/>
      <point x="428.0" y="-25.000000000000103"/>
      <point x="421.0" y="-19.000000000000103"/>
      <point x="409.0" y="-24.0000000000001" type="curve" smooth="yes"/>
      <point x="386.0" y="-34.00000000000009"/>
      <point x="350.0" y="-41.000000000000085"/>
      <point x="306.0" y="-41.00000000000008" type="curve" smooth="yes"/>
      <point x="170.0" y="-41.00000000000004"/>
      <point x="80.00000000000001" y="50.99999999999998"/>
    </contour>
  </outline>
</glyph>
<glyph name="quotedblright" format="2">
  <advance width="1324"/>
  <unicode hex="201D"/>
  <outline>
    <contour>
      <point x="79.99999999999982" y="1502.0000000000002" type="curve" smooth="yes"/>
      <point x="79.99999999999986" y="1648.0000000000002"/>
      <point x="207.9999999999999" y="1740.0000000000002"/>
      <point x="343.9999999999999" y="1740.0000000000002" type="curve" smooth="yes"/>
      <point x="511.9999999999999" y="1740.0"/>
      <point x="623.9999999999999" y="1629.0"/>
      <point x="623.9999999999998" y="1413.0" type="curve" smooth="yes"/>
      <point x="623.9999999999998" y="1133.0"/>
      <point x="336.99999999999966" y="939.0000000000002"/>
      <point x="152.9999999999997" y="915.0000000000002" type="curve" smooth="yes"/>
      <point x="123.99999999999967" y="911.0000000000002"/>
      <point x="115.99999999999967" y="916.0000000000002"/>
      <point x="115.99999999999969" y="948.0000000000002" type="curve" smooth="yes"/>
      <point x="115.99999999999972" y="1067.0000000000002" type="line" smooth="yes"/>
      <point x="115.99999999999972" y="1087.0000000000002"/>
      <point x="123.99999999999972" y="1091.0000000000002"/>
      <point x="140.99999999999972" y="1093.0000000000002" type="curve" smooth="yes"/>
      <point x="260.9999999999997" y="1105.0000000000002"/>
      <point x="381.9999999999998" y="1203.0000000000002"/>
      <point x="422.9999999999998" y="1272.0000000000002" type="curve" smooth="yes"/>
      <point x="427.9999999999998" y="1280.0000000000002"/>
      <point x="420.9999999999998" y="1286.0000000000002"/>
      <point x="408.9999999999998" y="1281.0000000000002" type="curve" smooth="yes"/>
      <point x="385.9999999999998" y="1271.0000000000002"/>
      <point x="349.9999999999998" y="1264.0000000000002"/>
      <point x="305.9999999999998" y="1264.0000000000002" type="curve" smooth="yes"/>
      <point x="169.99999999999977" y="1264.0000000000002"/>
      <point x="79.99999999999979" y="1356.0000000000002"/>
    </contour>
    <contour>
      <point x="699.9999999999999" y="1502.0" type="curve" smooth="yes"/>
      <point x="700.0" y="1648.0"/>
      <point x="828.0" y="1740.0"/>
      <point x="964.0" y="1740.0" type="curve" smooth="yes"/>
      <point x="1132.0" y="1740.0"/>
      <point x="1244.0" y="1628.9999999999998"/>
      <point x="1244.0" y="1412.9999999999998" type="curve" smooth="yes"/>
      <point x="1244.0" y="1132.9999999999998"/>
      <point x="956.9999999999998" y="939.0"/>
      <point x="772.9999999999998" y="915.0" type="curve" smooth="yes"/>
      <point x="743.9999999999998" y="911.0"/>
      <point x="735.9999999999998" y="916.0"/>
      <point x="735.9999999999998" y="948.0" type="curve" smooth="yes"/>
      <point x="735.9999999999998" y="1067.0" type="line" smooth="yes"/>
      <point x="735.9999999999998" y="1087.0"/>
      <point x="743.9999999999998" y="1091.0"/>
      <point x="760.9999999999998" y="1093.0" type="curve" smooth="yes"/>
      <point x="880.9999999999998" y="1105.0"/>
      <point x="1001.9999999999999" y="1203.0"/>
      <point x="1043.0" y="1272.0" type="curve" smooth="yes"/>
      <point x="1048.0" y="1280.0"/>
      <point x="1041.0" y="1286.0"/>
      <point x="1029.0" y="1281.0" type="curve" smooth="yes"/>
      <point x="1005.9999999999999" y="1271.0"/>
      <point x="969.9999999999999" y="1264.0"/>
      <point x="925.9999999999999" y="1264.0" type="curve" smooth="yes"/>
      <point x="789.9999999999999" y="1264.0"/>
      <point x="699.9999999999999" y="1356.0"/>
    </contour>
  </outline>
</glyph>
<glyph name="uni2031" format="2">
  <advance width="4600"/>
  <unicode hex="2031"/>
  <outline>
    <contour>
      <point x="3530" y="420" type="curve" smooth="yes"/>
      <point x="3530" y="706"/>
      <point x="3734" y="870"/>
      <point x="4030" y="870" type="curve" smooth="yes"/>
      <point x="4326" y="870"/>
      <point x="4530" y="706"/>
      <point x="4530" y="420" type="curve" smooth="yes"/>
      <point x="4530" y="134"/>
      <point x="4286" y="-30"/>
      <point x="4030" y="-30" type="curve" smooth="yes"/>
      <point x="3734" y="-30"/>
      <point x="3530" y="134"/>
    </contour>
    <contour>
      <point x="3950" y="420" type="curve" smooth="yes"/>
      <point x="3950" y="216"/>
      <point x="3962" y="150"/>
      <point x="4030" y="150" type="curve" smooth="yes"/>
      <point x="4098" y="150"/>
      <point x="4110" y="216"/>
      <point x="4110" y="420" type="curve" smooth="yes"/>
      <point x="4110" y="624"/>
      <point x="4098" y="690"/>
      <point x="4030" y="690" type="curve" smooth="yes"/>
      <point x="3962" y="690"/>
      <point x="3950" y="624"/>
    </contour>
    <contour>
      <point x="2430" y="420" type="curve" smooth="yes"/>
      <point x="2430" y="706"/>
      <point x="2634" y="870"/>
      <point x="2930" y="870" type="curve" smooth="yes"/>
      <point x="3226" y="870"/>
      <point x="3430" y="706"/>
      <point x="3430" y="420" type="curve" smooth="yes"/>
      <point x="3430" y="134"/>
      <point x="3186" y="-30"/>
      <point x="2930" y="-30" type="curve" smooth="yes"/>
      <point x="2634" y="-30"/>
      <point x="2430" y="134"/>
    </contour>
    <contour>
      <point x="2850" y="420" type="curve" smooth="yes"/>
      <point x="2850" y="216"/>
      <point x="2862" y="150"/>
      <point x="2930" y="150" type="curve" smooth="yes"/>
      <point x="2998" y="150"/>
      <point x="3010" y="216"/>
      <point x="3010" y="420" type="curve" smooth="yes"/>
      <point x="3010" y="624"/>
      <point x="2998" y="690"/>
      <point x="2930" y="690" type="curve" smooth="yes"/>
      <point x="2862" y="690"/>
      <point x="2850" y="624"/>
    </contour>
    <contour>
      <point x="70" y="1080" type="curve" smooth="yes"/>
      <point x="70" y="1366"/>
      <point x="274" y="1530"/>
      <point x="570" y="1530" type="curve" smooth="yes"/>
      <point x="866" y="1530"/>
      <point x="1070" y="1366"/>
      <point x="1070" y="1080" type="curve" smooth="yes"/>
      <point x="1070" y="794"/>
      <point x="826" y="630"/>
      <point x="570" y="630" type="curve" smooth="yes"/>
      <point x="274" y="630"/>
      <point x="70" y="794"/>
    </contour>
    <contour>
      <point x="490" y="1080" type="curve" smooth="yes"/>
      <point x="490" y="876"/>
      <point x="512" y="810"/>
      <point x="570" y="810" type="curve" smooth="yes"/>
      <point x="638" y="810"/>
      <point x="650" y="876"/>
      <point x="650" y="1080" type="curve" smooth="yes"/>
      <point x="650" y="1284"/>
      <point x="638" y="1350"/>
      <point x="570" y="1350" type="curve" smooth="yes"/>
      <point x="512" y="1350"/>
      <point x="490" y="1284"/>
    </contour>
    <contour>
      <point x="1661" y="1500" type="curve" smooth="yes"/>
      <point x="1743" y="1500" type="line" smooth="yes"/>
      <point x="1807" y="1500"/>
      <point x="1822" y="1488"/>
      <point x="1796" y="1450" type="curve" smooth="yes"/>
      <point x="824" y="24" type="line" smooth="yes"/>
      <point x="808" y="0"/>
      <point x="779" y="0"/>
      <point x="737" y="0" type="curve" smooth="yes"/>
      <point x="677" y="0" type="line" smooth="yes"/>
      <point x="597" y="0"/>
      <point x="584" y="20"/>
      <point x="610" y="58" type="curve" smooth="yes"/>
      <point x="1576" y="1462" type="line" smooth="yes"/>
      <point x="1594" y="1488"/>
      <point x="1614" y="1500"/>
    </contour>
    <contour>
      <point x="1330" y="420" type="curve" smooth="yes"/>
      <point x="1330" y="706"/>
      <point x="1534" y="870"/>
      <point x="1830" y="870" type="curve" smooth="yes"/>
      <point x="2126" y="870"/>
      <point x="2330" y="706"/>
      <point x="2330" y="420" type="curve" smooth="yes"/>
      <point x="2330" y="134"/>
      <point x="2086" y="-30"/>
      <point x="1830" y="-30" type="curve" smooth="yes"/>
      <point x="1534" y="-30"/>
      <point x="1330" y="134"/>
    </contour>
    <contour>
      <point x="1750" y="420" type="curve" smooth="yes"/>
      <point x="1750" y="216"/>
      <point x="1762" y="150"/>
      <point x="1830" y="150" type="curve" smooth="yes"/>
      <point x="1898" y="150"/>
      <point x="1910" y="216"/>
      <point x="1910" y="420" type="curve" smooth="yes"/>
      <point x="1910" y="624"/>
      <point x="1898" y="690"/>
      <point x="1830" y="690" type="curve" smooth="yes"/>
      <point x="1762" y="690"/>
      <point x="1750" y="624"/>
    </contour>
  </outline>
</glyph>
<glyph name="guilsinglleft" format="2">
  <advance width="830"/>
  <unicode hex="2039"/>
  <outline>
    <contour>
      <point x="442" y="775" type="line"/>
      <point x="790" y="380" type="line"/>
      <point x="710" y="270" type="line"/>
      <point x="30" y="750" type="line"/>
      <point x="30" y="800" type="line"/>
      <point x="710" y="1280" type="line"/>
      <point x="790" y="1170" type="line"/>
    </contour>
  </outline>
</glyph>
<glyph name="partialdiff" format="2">
  <advance width="1330"/>
  <unicode hex="2202"/>
  <outline>
    <contour>
      <point x="504" y="1312" type="curve" smooth="yes"/>
      <point x="504" y="1286"/>
      <point x="552" y="1248"/>
      <point x="552" y="1176" type="curve" smooth="yes"/>
      <point x="552" y="1062"/>
      <point x="462" y="990"/>
      <point x="328" y="990" type="curve" smooth="yes"/>
      <point x="189" y="990"/>
      <point x="110" y="1086"/>
      <point x="110" y="1222" type="curve" smooth="yes"/>
      <point x="110" y="1386"/>
      <point x="298" y="1520"/>
      <point x="602" y="1520" type="curve" smooth="yes"/>
      <point x="974" y="1520"/>
      <point x="1250" y="1220"/>
      <point x="1250" y="740" type="curve" smooth="yes"/>
      <point x="1250" y="170"/>
      <point x="974" y="-20"/>
      <point x="652" y="-20" type="curve" smooth="yes"/>
      <point x="350" y="-20"/>
      <point x="60" y="130"/>
      <point x="60" y="500" type="curve" smooth="yes"/>
      <point x="60" y="810"/>
      <point x="276" y="960"/>
      <point x="498" y="960" type="curve" smooth="yes"/>
      <point x="628" y="960"/>
      <point x="742" y="914"/>
      <point x="813" y="842" type="curve" smooth="yes"/>
      <point x="833" y="822"/>
      <point x="837" y="806"/>
      <point x="846" y="811" type="curve" smooth="yes"/>
      <point x="853" y="815"/>
      <point x="848" y="829"/>
      <point x="846" y="864" type="curve" smooth="yes"/>
      <point x="826" y="1197"/>
      <point x="710" y="1366"/>
      <point x="592" y="1366" type="curve" smooth="yes"/>
      <point x="524" y="1366"/>
      <point x="504" y="1338"/>
    </contour>
    <contour>
      <point x="460" y="470" type="curve" smooth="yes"/>
      <point x="460" y="292"/>
      <point x="534" y="210"/>
      <point x="652" y="210" type="curve" smooth="yes"/>
      <point x="780" y="210"/>
      <point x="850" y="302"/>
      <point x="850" y="460" type="curve" smooth="yes"/>
      <point x="850" y="620"/>
      <point x="758" y="722"/>
      <point x="652" y="722" type="curve" smooth="yes"/>
      <point x="544" y="722"/>
      <point x="460" y="658"/>
    </contour>
  </outline>
</glyph>
<glyph name="minus" format="2">
  <advance width="1224"/>
  <unicode hex="2212"/>
  <outline>
    <contour>
      <point x="168.93194" y="890" type="curve" smooth="yes"/>
      <point x="1054.86926" y="890" type="line" smooth="yes"/>
      <point x="1099.7451700000001" y="890"/>
      <point x="1104.088" y="883"/>
      <point x="1104.088" y="851" type="curve" smooth="yes"/>
      <point x="1104.088" y="701" type="line" smooth="yes"/>
      <point x="1104.088" y="666"/>
      <point x="1102.64039" y="660"/>
      <point x="1051.97404" y="660" type="curve" smooth="yes"/>
      <point x="180.51282" y="660" type="line" smooth="yes"/>
      <point x="128.39886" y="660"/>
      <point x="119.7132" y="665"/>
      <point x="119.7132" y="700" type="curve" smooth="yes"/>
      <point x="119.7132" y="849" type="line" smooth="yes"/>
      <point x="119.7132" y="881"/>
      <point x="122.60842" y="890"/>
    </contour>
  </outline>
</glyph>
<glyph name="radical" format="2">
  <advance width="1180"/>
  <unicode hex="221A"/>
  <outline>
    <contour>
      <point x="1026" y="1290" type="line"/>
      <point x="717" y="-20" type="line"/>
      <point x="429" y="-20" type="line"/>
      <point x="233" y="381" type="line"/>
      <point x="121" y="323" type="line"/>
      <point x="31" y="500" type="line"/>
      <point x="432" y="730" type="line"/>
      <point x="616" y="330" type="line"/>
      <point x="889" y="1500" type="line"/>
      <point x="1180" y="1500" type="line"/>
      <point x="1180" y="1290" type="line"/>
    </contour>
  </outline>
</glyph>
<glyph name="infinity" format="2">
  <advance width="1913"/>
  <unicode hex="221E"/>
  <outline>
    <contour>
      <point x="1622" y="780" type="curve" smooth="yes"/>
      <point x="1622" y="928"/>
      <point x="1547" y="997"/>
      <point x="1414" y="997" type="curve" smooth="yes"/>
      <point x="1286.87" y="997"/>
      <point x="1196.34" y="945.046"/>
      <point x="1101" y="825.452" type="curve" smooth="yes"/>
      <point x="1073.51" y="790.974"/>
      <point x="1061.63" y="784.894"/>
      <point x="1090" y="748.45" type="curve" smooth="yes"/>
      <point x="1187.11" y="623.701"/>
      <point x="1282.04" y="563"/>
      <point x="1414" y="563" type="curve" smooth="yes"/>
      <point x="1547" y="563"/>
      <point x="1622" y="642"/>
    </contour>
    <contour>
      <point x="1863" y="780" type="curve" smooth="yes"/>
      <point x="1863" y="490"/>
      <point x="1676" y="351"/>
      <point x="1434" y="351" type="curve" smooth="yes"/>
      <point x="1278.64" y="351"/>
      <point x="1111.4" y="457.728"/>
      <point x="996" y="594.222" type="curve" smooth="yes"/>
      <point x="955.906" y="641.645"/>
      <point x="960.428" y="646.013"/>
      <point x="920" y="597.785" type="curve" smooth="yes"/>
      <point x="804.155" y="459.59"/>
      <point x="635.71" y="351"/>
      <point x="479" y="351" type="curve" smooth="yes"/>
      <point x="237" y="351"/>
      <point x="50" y="500"/>
      <point x="50" y="780" type="curve" smooth="yes"/>
      <point x="50" y="1070"/>
      <point x="237" y="1209"/>
      <point x="479" y="1209" type="curve" smooth="yes"/>
      <point x="641.102" y="1209"/>
      <point x="812.859" y="1094.16"/>
      <point x="931" y="948.685" type="curve" smooth="yes"/>
      <point x="956.292" y="917.541"/>
      <point x="954.231" y="914.291"/>
      <point x="979.826" y="946" type="curve" smooth="yes"/>
      <point x="1098.28" y="1092.75"/>
      <point x="1270.9" y="1209"/>
      <point x="1434" y="1209" type="curve" smooth="yes"/>
      <point x="1676" y="1209"/>
      <point x="1863" y="1070"/>
    </contour>
    <contour>
      <point x="816.06" y="820" type="curve" smooth="yes"/>
      <point x="718.153" y="941.931"/>
      <point x="618.057" y="997"/>
      <point x="489" y="997" type="curve" smooth="yes"/>
      <point x="366" y="997"/>
      <point x="291" y="908"/>
      <point x="291" y="780" type="curve" smooth="yes"/>
      <point x="291" y="642"/>
      <point x="366" y="563"/>
      <point x="489" y="563" type="curve" smooth="yes"/>
      <point x="619.389" y="563"/>
      <point x="721.463" y="621.081"/>
      <point x="819.304" y="744" type="curve" smooth="yes"/>
      <point x="848.305" y="780.435"/>
      <point x="844.661" y="784.381"/>
    </contour>
  </outline>
</glyph>
<glyph name="approxequal" format="2">
  <advance width="1200"/>
  <unicode hex="2248"/>
  <outline>
    <contour>
      <point x="798" y="674" type="curve" smooth="yes"/>
      <point x="656.688" y="674"/>
      <point x="560.776" y="766.975"/>
      <point x="503.614" y="834.724" type="curve" smooth="yes"/>
      <point x="460.611" y="885.169"/>
      <point x="422.745" y="901"/>
      <point x="388" y="901" type="curve" smooth="yes"/>
      <point x="302.872" y="901"/>
      <point x="282.167" y="867.317"/>
      <point x="282.208" y="816.883" type="curve" smooth="yes"/>
      <point x="282.217" y="805.501"/>
      <point x="283.708" y="792.493"/>
      <point x="287.109" y="778.161" type="curve" smooth="yes"/>
      <point x="287.109" y="778.161"/>
      <point x="288.457" y="771.656"/>
      <point x="288.784" y="767.492" type="curve" smooth="yes"/>
      <point x="291.941" y="727.379"/>
      <point x="259.237" y="692"/>
      <point x="219" y="692" type="curve" smooth="yes"/>
      <point x="136" y="692" type="line" smooth="yes"/>
      <point x="105.71" y="692"/>
      <point x="77.2514" y="712.816"/>
      <point x="68.6933" y="742.77" type="curve" smooth="yes"/>
      <point x="22.5213" y="904.372"/>
      <point x="132.087" y="1065.52"/>
      <point x="292.941" y="1110.96" type="curve" smooth="yes"/>
      <point x="322.915" y="1119.43"/>
      <point x="354.851" y="1124"/>
      <point x="388" y="1124" type="curve" smooth="yes"/>
      <point x="536.927" y="1124"/>
      <point x="632.424" y="1027.69"/>
      <point x="687.93" y="963.809" type="curve" smooth="yes"/>
      <point x="735.256" y="908.91"/>
      <point x="758.342" y="897"/>
      <point x="788" y="897" type="curve" smooth="yes"/>
      <point x="851.95" y="897"/>
      <point x="868.484" y="920.421"/>
      <point x="868.34" y="969.997" type="curve" smooth="yes"/>
      <point x="868.301" y="983.609"/>
      <point x="866.209" y="999.793"/>
      <point x="861.364" y="1017.96" type="curve" smooth="yes"/>
      <point x="860.601" y="1020.82"/>
      <point x="859.545" y="1026.32"/>
      <point x="859.216" y="1030.51" type="curve" smooth="yes"/>
      <point x="856.059" y="1070.62"/>
      <point x="888.763" y="1106"/>
      <point x="929" y="1106" type="curve" smooth="yes"/>
      <point x="1012" y="1106" type="line" smooth="yes"/>
      <point x="1041.32" y="1106"/>
      <point x="1072.33" y="1084.58"/>
      <point x="1080.07" y="1052.34" type="curve" smooth="yes"/>
      <point x="1120.88" y="882.298"/>
      <point x="1014.93" y="718.086"/>
      <point x="860.852" y="681.392" type="curve" smooth="yes"/>
      <point x="840.596" y="676.568"/>
      <point x="819.511" y="674"/>
    </contour>
    <contour>
      <point x="798" y="174" type="curve" smooth="yes"/>
      <point x="656.688" y="174"/>
      <point x="560.776" y="266.975"/>
      <point x="503.614" y="334.724" type="curve" smooth="yes"/>
      <point x="460.611" y="385.169"/>
      <point x="422.745" y="401"/>
      <point x="388" y="401" type="curve" smooth="yes"/>
      <point x="302.872" y="401"/>
      <point x="282.167" y="367.317"/>
      <point x="282.208" y="316.883" type="curve" smooth="yes"/>
      <point x="282.217" y="305.501"/>
      <point x="283.708" y="292.493"/>
      <point x="287.109" y="278.161" type="curve" smooth="yes"/>
      <point x="287.109" y="278.161"/>
      <point x="288.457" y="271.656"/>
      <point x="288.784" y="267.492" type="curve" smooth="yes"/>
      <point x="291.941" y="227.379"/>
      <point x="259.237" y="192"/>
      <point x="219" y="192" type="curve" smooth="yes"/>
      <point x="136" y="192" type="line" smooth="yes"/>
      <point x="105.71" y="192"/>
      <point x="77.2514" y="212.816"/>
      <point x="68.6933" y="242.77" type="curve" smooth="yes"/>
      <point x="22.5213" y="404.372"/>
      <point x="132.087" y="565.519"/>
      <point x="292.941" y="610.963" type="curve" smooth="yes"/>
      <point x="322.915" y="619.431"/>
      <point x="354.851" y="624"/>
      <point x="388" y="624" type="curve" smooth="yes"/>
      <point x="536.927" y="624"/>
      <point x="632.424" y="527.693"/>
      <point x="687.93" y="463.809" type="curve" smooth="yes"/>
      <point x="735.256" y="408.91"/>
      <point x="758.342" y="397"/>
      <point x="788" y="397" type="curve" smooth="yes"/>
      <point x="851.95" y="397"/>
      <point x="868.484" y="420.421"/>
      <point x="868.34" y="469.997" type="curve" smooth="yes"/>
      <point x="868.301" y="483.609"/>
      <point x="866.209" y="499.793"/>
      <point x="861.364" y="517.964" type="curve" smooth="yes"/>
      <point x="860.601" y="520.824"/>
      <point x="859.545" y="526.32"/>
      <point x="859.216" y="530.508" type="curve" smooth="yes"/>
      <point x="856.059" y="570.621"/>
      <point x="888.763" y="606"/>
      <point x="929" y="606" type="curve" smooth="yes"/>
      <point x="1012" y="606" type="line" smooth="yes"/>
      <point x="1041.32" y="606"/>
      <point x="1072.33" y="584.582"/>
      <point x="1080.07" y="552.336" type="curve" smooth="yes"/>
      <point x="1120.88" y="382.298"/>
      <point x="1014.93" y="218.086"/>
      <point x="860.852" y="181.392" type="curve" smooth="yes"/>
      <point x="840.596" y="176.568"/>
      <point x="819.511" y="174"/>
    </contour>
  </outline>
</glyph>
<glyph name="notequal" format="2">
  <advance width="1119"/>
  <unicode hex="2260"/>
  <outline>
    <contour>
      <point x="156.62861879130003" y="318.71253518340006" type="curve" smooth="yes"/>
      <point x="811.4647591827" y="1253.9168295486002" type="line" smooth="yes"/>
      <point x="844.6345636796501" y="1301.2882889037"/>
      <point x="852.4317987600001" y="1302.6605966800003"/>
      <point x="873.4021027600002" y="1287.9770446800003" type="curve" smooth="yes"/>
      <point x="971.7004027600001" y="1219.1478946800003" type="line" smooth="yes"/>
      <point x="994.6366727600001" y="1203.08775968"/>
      <point x="997.4986110665501" y="1198.8064820879"/>
      <point x="960.0488317958001" y="1145.3225763644" type="curve" smooth="yes"/>
      <point x="315.91262833890005" y="225.39939792020004" type="line" smooth="yes"/>
      <point x="277.39285537470005" y="170.38738060460003"/>
      <point x="267.696283214" y="163.513016052"/>
      <point x="244.76001321400008" y="179.57315105200001" type="curve" smooth="yes"/>
      <point x="147.117035214" y="247.94344005200003" type="line" smooth="yes"/>
      <point x="126.14673121400006" y="262.626992052"/>
      <point x="122.38882060090003" y="269.81296423620006"/>
    </contour>
    <contour>
      <point x="164.29448" y="1090" type="curve" smooth="yes"/>
      <point x="956.2959199999999" y="1090" type="line" smooth="yes"/>
      <point x="996.41364" y="1090"/>
      <point x="1000.296" y="1083"/>
      <point x="1000.296" y="1051" type="curve" smooth="yes"/>
      <point x="1000.296" y="901" type="line" smooth="yes"/>
      <point x="1000.296" y="866"/>
      <point x="999.00188" y="860"/>
      <point x="953.70768" y="860" type="curve" smooth="yes"/>
      <point x="174.64744" y="860" type="line" smooth="yes"/>
      <point x="128.05911999999998" y="860"/>
      <point x="120.2944" y="865"/>
      <point x="120.2944" y="900" type="curve" smooth="yes"/>
      <point x="120.2944" y="1049" type="line" smooth="yes"/>
      <point x="120.2944" y="1081"/>
      <point x="122.88263999999998" y="1090"/>
    </contour>
    <contour>
      <point x="164.29448" y="690" type="curve" smooth="yes"/>
      <point x="956.2959199999999" y="690" type="line" smooth="yes"/>
      <point x="996.41364" y="690"/>
      <point x="1000.296" y="683"/>
      <point x="1000.296" y="651" type="curve" smooth="yes"/>
      <point x="1000.296" y="501" type="line" smooth="yes"/>
      <point x="1000.296" y="466"/>
      <point x="999.00188" y="460"/>
      <point x="953.70768" y="460" type="curve" smooth="yes"/>
      <point x="174.64744" y="460" type="line" smooth="yes"/>
      <point x="128.05911999999998" y="460"/>
      <point x="120.2944" y="465"/>
      <point x="120.2944" y="500" type="curve" smooth="yes"/>
      <point x="120.2944" y="649" type="line" smooth="yes"/>
      <point x="120.2944" y="681"/>
      <point x="122.88263999999998" y="690"/>
    </contour>
  </outline>
</glyph>
<glyph name="lessequal" format="2">
  <advance width="1119"/>
  <unicode hex="2264"/>
  <outline>
    <contour>
      <point x="163.65081936644" y="230.0" type="curve" smooth="yes"/>
      <point x="956.05619274476" y="230.0" type="line" smooth="yes"/>
      <point x="996.1943734224201" y="230.0"/>
      <point x="1000.078713488" y="223.0"/>
      <point x="1000.078713488" y="191.0" type="curve" smooth="yes"/>
      <point x="1000.078713488" y="41.0" type="line" smooth="yes"/>
      <point x="1000.078713488" y="6.0"/>
      <point x="998.7839334661401" y="0.0"/>
      <point x="953.46663270104" y="0.0" type="curve" smooth="yes"/>
      <point x="174.00905954132" y="0.0" type="line" smooth="yes"/>
      <point x="127.39697875435999" y="0.0"/>
      <point x="119.62829862320001" y="5.0"/>
      <point x="119.62829862320001" y="40.0" type="curve" smooth="yes"/>
      <point x="119.62829862320001" y="189.0" type="line" smooth="yes"/>
      <point x="119.62829862320001" y="221.0"/>
      <point x="122.21785866692" y="230.0"/>
    </contour>
    <contour>
      <point x="438" y="748" type="curve" smooth="yes"/>
      <point x="960" y="555" type="line" smooth="yes"/>
      <point x="989" y="544"/>
      <point x="1000" y="533"/>
      <point x="1000" y="491" type="curve" smooth="yes"/>
      <point x="1000" y="373" type="line" smooth="yes"/>
      <point x="1000" y="315"/>
      <point x="993" y="313"/>
      <point x="954" y="328" type="curve" smooth="yes"/>
      <point x="164" y="642" type="line" smooth="yes"/>
      <point x="131" y="655"/>
      <point x="120" y="672"/>
      <point x="120" y="720" type="curve" smooth="yes"/>
      <point x="120" y="830" type="line" smooth="yes"/>
      <point x="120" y="890"/>
      <point x="135" y="896"/>
      <point x="176" y="912" type="curve" smooth="yes"/>
      <point x="940" y="1216" type="line" smooth="yes"/>
      <point x="980" y="1232"/>
      <point x="1000" y="1235"/>
      <point x="1000" y="1169" type="curve" smooth="yes"/>
      <point x="1000" y="1082" type="line" smooth="yes"/>
      <point x="1000" y="1025"/>
      <point x="992" y="1007"/>
      <point x="952" y="992" type="curve" smooth="yes"/>
      <point x="438" y="802" type="line" smooth="yes"/>
      <point x="403" y="789"/>
      <point x="382" y="788"/>
      <point x="382" y="776" type="curve" smooth="yes"/>
      <point x="382" y="759"/>
      <point x="399" y="763"/>
    </contour>
  </outline>
</glyph>
<glyph name="uniFB02" format="2">
  <advance width="1660"/>
  <unicode hex="FB02"/>
  <outline>
    <contour>
      <point x="640" y="786" type="curve" smooth="yes"/>
      <point x="640" y="252" type="line" smooth="yes"/>
      <point x="640" y="221"/>
      <point x="643" y="210"/>
      <point x="677" y="210" type="curve" smooth="yes"/>
      <point x="761" y="210" type="line" smooth="yes"/>
      <point x="788" y="210"/>
      <point x="790" y="202"/>
      <point x="790" y="174" type="curve" smooth="yes"/>
      <point x="790" y="58" type="line" smooth="yes"/>
      <point x="790" y="5"/>
      <point x="784" y="0"/>
      <point x="733" y="0" type="curve" smooth="yes"/>
      <point x="89" y="0" type="line" smooth="yes"/>
      <point x="43" y="0"/>
      <point x="40" y="7"/>
      <point x="40" y="54" type="curve" smooth="yes"/>
      <point x="40" y="162" type="line" smooth="yes"/>
      <point x="40" y="204"/>
      <point x="45" y="210"/>
      <point x="85" y="210" type="curve" smooth="yes"/>
      <point x="167" y="210" type="line" smooth="yes"/>
      <point x="217" y="210"/>
      <point x="220" y="217"/>
      <point x="220" y="268" type="curve" smooth="yes"/>
      <point x="220" y="788" type="line" smooth="yes"/>
      <point x="220" y="828"/>
      <point x="212" y="830"/>
      <point x="171" y="830" type="curve" smooth="yes"/>
      <point x="67" y="830" type="line" smooth="yes"/>
      <point x="42" y="830"/>
      <point x="40" y="838"/>
      <point x="40" y="864" type="curve" smooth="yes"/>
      <point x="40" y="992" type="line" smooth="yes"/>
      <point x="40" y="1030"/>
      <point x="41" y="1040"/>
      <point x="79" y="1040" type="curve" smooth="yes"/>
      <point x="169" y="1040" type="line" smooth="yes"/>
      <point x="213" y="1040"/>
      <point x="220" y="1044"/>
      <point x="220" y="1090" type="curve" smooth="yes"/>
      <point x="220" y="1144" type="line" smooth="yes"/>
      <point x="220" y="1366"/>
      <point x="454" y="1600"/>
      <point x="854" y="1600" type="curve" smooth="yes"/>
      <point x="1006" y="1600"/>
      <point x="1122" y="1569"/>
      <point x="1203" y="1521" type="curve" smooth="yes"/>
      <point x="1247" y="1495"/>
      <point x="1247" y="1483"/>
      <point x="1295" y="1508" type="curve" smooth="yes"/>
      <point x="1373" y="1549" type="line" smooth="yes"/>
      <point x="1432" y="1580"/>
      <point x="1470" y="1565"/>
      <point x="1470" y="1464" type="curve" smooth="yes"/>
      <point x="1470" y="258" type="line" smooth="yes"/>
      <point x="1470" y="216"/>
      <point x="1475" y="210"/>
      <point x="1519" y="210" type="curve" smooth="yes"/>
      <point x="1613" y="210" type="line" smooth="yes"/>
      <point x="1644" y="210"/>
      <point x="1650" y="204"/>
      <point x="1650" y="174" type="curve" smooth="yes"/>
      <point x="1650" y="48" type="line" smooth="yes"/>
      <point x="1650" y="9"/>
      <point x="1648" y="0"/>
      <point x="1609" y="0" type="curve" smooth="yes"/>
      <point x="911" y="0" type="line" smooth="yes"/>
      <point x="872" y="0"/>
      <point x="870" y="8"/>
      <point x="870" y="48" type="curve" smooth="yes"/>
      <point x="870" y="168" type="line" smooth="yes"/>
      <point x="870" y="205"/>
      <point x="876" y="210"/>
      <point x="915" y="210" type="curve" smooth="yes"/>
      <point x="1001" y="210" type="line" smooth="yes"/>
      <point x="1045" y="210"/>
      <point x="1050" y="216"/>
      <point x="1050" y="258" type="curve" smooth="yes"/>
      <point x="1050" y="1048" type="line" smooth="yes"/>
      <point x="1050" y="1097"/>
      <point x="1041" y="1089"/>
      <point x="1005" y="1100" type="curve" smooth="yes"/>
      <point x="919" y="1127"/>
      <point x="866" y="1190"/>
      <point x="866" y="1272" type="curve" smooth="yes"/>
      <point x="866" y="1366"/>
      <point x="938" y="1388"/>
      <point x="938" y="1410" type="curve" smooth="yes"/>
      <point x="938" y="1424"/>
      <point x="900" y="1426"/>
      <point x="880" y="1426" type="curve" smooth="yes"/>
      <point x="780" y="1426"/>
      <point x="640" y="1354"/>
      <point x="640" y="1100" type="curve" smooth="yes"/>
      <point x="640" y="1084" type="line" smooth="yes"/>
      <point x="640" y="1046"/>
      <point x="644" y="1040"/>
      <point x="681" y="1040" type="curve" smooth="yes"/>
      <point x="839" y="1040" type="line" smooth="yes"/>
      <point x="891" y="1040"/>
      <point x="900" y="1038"/>
      <point x="900" y="986" type="curve" smooth="yes"/>
      <point x="900" y="878" type="line" smooth="yes"/>
      <point x="900" y="836"/>
      <point x="895" y="830"/>
      <point x="855" y="830" type="curve" smooth="yes"/>
      <point x="691" y="830" type="line" smooth="yes"/>
      <point x="652" y="830"/>
      <point x="640" y="828"/>
    </contour>
  </outline>
</glyph>
<glyph name="R.alt" format="2">
  <advance width="1750"/>
  <outline>
    <contour>
      <point x="785" y="880" type="curve" smooth="yes"/>
      <point x="960" y="880" type="line" smooth="yes"/>
      <point x="1072" y="880"/>
      <point x="1140" y="952"/>
      <point x="1140" y="1050" type="curve" smooth="yes"/>
      <point x="1140" y="1148"/>
      <point x="1072" y="1230"/>
      <point x="960" y="1230" type="curve" smooth="yes"/>
      <point x="791" y="1230" type="line" smooth="yes"/>
      <point x="759" y="1230"/>
      <point x="740" y="1230"/>
      <point x="740" y="1194" type="curve" smooth="yes"/>
      <point x="740" y="914" type="line" smooth="yes"/>
      <point x="740" y="882"/>
      <point x="755" y="880"/>
    </contour>
    <contour>
      <point x="1679" y="0" type="curve" smooth="yes"/>
      <point x="1440" y="0" type="line" smooth="yes"/>
      <point x="834" y="0"/>
      <point x="1283" y="620"/>
      <point x="810" y="620" type="curve" smooth="yes"/>
      <point x="785" y="620" type="line" smooth="yes"/>
      <point x="749" y="620"/>
      <point x="740" y="618"/>
      <point x="740" y="582" type="curve" smooth="yes"/>
      <point x="740" y="330" type="line" smooth="yes"/>
      <point x="740" y="290"/>
      <point x="749" y="270"/>
      <point x="793" y="270" type="curve" smooth="yes"/>
      <point x="915" y="270" type="line" smooth="yes"/>
      <point x="958" y="270"/>
      <point x="960" y="260"/>
      <point x="960" y="216" type="curve" smooth="yes"/>
      <point x="960" y="58" type="line" smooth="yes"/>
      <point x="960" y="7"/>
      <point x="936" y="0"/>
      <point x="889" y="0" type="curve" smooth="yes"/>
      <point x="111" y="0" type="line" smooth="yes"/>
      <point x="53" y="0"/>
      <point x="50" y="9"/>
      <point x="50" y="68" type="curve" smooth="yes"/>
      <point x="50" y="214" type="line" smooth="yes"/>
      <point x="50" y="269"/>
      <point x="61" y="270"/>
      <point x="117" y="270" type="curve" smooth="yes"/>
      <point x="201" y="270" type="line" smooth="yes"/>
      <point x="250" y="270"/>
      <point x="270" y="271"/>
      <point x="270" y="320" type="curve" smooth="yes"/>
      <point x="270" y="1168" type="line" smooth="yes"/>
      <point x="270" y="1212"/>
      <point x="261" y="1230"/>
      <point x="213" y="1230" type="curve" smooth="yes"/>
      <point x="103" y="1230" type="line" smooth="yes"/>
      <point x="66" y="1230"/>
      <point x="50" y="1235"/>
      <point x="50" y="1274" type="curve" smooth="yes"/>
      <point x="50" y="1446" type="line" smooth="yes"/>
      <point x="50" y="1491"/>
      <point x="70" y="1500"/>
      <point x="111" y="1500" type="curve" smooth="yes"/>
      <point x="960" y="1500" type="line" smooth="yes"/>
      <point x="1402" y="1500"/>
      <point x="1620" y="1370"/>
      <point x="1620" y="1090" type="curve" smooth="yes"/>
      <point x="1620" y="911"/>
      <point x="1526" y="806"/>
      <point x="1317" y="759" type="curve" smooth="yes"/>
      <point x="1262" y="747"/>
      <point x="1257" y="733"/>
      <point x="1315" y="711" type="curve" smooth="yes"/>
      <point x="1645" y="584"/>
      <point x="1431" y="270"/>
      <point x="1612" y="270" type="curve" smooth="yes"/>
      <point x="1679" y="270" type="line" smooth="yes"/>
      <point x="1724" y="270"/>
      <point x="1730" y="275"/>
      <point x="1730" y="228" type="curve" smooth="yes"/>
      <point x="1730" y="44" type="line" smooth="yes"/>
      <point x="1730" y="2"/>
      <point x="1718" y="0"/>
    </contour>
  </outline>
</glyph>
<glyph name="a.sc" format="2">
  <advance width="1446"/>
  <anchor x="1154" y="0" name="Anchor-3"/>
  <anchor x="656" y="0" name="Anchor-2"/>
  <anchor x="772" y="1032.96" name="Anchor-0"/>
  <outline>
    <contour>
      <point x="598" y="524.16" type="line" smooth="yes"/>
      <point x="595.12" y="517.436"/>
      <point x="593.493" y="510.394"/>
      <point x="593.493" y="503.994" type="curve" smooth="yes"/>
      <point x="593.493" y="491.194"/>
      <point x="600" y="480.96"/>
      <point x="616" y="480.96" type="curve" smooth="yes"/>
      <point x="762" y="480.96" type="line" smooth="yes"/>
      <point x="781.47" y="480.96"/>
      <point x="787.479" y="488.233"/>
      <point x="787.479" y="498.585" type="curve" smooth="yes"/>
      <point x="787.479" y="505.248"/>
      <point x="784.991" y="513.185"/>
      <point x="782" y="521.28" type="curve" smooth="yes"/>
      <point x="710" y="716.16" type="line" smooth="yes"/>
      <point x="704.723" y="730.444"/>
      <point x="700.441" y="737.578"/>
      <point x="695.902" y="737.578" type="curve" smooth="yes"/>
      <point x="691.065" y="737.578"/>
      <point x="685.936" y="729.474"/>
      <point x="679" y="713.28" type="curve" smooth="yes"/>
    </contour>
    <contour>
      <point x="21.8604" y="45.2598" type="curve" smooth="yes"/>
      <point x="21.8604" y="186.821" type="line" smooth="yes"/>
      <point x="21.8604" y="215.909"/>
      <point x="27.7998" y="229.484"/>
      <point x="53.54" y="229.484" type="curve" smooth="yes"/>
      <point x="166.4" y="229.484" type="line" smooth="yes"/>
      <point x="189.17" y="229.484"/>
      <point x="188.18" y="233.362"/>
      <point x="194.12" y="238.21" type="curve" smooth="yes"/>
      <point x="551.51" y="1037.16" type="line" smooth="yes"/>
      <point x="560.42" y="1058.49"/>
      <point x="563.39" y="1059.46"/>
      <point x="595.07" y="1059.46" type="curve" smooth="yes"/>
      <point x="901" y="1053.12" type="line" smooth="yes"/>
      <point x="934" y="1052"/>
      <point x="938" y="1045.44"/>
      <point x="947" y="1024.32" type="curve" smooth="yes"/>
      <point x="1266" y="245.76" type="line" smooth="yes"/>
      <point x="1276" y="237.12"/>
      <point x="1273" y="231.36"/>
      <point x="1313" y="231.36" type="curve" smooth="yes"/>
      <point x="1404" y="231.36" type="line" smooth="yes"/>
      <point x="1428" y="231.36"/>
      <point x="1441" y="231.36"/>
      <point x="1441" y="197.76" type="curve" smooth="yes"/>
      <point x="1441" y="38.4004" type="line" smooth="yes"/>
      <point x="1441" y="3.83984"/>
      <point x="1437" y="0"/>
      <point x="1410" y="0" type="curve" smooth="yes"/>
      <point x="770" y="0" type="line" smooth="yes"/>
      <point x="742" y="0"/>
      <point x="742" y="7.67969"/>
      <point x="742" y="42.2402" type="curve" smooth="yes"/>
      <point x="742" y="194.88" type="line" smooth="yes"/>
      <point x="742" y="227.52"/>
      <point x="746" y="231.36"/>
      <point x="772" y="231.36" type="curve" smooth="yes"/>
      <point x="851" y="231.36" type="line" smooth="yes"/>
      <point x="866.204" y="231.36"/>
      <point x="881.674" y="238.474"/>
      <point x="881.674" y="247.664" type="curve" smooth="yes"/>
      <point x="881.674" y="248.75"/>
      <point x="881.458" y="249.865"/>
      <point x="881" y="251" type="curve" smooth="yes"/>
      <point x="872" y="272.64" type="line" smooth="yes"/>
      <point x="864.997" y="289.478"/>
      <point x="862" y="305.28"/>
      <point x="835" y="305.28" type="curve" smooth="yes"/>
      <point x="540" y="305.28" type="line" smooth="yes"/>
      <point x="513" y="305.28"/>
      <point x="507.503" y="296.405"/>
      <point x="494" y="272.64" type="curve" smooth="yes"/>
      <point x="480" y="248" type="line" smooth="yes"/>
      <point x="478.498" y="245.285"/>
      <point x="477.695" y="242.754"/>
      <point x="477.695" y="240.527" type="curve" smooth="yes"/>
      <point x="477.695" y="235.017"/>
      <point x="482.607" y="231.36"/>
      <point x="494" y="231.36" type="curve" smooth="yes"/>
      <point x="566" y="231.36" type="line" smooth="yes"/>
      <point x="588" y="231.36"/>
      <point x="589" y="223.68"/>
      <point x="589" y="195.84" type="curve" smooth="yes"/>
      <point x="589" y="31.6797" type="line" smooth="yes"/>
      <point x="589" y="3.83984"/>
      <point x="582" y="0"/>
      <point x="561" y="0" type="curve" smooth="yes"/>
      <point x="67.4004" y="-4.19043" type="line" smooth="yes"/>
      <point x="28.79" y="-4.19043"/>
      <point x="21.8604" y="-3.2207"/>
    </contour>
  </outline>
</glyph>
<glyph name="b.sc" format="2">
  <advance width="1390"/>
  <anchor x="668" y="0" name="Anchor-2"/>
  <anchor x="646" y="1040" name="Anchor-0"/>
  <outline>
    <contour>
      <point x="747" y="241" type="line" smooth="yes"/>
      <point x="873" y="241"/>
      <point x="909" y="279"/>
      <point x="909" y="334" type="curve" smooth="yes"/>
      <point x="909" y="389"/>
      <point x="844" y="413"/>
      <point x="747" y="413" type="curve" smooth="yes"/>
      <point x="608" y="413" type="line" smooth="yes"/>
      <point x="589" y="413"/>
      <point x="578" y="406"/>
      <point x="578" y="393" type="curve" smooth="yes"/>
      <point x="578" y="267" type="line" smooth="yes"/>
      <point x="578" y="248"/>
      <point x="582" y="241"/>
      <point x="611" y="241" type="curve" smooth="yes"/>
    </contour>
    <contour>
      <point x="618" y="655" type="curve" smooth="yes"/>
      <point x="714" y="655" type="line" smooth="yes"/>
      <point x="800" y="655"/>
      <point x="855" y="679"/>
      <point x="855" y="732" type="curve" smooth="yes"/>
      <point x="855" y="785"/>
      <point x="814" y="799"/>
      <point x="714" y="799" type="curve" smooth="yes"/>
      <point x="614" y="799" type="line" smooth="yes"/>
      <point x="592" y="799"/>
      <point x="578" y="799"/>
      <point x="578" y="785" type="curve" smooth="yes"/>
      <point x="578" y="682" type="line" smooth="yes"/>
      <point x="578" y="660"/>
      <point x="583" y="655"/>
    </contour>
    <contour>
      <point x="780" y="0" type="curve" smooth="yes"/>
      <point x="67" y="0" type="line" smooth="yes"/>
      <point x="35" y="0"/>
      <point x="35" y="17"/>
      <point x="35" y="59" type="curve" smooth="yes"/>
      <point x="35" y="214" type="line" smooth="yes"/>
      <point x="35" y="237"/>
      <point x="42" y="241"/>
      <point x="59" y="241" type="curve" smooth="yes"/>
      <point x="155" y="241" type="line" smooth="yes"/>
      <point x="186" y="241"/>
      <point x="188" y="251"/>
      <point x="188" y="277" type="curve" smooth="yes"/>
      <point x="188" y="769" type="line" smooth="yes"/>
      <point x="188" y="790"/>
      <point x="183" y="799"/>
      <point x="159" y="799" type="curve" smooth="yes"/>
      <point x="65" y="799" type="line" smooth="yes"/>
      <point x="39" y="799"/>
      <point x="35" y="804"/>
      <point x="35" y="836" type="curve" smooth="yes"/>
      <point x="35" y="994" type="line" smooth="yes"/>
      <point x="35" y="1030"/>
      <point x="41" y="1040"/>
      <point x="67" y="1040" type="curve" smooth="yes"/>
      <point x="727" y="1040" type="line" smooth="yes"/>
      <point x="1117" y="1040"/>
      <point x="1284" y="977"/>
      <point x="1284" y="783" type="curve" smooth="yes"/>
      <point x="1284" y="669"/>
      <point x="1198" y="595"/>
      <point x="1038" y="558" type="curve" smooth="yes"/>
      <point x="1004" y="550"/>
      <point x="1002" y="533"/>
      <point x="1043" y="527" type="curve" smooth="yes"/>
      <point x="1242" y="495"/>
      <point x="1356" y="418"/>
      <point x="1356" y="291" type="curve" smooth="yes"/>
      <point x="1356" y="69"/>
      <point x="1188" y="0"/>
    </contour>
  </outline>
</glyph>
<glyph name="c.sc" format="2">
  <advance width="1356"/>
  <anchor x="740" y="0.799805" name="Anchor-2"/>
  <anchor x="740" y="1034.72" name="Anchor-0"/>
  <outline>
    <contour>
      <point x="49" y="517.28" type="curve" smooth="yes"/>
      <point x="49" y="828.32"/>
      <point x="333" y="1069.28"/>
      <point x="723" y="1069.28" type="curve" smooth="yes"/>
      <point x="835" y="1069.28"/>
      <point x="925" y="1031.84"/>
      <point x="993" y="975.2" type="curve" smooth="yes"/>
      <point x="1026" y="948.32"/>
      <point x="1033" y="950.24"/>
      <point x="1060" y="986.72" type="curve" smooth="yes"/>
      <point x="1086" y="1024.16" type="line" smooth="yes"/>
      <point x="1098" y="1040.48"/>
      <point x="1103" y="1043.36"/>
      <point x="1133" y="1043.36" type="curve" smooth="yes"/>
      <point x="1245" y="1043.36" type="line" smooth="yes"/>
      <point x="1284" y="1043.36"/>
      <point x="1286" y="1035.68"/>
      <point x="1286" y="993.44" type="curve" smooth="yes"/>
      <point x="1286" y="658.4" type="line" smooth="yes"/>
      <point x="1286" y="635.36"/>
      <point x="1281" y="630.56"/>
      <point x="1245" y="630.56" type="curve" smooth="yes"/>
      <point x="1055" y="630.56" type="line" smooth="yes"/>
      <point x="1012" y="630.56"/>
      <point x="1007" y="638.24"/>
      <point x="999" y="660.32" type="curve" smooth="yes"/>
      <point x="968" y="771.68"/>
      <point x="902" y="849.44"/>
      <point x="756" y="849.44" type="curve" smooth="yes"/>
      <point x="612" y="849.44"/>
      <point x="514" y="732.32"/>
      <point x="514" y="520.16" type="curve" smooth="yes"/>
      <point x="514" y="308"/>
      <point x="614" y="197.6"/>
      <point x="775" y="197.6" type="curve" smooth="yes"/>
      <point x="906" y="197.6"/>
      <point x="1008" y="265.76"/>
      <point x="1036" y="379.04" type="curve" smooth="yes"/>
      <point x="1047" y="412.64"/>
      <point x="1052" y="421.28"/>
      <point x="1096" y="421.28" type="curve" smooth="yes"/>
      <point x="1271" y="421.28" type="line" smooth="yes"/>
      <point x="1318" y="421.28"/>
      <point x="1322" y="414.56"/>
      <point x="1318" y="391.52" type="curve" smooth="yes"/>
      <point x="1284" y="142.88"/>
      <point x="1091" y="-33.7598"/>
      <point x="733" y="-33.7598" type="curve" smooth="yes"/>
      <point x="326" y="-33.7598"/>
      <point x="49" y="178.4"/>
    </contour>
  </outline>
</glyph>
<glyph name="d.sc" format="2">
  <advance width="1475"/>
  <anchor x="742" y="0" name="Anchor-2"/>
  <anchor x="742" y="1040" name="Anchor-0"/>
  <outline>
    <contour>
      <point x="35" y="30" type="curve" smooth="yes"/>
      <point x="35" y="205" type="line" smooth="yes"/>
      <point x="35" y="234"/>
      <point x="40" y="241"/>
      <point x="62" y="241" type="curve" smooth="yes"/>
      <point x="162" y="241" type="line" smooth="yes"/>
      <point x="187" y="241"/>
      <point x="188" y="246"/>
      <point x="188" y="268" type="curve" smooth="yes"/>
      <point x="188" y="769" type="line" smooth="yes"/>
      <point x="188" y="794"/>
      <point x="184" y="799"/>
      <point x="155" y="799" type="curve" smooth="yes"/>
      <point x="69" y="799" type="line" smooth="yes"/>
      <point x="38" y="799"/>
      <point x="35" y="805"/>
      <point x="35" y="842" type="curve" smooth="yes"/>
      <point x="35" y="993" type="line" smooth="yes"/>
      <point x="35" y="1033"/>
      <point x="42" y="1040"/>
      <point x="72" y="1040" type="curve" smooth="yes"/>
      <point x="716" y="1040" type="line" smooth="yes"/>
      <point x="1266" y="1040"/>
      <point x="1427" y="815"/>
      <point x="1427" y="520" type="curve" smooth="yes"/>
      <point x="1427" y="225"/>
      <point x="1250" y="0"/>
      <point x="716" y="0" type="curve" smooth="yes"/>
      <point x="68" y="0" type="line" smooth="yes"/>
      <point x="45" y="0"/>
      <point x="35" y="1"/>
    </contour>
    <contour>
      <point x="648" y="241" type="curve" smooth="yes"/>
      <point x="712" y="241" type="line" smooth="yes"/>
      <point x="870" y="241"/>
      <point x="962" y="332"/>
      <point x="962" y="520" type="curve" smooth="yes"/>
      <point x="962" y="708"/>
      <point x="856" y="799"/>
      <point x="712" y="799" type="curve" smooth="yes"/>
      <point x="649" y="799" type="line" smooth="yes"/>
      <point x="616" y="799"/>
      <point x="608" y="794"/>
      <point x="608" y="766" type="curve" smooth="yes"/>
      <point x="608" y="268" type="line" smooth="yes"/>
      <point x="608" y="242"/>
      <point x="617" y="241"/>
    </contour>
  </outline>
</glyph>
<glyph name="e.sc" format="2">
  <advance width="1353"/>
  <anchor x="1143" y="45" name="Anchor-3"/>
  <anchor x="660" y="0" name="Anchor-2"/>
  <anchor x="680" y="1040" name="Anchor-0"/>
  <outline>
    <contour>
      <point x="157" y="799" type="curve" smooth="yes"/>
      <point x="67" y="799" type="line" smooth="yes"/>
      <point x="38" y="799"/>
      <point x="35" y="806"/>
      <point x="35" y="842" type="curve" smooth="yes"/>
      <point x="35" y="999" type="line" smooth="yes"/>
      <point x="35" y="1039"/>
      <point x="45" y="1040"/>
      <point x="74" y="1040" type="curve" smooth="yes"/>
      <point x="1246" y="1040" type="line" smooth="yes"/>
      <point x="1279" y="1040"/>
      <point x="1281" y="1030"/>
      <point x="1281" y="997" type="curve" smooth="yes"/>
      <point x="1281" y="660" type="line" smooth="yes"/>
      <point x="1281" y="641"/>
      <point x="1281" y="642"/>
      <point x="1247" y="642" type="curve" smooth="yes"/>
      <point x="1077" y="642" type="line" smooth="yes"/>
      <point x="1050" y="642"/>
      <point x="1049" y="648"/>
      <point x="1048" y="661" type="curve" smooth="yes"/>
      <point x="1043" y="761"/>
      <point x="1003" y="799"/>
      <point x="836" y="799" type="curve" smooth="yes"/>
      <point x="652" y="799" type="line" smooth="yes"/>
      <point x="622" y="799"/>
      <point x="608" y="797"/>
      <point x="608" y="776" type="curve" smooth="yes"/>
      <point x="608" y="646" type="line" smooth="yes"/>
      <point x="608" y="622"/>
      <point x="612" y="617"/>
      <point x="634" y="617" type="curve" smooth="yes"/>
      <point x="638" y="617" type="line" smooth="yes"/>
      <point x="710" y="617"/>
      <point x="754" y="659"/>
      <point x="765" y="705" type="curve" smooth="yes"/>
      <point x="769" y="720"/>
      <point x="771" y="728"/>
      <point x="796" y="728" type="curve" smooth="yes"/>
      <point x="895" y="728" type="line" smooth="yes"/>
      <point x="933" y="728"/>
      <point x="938" y="726"/>
      <point x="938" y="705" type="curve" smooth="yes"/>
      <point x="938" y="334" type="line" smooth="yes"/>
      <point x="938" y="317"/>
      <point x="933" y="313"/>
      <point x="900" y="313" type="curve" smooth="yes"/>
      <point x="804" y="313" type="line" smooth="yes"/>
      <point x="767" y="313"/>
      <point x="769" y="322"/>
      <point x="764" y="338" type="curve" smooth="yes"/>
      <point x="753" y="383"/>
      <point x="697" y="428"/>
      <point x="644" y="428" type="curve" smooth="yes"/>
      <point x="640" y="428" type="line" smooth="yes"/>
      <point x="621" y="428"/>
      <point x="608" y="419"/>
      <point x="608" y="399" type="curve" smooth="yes"/>
      <point x="608" y="261" type="line" smooth="yes"/>
      <point x="608" y="242"/>
      <point x="615" y="241"/>
      <point x="649" y="241" type="curve" smooth="yes"/>
      <point x="822" y="241" type="line" smooth="yes"/>
      <point x="1016" y="241"/>
      <point x="1061" y="285"/>
      <point x="1066" y="399" type="curve" smooth="yes"/>
      <point x="1068" y="473"/>
      <point x="1062" y="483"/>
      <point x="1111" y="483" type="curve" smooth="yes"/>
      <point x="1263" y="483" type="line" smooth="yes"/>
      <point x="1303" y="483"/>
      <point x="1299" y="473"/>
      <point x="1299" y="403" type="curve" smooth="yes"/>
      <point x="1299" y="36" type="line" smooth="yes"/>
      <point x="1299" y="-2"/>
      <point x="1297" y="0"/>
      <point x="1262" y="0" type="curve" smooth="yes"/>
      <point x="69" y="0" type="line" smooth="yes"/>
      <point x="41" y="0"/>
      <point x="35" y="-6"/>
      <point x="35" y="32" type="curve" smooth="yes"/>
      <point x="35" y="212" type="line" smooth="yes"/>
      <point x="35" y="242"/>
      <point x="37" y="241"/>
      <point x="60" y="241" type="curve" smooth="yes"/>
      <point x="157" y="241" type="line" smooth="yes"/>
      <point x="187" y="241"/>
      <point x="188" y="227"/>
      <point x="188" y="265" type="curve" smooth="yes"/>
      <point x="188" y="777" type="line" smooth="yes"/>
      <point x="188" y="797"/>
      <point x="182" y="799"/>
    </contour>
  </outline>
</glyph>
<glyph name="f.sc" format="2">
  <advance width="1311"/>
  <anchor x="407" y="0" name="Anchor-2"/>
  <anchor x="666" y="1040" name="Anchor-0"/>
  <outline>
    <contour>
      <point x="163" y="799" type="curve" smooth="yes"/>
      <point x="52" y="799" type="line" smooth="yes"/>
      <point x="36" y="799"/>
      <point x="35" y="807"/>
      <point x="35" y="828" type="curve" smooth="yes"/>
      <point x="35" y="1017" type="line" smooth="yes"/>
      <point x="35" y="1039"/>
      <point x="41" y="1040"/>
      <point x="58" y="1040" type="curve" smooth="yes"/>
      <point x="1237" y="1040" type="line" smooth="yes"/>
      <point x="1264" y="1040"/>
      <point x="1267" y="1033"/>
      <point x="1267" y="1004" type="curve" smooth="yes"/>
      <point x="1267" y="646" type="line" smooth="yes"/>
      <point x="1267" y="632"/>
      <point x="1261" y="631"/>
      <point x="1235" y="631" type="curve" smooth="yes"/>
      <point x="1076" y="631" type="line" smooth="yes"/>
      <point x="1044" y="631"/>
      <point x="1036" y="631"/>
      <point x="1035" y="648" type="curve" smooth="yes"/>
      <point x="1031" y="752"/>
      <point x="990" y="799"/>
      <point x="821" y="799" type="curve" smooth="yes"/>
      <point x="640" y="799" type="line" smooth="yes"/>
      <point x="616" y="799"/>
      <point x="608" y="799"/>
      <point x="608" y="783" type="curve" smooth="yes"/>
      <point x="608" y="612" type="line" smooth="yes"/>
      <point x="608" y="607"/>
      <point x="610" y="605"/>
      <point x="614" y="605" type="curve" smooth="yes"/>
      <point x="615" y="605" type="line" smooth="yes"/>
      <point x="686" y="605"/>
      <point x="747" y="651"/>
      <point x="753" y="710" type="curve" smooth="yes"/>
      <point x="754" y="717"/>
      <point x="752" y="718"/>
      <point x="766" y="718" type="curve" smooth="yes"/>
      <point x="903" y="718" type="line" smooth="yes"/>
      <point x="922" y="718"/>
      <point x="924" y="714"/>
      <point x="924" y="703" type="curve" smooth="yes"/>
      <point x="924" y="306" type="line" smooth="yes"/>
      <point x="924" y="295"/>
      <point x="918" y="292"/>
      <point x="895" y="292" type="curve" smooth="yes"/>
      <point x="788" y="292" type="line" smooth="yes"/>
      <point x="762" y="292"/>
      <point x="756" y="293"/>
      <point x="753" y="305" type="curve" smooth="yes"/>
      <point x="745.042" y="360.708"/>
      <point x="681.665" y="405.531"/>
      <point x="618" y="405.996" type="curve" smooth="yes"/>
      <point x="617" y="406" type="line" smooth="yes"/>
      <point x="609" y="406"/>
      <point x="608" y="402"/>
      <point x="608" y="400" type="curve" smooth="yes"/>
      <point x="608" y="263" type="line" smooth="yes"/>
      <point x="608" y="244"/>
      <point x="611" y="241"/>
      <point x="640" y="241" type="curve" smooth="yes"/>
      <point x="765" y="241" type="line" smooth="yes"/>
      <point x="798" y="241"/>
      <point x="798" y="241"/>
      <point x="798" y="208" type="curve" smooth="yes"/>
      <point x="798" y="42" type="line" smooth="yes"/>
      <point x="798" y="5"/>
      <point x="793" y="0"/>
      <point x="756" y="0" type="curve" smooth="yes"/>
      <point x="63" y="0" type="line" smooth="yes"/>
      <point x="40" y="0"/>
      <point x="35" y="2"/>
      <point x="35" y="31" type="curve" smooth="yes"/>
      <point x="35" y="215" type="line" smooth="yes"/>
      <point x="35" y="240"/>
      <point x="41" y="241"/>
      <point x="61" y="241" type="curve" smooth="yes"/>
      <point x="158" y="241" type="line" smooth="yes"/>
      <point x="186" y="241"/>
      <point x="188" y="245"/>
      <point x="188" y="269" type="curve" smooth="yes"/>
      <point x="188" y="779" type="line" smooth="yes"/>
      <point x="188" y="796"/>
      <point x="182" y="799"/>
    </contour>
  </outline>
</glyph>
<glyph name="five.oldtab" format="2">
  <advance width="1400"/>
  <outline>
    <contour>
      <point x="115" y="-142" type="curve" smooth="yes"/>
      <point x="115" y="4"/>
      <point x="215" y="90"/>
      <point x="343" y="90" type="curve" smooth="yes"/>
      <point x="467" y="90"/>
      <point x="547" y="8"/>
      <point x="547" y="-76" type="curve" smooth="yes"/>
      <point x="547" y="-168"/>
      <point x="473" y="-208"/>
      <point x="473" y="-254" type="curve" smooth="yes"/>
      <point x="473" y="-298"/>
      <point x="529" y="-316"/>
      <point x="607" y="-316" type="curve" smooth="yes"/>
      <point x="765" y="-316"/>
      <point x="893" y="-158"/>
      <point x="893" y="50" type="curve" smooth="yes"/>
      <point x="893" y="268"/>
      <point x="775" y="352"/>
      <point x="657" y="352" type="curve" smooth="yes"/>
      <point x="578" y="352"/>
      <point x="476" y="303"/>
      <point x="390" y="195" type="curve" smooth="yes"/>
      <point x="374" y="174"/>
      <point x="363" y="164"/>
      <point x="324" y="164" type="curve" smooth="yes"/>
      <point x="260" y="164" type="line" smooth="yes"/>
      <point x="206" y="164"/>
      <point x="211" y="182"/>
      <point x="216" y="226" type="curve" smooth="yes"/>
      <point x="308" y="1000" type="line" smooth="yes"/>
      <point x="312" y="1038"/>
      <point x="322" y="1040"/>
      <point x="364" y="1040" type="curve" smooth="yes"/>
      <point x="729" y="1040" type="line" smooth="yes"/>
      <point x="930" y="1040"/>
      <point x="992" y="1008"/>
      <point x="1058" y="1083" type="curve" smooth="yes"/>
      <point x="1071" y="1098"/>
      <point x="1081" y="1104"/>
      <point x="1112" y="1104" type="curve" smooth="yes"/>
      <point x="1217" y="1104" type="line" smooth="yes"/>
      <point x="1243" y="1104"/>
      <point x="1254" y="1097"/>
      <point x="1249" y="1074" type="curve" smooth="yes"/>
      <point x="1241" y="1040" type="line" smooth="yes"/>
      <point x="1205" y="876"/>
      <point x="1169" y="660"/>
      <point x="695" y="660" type="curve" smooth="yes"/>
      <point x="470" y="660" type="line" smooth="yes"/>
      <point x="432" y="660"/>
      <point x="428" y="651"/>
      <point x="423" y="618" type="curve" smooth="yes"/>
      <point x="403" y="470" type="line" smooth="yes"/>
      <point x="397" y="432"/>
      <point x="381" y="390"/>
      <point x="389" y="386" type="curve" smooth="yes"/>
      <point x="404" y="377"/>
      <point x="412" y="412"/>
      <point x="444" y="436" type="curve" smooth="yes"/>
      <point x="520" y="492"/>
      <point x="630" y="540"/>
      <point x="771" y="540" type="curve" smooth="yes"/>
      <point x="1113" y="540"/>
      <point x="1295" y="320"/>
      <point x="1295" y="40" type="curve" smooth="yes"/>
      <point x="1295" y="-300"/>
      <point x="1029" y="-480"/>
      <point x="647" y="-480" type="curve" smooth="yes"/>
      <point x="343" y="-480"/>
      <point x="115" y="-346"/>
    </contour>
  </outline>
</glyph>
<glyph name="g.sc" format="2">
  <advance width="1509"/>
  <anchor x="719" y="2.71973" name="Anchor-2"/>
  <anchor x="740" y="1034.72" name="Anchor-0"/>
  <outline>
    <contour>
      <point x="775" y="618.08" type="curve" smooth="yes"/>
      <point x="1460" y="618.08" type="line" smooth="yes"/>
      <point x="1491" y="618.08"/>
      <point x="1496" y="613.28"/>
      <point x="1496" y="572.96" type="curve" smooth="yes"/>
      <point x="1496" y="416.48" type="line" smooth="yes"/>
      <point x="1496" y="387.68"/>
      <point x="1490" y="385.76"/>
      <point x="1466" y="385.76" type="curve" smooth="yes"/>
      <point x="1382" y="385.76" type="line" smooth="yes"/>
      <point x="1360" y="385.76"/>
      <point x="1357" y="383.84"/>
      <point x="1357" y="363.68" type="curve" smooth="yes"/>
      <point x="1357" y="215.84" type="line" smooth="yes"/>
      <point x="1357" y="185.12"/>
      <point x="1352" y="182.24"/>
      <point x="1333" y="167.84" type="curve" smooth="yes"/>
      <point x="1231" y="89.1201"/>
      <point x="1018" y="-31.8398"/>
      <point x="743" y="-31.8398" type="curve" smooth="yes"/>
      <point x="338" y="-31.8398"/>
      <point x="49" y="180.32"/>
      <point x="49" y="519.2" type="curve" smooth="yes"/>
      <point x="49" y="830.24"/>
      <point x="323" y="1069.28"/>
      <point x="722" y="1069.28" type="curve" smooth="yes"/>
      <point x="844" y="1069.28"/>
      <point x="936" y="1029.92"/>
      <point x="1005" y="970.4" type="curve" smooth="yes"/>
      <point x="1033" y="951.2"/>
      <point x="1042" y="950.24"/>
      <point x="1064" y="978.08" type="curve" smooth="yes"/>
      <point x="1103" y="1028" type="line" smooth="yes"/>
      <point x="1112" y="1039.52"/>
      <point x="1123" y="1043.36"/>
      <point x="1145" y="1043.36" type="curve" smooth="yes"/>
      <point x="1279" y="1043.36" type="line" smooth="yes"/>
      <point x="1309" y="1043.36"/>
      <point x="1321" y="1041.44"/>
      <point x="1321" y="1012.64" type="curve" smooth="yes"/>
      <point x="1321" y="710.24" type="line" smooth="yes"/>
      <point x="1321" y="686.24"/>
      <point x="1320" y="678.56"/>
      <point x="1281" y="678.56" type="curve" smooth="yes"/>
      <point x="1105" y="678.56" type="line" smooth="yes"/>
      <point x="1054" y="678.56"/>
      <point x="1058" y="685.28"/>
      <point x="1043" y="705.44" type="curve" smooth="yes"/>
      <point x="983" y="799.52"/>
      <point x="900" y="849.44"/>
      <point x="756" y="849.44" type="curve" smooth="yes"/>
      <point x="612" y="849.44"/>
      <point x="514" y="731.36"/>
      <point x="514" y="518.24" type="curve" smooth="yes"/>
      <point x="514" y="305.12"/>
      <point x="598" y="184.16"/>
      <point x="735" y="184.16" type="curve" smooth="yes"/>
      <point x="858" y="184.16"/>
      <point x="898" y="229.28"/>
      <point x="924" y="276.32" type="curve" smooth="yes"/>
      <point x="932" y="290.72"/>
      <point x="937" y="301.28"/>
      <point x="937" y="324.32" type="curve" smooth="yes"/>
      <point x="937" y="361.76" type="line" smooth="yes"/>
      <point x="937" y="382.88"/>
      <point x="934" y="385.76"/>
      <point x="908" y="385.76" type="curve" smooth="yes"/>
      <point x="767" y="385.76" type="line" smooth="yes"/>
      <point x="726" y="385.76"/>
      <point x="735" y="403.04"/>
      <point x="735" y="439.52" type="curve" smooth="yes"/>
      <point x="735" y="574.88" type="line" smooth="yes"/>
      <point x="735" y="616.16"/>
      <point x="744" y="618.08"/>
    </contour>
  </outline>
</glyph>
<glyph name="h.sc" format="2">
  <advance width="1673"/>
  <anchor x="885" y="0" name="Anchor-2"/>
  <anchor x="889" y="1040" name="Anchor-0"/>
  <outline>
    <contour>
      <point x="641" y="780" type="curve" smooth="yes"/>
      <point x="641" y="669" type="line" smooth="yes"/>
      <point x="641" y="646"/>
      <point x="650" y="646"/>
      <point x="688" y="646" type="curve" smooth="yes"/>
      <point x="1035" y="646" type="line" smooth="yes"/>
      <point x="1073" y="646"/>
      <point x="1076" y="651"/>
      <point x="1076" y="675" type="curve" smooth="yes"/>
      <point x="1076" y="783" type="line" smooth="yes"/>
      <point x="1076" y="798"/>
      <point x="1067" y="799"/>
      <point x="1044" y="799" type="curve" smooth="yes"/>
      <point x="976" y="799" type="line" smooth="yes"/>
      <point x="941" y="799"/>
      <point x="937" y="801"/>
      <point x="937" y="845" type="curve" smooth="yes"/>
      <point x="937" y="986" type="line" smooth="yes"/>
      <point x="937" y="1034"/>
      <point x="942" y="1040"/>
      <point x="978" y="1040" type="curve" smooth="yes"/>
      <point x="1597" y="1040" type="line" smooth="yes"/>
      <point x="1623" y="1040"/>
      <point x="1639" y="1033"/>
      <point x="1639" y="996" type="curve" smooth="yes"/>
      <point x="1639" y="842" type="line" smooth="yes"/>
      <point x="1639" y="807"/>
      <point x="1633" y="799"/>
      <point x="1604" y="799" type="curve" smooth="yes"/>
      <point x="1514" y="799" type="line" smooth="yes"/>
      <point x="1488" y="799"/>
      <point x="1486" y="792"/>
      <point x="1486" y="769" type="curve" smooth="yes"/>
      <point x="1486" y="270" type="line" smooth="yes"/>
      <point x="1486" y="248"/>
      <point x="1487" y="241"/>
      <point x="1513" y="241" type="curve" smooth="yes"/>
      <point x="1603" y="241" type="line" smooth="yes"/>
      <point x="1634" y="241"/>
      <point x="1639" y="232"/>
      <point x="1639" y="190" type="curve" smooth="yes"/>
      <point x="1639" y="72" type="line" smooth="yes"/>
      <point x="1639" y="7"/>
      <point x="1632" y="0"/>
      <point x="1583" y="0" type="curve" smooth="yes"/>
      <point x="992" y="0" type="line" smooth="yes"/>
      <point x="951" y="0"/>
      <point x="937" y="6"/>
      <point x="937" y="62" type="curve" smooth="yes"/>
      <point x="937" y="201" type="line" smooth="yes"/>
      <point x="937" y="235"/>
      <point x="946" y="241"/>
      <point x="971" y="241" type="curve" smooth="yes"/>
      <point x="1033" y="241" type="line" smooth="yes"/>
      <point x="1066" y="241"/>
      <point x="1076" y="242"/>
      <point x="1076" y="264" type="curve" smooth="yes"/>
      <point x="1076" y="398" type="line" smooth="yes"/>
      <point x="1076" y="418"/>
      <point x="1069" y="422"/>
      <point x="1038" y="422" type="curve" smooth="yes"/>
      <point x="677" y="422" type="line" smooth="yes"/>
      <point x="645" y="422"/>
      <point x="641" y="417"/>
      <point x="641" y="397" type="curve" smooth="yes"/>
      <point x="641" y="269" type="line" smooth="yes"/>
      <point x="641" y="248"/>
      <point x="642" y="241"/>
      <point x="681" y="241" type="curve" smooth="yes"/>
      <point x="772" y="241" type="line" smooth="yes"/>
      <point x="808" y="241"/>
      <point x="820" y="239"/>
      <point x="820" y="204" type="curve" smooth="yes"/>
      <point x="820" y="58" type="line" smooth="yes"/>
      <point x="820" y="5"/>
      <point x="796" y="0"/>
      <point x="748" y="0" type="curve" smooth="yes"/>
      <point x="97" y="0" type="line" smooth="yes"/>
      <point x="45" y="0"/>
      <point x="35" y="6"/>
      <point x="35" y="60" type="curve" smooth="yes"/>
      <point x="35" y="184" type="line" smooth="yes"/>
      <point x="35" y="224"/>
      <point x="37" y="241"/>
      <point x="77" y="241" type="curve" smooth="yes"/>
      <point x="173" y="241" type="line" smooth="yes"/>
      <point x="217" y="241"/>
      <point x="231" y="242"/>
      <point x="231" y="270" type="curve" smooth="yes"/>
      <point x="231" y="772" type="line" smooth="yes"/>
      <point x="231" y="796"/>
      <point x="221" y="799"/>
      <point x="183" y="799" type="curve" smooth="yes"/>
      <point x="93" y="799" type="line" smooth="yes"/>
      <point x="47" y="799"/>
      <point x="35" y="804"/>
      <point x="35" y="853" type="curve" smooth="yes"/>
      <point x="35" y="990" type="line" smooth="yes"/>
      <point x="35" y="1034"/>
      <point x="57" y="1040"/>
      <point x="97" y="1040" type="curve" smooth="yes"/>
      <point x="748" y="1040" type="line" smooth="yes"/>
      <point x="799" y="1040"/>
      <point x="820" y="1034"/>
      <point x="820" y="979" type="curve" smooth="yes"/>
      <point x="820" y="842" type="line" smooth="yes"/>
      <point x="820" y="804"/>
      <point x="815" y="799"/>
      <point x="778" y="799" type="curve" smooth="yes"/>
      <point x="679" y="799" type="line" smooth="yes"/>
      <point x="647" y="799"/>
      <point x="641" y="797"/>
    </contour>
  </outline>
</glyph>
